<?xml version="1.0" encoding="UTF-8"?>
<svg width="192px" height="192px" viewBox="0 0 192 192" version="1.1" xmlns="http://www.w3.org/2000/svg" xmlns:xlink="http://www.w3.org/1999/xlink">
    <!-- Generator: Sketch 55.2 (78181) - https://sketchapp.com -->
    <title>client-galloptaxshelter</title>
    <desc>Created with Sketch.</desc>
    <g id="Page-1" stroke="none" stroke-width="1" fill="none" fill-rule="evenodd">
        <g id="client-galloptaxshelter">
            <rect id="Rectangle" fill="#FFFFFF" fill-rule="nonzero" opacity="0.01" x="0" y="0" width="192" height="192"></rect>
            <g id="GALLOP-logo-pantone-neg-no-bg" transform="translate(39.000000, 62.000000)">
                <path d="M40.0776956,41.0564646 L29.5597252,20 L29.4096195,20 L26,27.1593116 L32.6226216,40.9485145 C32.9830867,41.6881534 33.1590909,42.2904012 33.1590909,42.9572125 C33.1590909,43.7655469 32.6929175,44.3290567 31.6453488,44.9313045 L31.6453488,45 L43,45 L43,44.9313045 C41.7410148,44.0837155 41.160148,43.2412917 40.0776956,41.0564646" id="Fill-1" fill="#FFFFFF"></path>
                <path d="M65,44.9300456 L65,45 L55,45 L55,44.9300456 C56.4756842,43.8958689 56.8522347,43.0047332 56.8522347,40.6576062 L56.8522347,4.30324018 C56.8522347,1.95611318 56.4756842,1.10413114 55,0.0699544078 L55,0 L65,0 L65,0.0699544078 C63.524808,1.10413114 63.1561331,1.95611318 63.1561331,4.30324018 L63.1561331,40.6576062 C63.1561331,43.0047332 63.524808,43.8958689 65,44.9300456" id="Fill-2" fill="#FFFFFF"></path>
                <path d="M78.5165725,45 C71.3241071,45 66,39.7921972 66,32.4977081 C66,25.2078028 71.3241071,20 78.5165725,20 C85.675383,20 91,25.2078028 91,32.4977081 C91,39.7921972 85.675383,45 78.5165725,45 M78.5165725,20.6952226 C74.5172456,20.6952226 73.1669692,24.8599368 73.1669692,32.4977081 C73.1669692,40.1400632 74.5172456,44.3042681 78.5165725,44.3042681 C82.4822445,44.3042681 83.8411895,40.1400632 83.8411895,32.4977081 C83.8411895,24.8599368 82.4822445,20.6952226 78.5165725,20.6952226" id="Fill-3" fill="#FFFFFF"></path>
                <polygon id="Clip-5" points="43.216 12.4224835 114.505257 12.4224835 114.505257 58.969011 43.216 58.969011"></polygon>
                <path d="M100.553714,39.4278571 L100.553714,47.8480879 C100.553714,50.1361099 101.118914,50.8762308 103.251657,51.9685934 L103.251657,52.0367692 L92.032,52.0367692 L92.032,51.9685934 C93.5738286,50.9449231 93.9590286,50.0627692 93.9590286,47.7406593 L93.9590286,29.2484835 C93.9590286,26.9263736 93.5738286,26.0834725 92.032,25.0603187 L92.032,24.9916264 L104.904571,24.9916264 C110.796743,24.9916264 114.505257,27.5585495 114.505257,32.2074176 C114.505257,36.8562857 110.796743,39.4278571 104.972971,39.4278571 L100.553714,39.4278571 Z M102.626286,38.4775275 C106.343543,38.4775275 108.124514,35.905956 108.124514,32.2074176 C108.124514,28.5088791 106.343543,25.9414396 102.626286,25.9414396 L100.553714,25.9414396 L100.553714,38.4775275 L102.626286,38.4775275 L102.626286,38.4775275 Z" id="Fill-4" fill="#FFFFFF"></path>
                <path d="M53.6647429,58.9313077 L53.6647429,59 L43.216,59 L43.216,58.9313077 C44.7573143,57.9076374 45.1430286,57.026 45.1430286,54.7038901 L45.1430286,16.6798571 C45.1430286,14.3577473 44.7573143,13.5143297 43.216,12.4911758 L43.216,12.4224835 L53.6647429,12.4224835 L53.6647429,12.4911758 C52.1234286,13.5143297 51.7377143,14.3577473 51.7377143,16.6798571 L51.7377143,54.7038901 C51.7377143,57.026 52.1234286,57.9076374 53.6647429,58.9313077" id="Fill-6" fill="#FFFFFF"></path>
                <polyline id="Fill-8" fill="#FFFFFF" points="29.4931993 50.0087056 29.4931993 56 28.5068007 56 28.5068007 50.0087056 27 50.0087056 27 49 31 49 31 50.0087056 29.4931993 50.0087056"></polyline>
                <path d="M34.4571647,50.5133257 L33.7810761,53.2668194 L35.1539889,53.2668194 L34.4571647,50.5133257 Z M35.8519044,56 L35.3902652,54.1921344 L33.5557132,54.1921344 L33.1159009,56 L32,56 L33.8885736,49 L35.0901451,49 L37,56 L35.8519044,56 L35.8519044,56 Z" id="Fill-9" fill="#FFFFFF"></path>
                <polyline id="Fill-10" fill="#FFFFFF" points="40.7793126 56 39.4740336 53.3298969 38.1580469 56 37 56 38.916158 52.4051165 37.1054717 49 38.3266945 49 39.5265018 51.5434135 40.726309 49 41.8950637 49 40.0843773 52.4051165 42 56 40.7793126 56"></polyline>
                <path d="M56.990599,56 C55.7964324,56 55,55.1988504 55,54.1272555 L55,53.8068976 L55.9950585,53.8068976 L55.9950585,53.9169092 C55.9950585,54.7180588 56.3460287,55.0985157 57.019043,55.0985157 C57.6539713,55.0985157 57.9856575,54.6981956 57.9856575,54.1374418 C57.9856575,53.576688 57.7296613,53.2858702 56.7818489,52.8254511 C55.9381704,52.4149447 55.085332,51.8842404 55.085332,50.8228318 C55.085332,49.8215221 55.7771484,49 56.980957,49 C58.1756056,49 58.943112,49.7914726 58.943112,50.8727445 L58.943112,51.1330035 L57.9764975,51.1330035 L57.9764975,51.0229919 C57.9764975,50.4123254 57.6824153,49.891298 56.952513,49.891298 C56.3744727,49.891298 56.0900325,50.2518917 56.0900325,50.7224971 C56.0900325,51.2532014 56.3556707,51.4935972 57.4360612,52.0441647 C58.5448957,52.6054278 59,53.1060827 59,54.0172439 C59,55.1387515 58.1944076,56 56.990599,56" id="Fill-11" fill="#FFFFFF"></path>
                <polyline id="Fill-12" fill="#FFFFFF" points="63.0341791 56 63.0341791 52.9519664 60.9658209 52.9519664 60.9658209 56 60 56 60 49 60.9658209 49 60.9658209 51.9641084 63.0341791 51.9641084 63.0341791 49 64 49 64 56 63.0341791 56"></polyline>
                <polyline id="Fill-13" fill="#FFFFFF" points="66 56 66 49 70 49 70 49.9985491 67.1777338 49.9985491 67.1777338 51.8379534 69.2110766 51.8379534 69.2110766 52.7835815 67.1777338 52.7835815 67.1777338 55.0014509 70 55.0014509 70 56 66 56"></polyline>
                <polyline id="Fill-14" fill="#FFFFFF" points="71 56 71 49 72.1977011 49 72.1977011 55.0014509 75 55.0014509 75 56 71 56"></polyline>
                <polyline id="Fill-15" fill="#FFFFFF" points="77.4927262 50.0087056 77.4927262 56 76.5068007 56 76.5068007 50.0087056 75 50.0087056 75 49 79 49 79 50.0087056 77.4927262 50.0087056"></polyline>
                <polyline id="Fill-16" fill="#FFFFFF" points="80 56 80 49 84 49 84 49.9985491 81.1777338 49.9985491 81.1777338 51.8379534 83.2110766 51.8379534 83.2110766 52.7835815 81.1777338 52.7835815 81.1777338 55.0014509 84 55.0014509 84 56 80 56"></polyline>
                <path d="M88.6972541,50.692952 C88.6972541,50.2566405 88.5424632,49.9243888 88.0410149,49.9243888 L86.9658209,49.9243888 L86.9658209,52.1260187 L87.9409107,52.1260187 C88.43309,52.1260187 88.6972541,51.8249321 88.6972541,51.232795 L88.6972541,50.692952 Z M89.8085969,56 C89.0068358,56 88.7334029,55.7506791 88.7334029,54.9615152 L88.7334029,53.8290069 C88.7334029,53.2891639 88.5239254,52.9257471 88.0044027,52.9257471 L86.9658209,52.9257471 L86.9658209,55.9170691 L86,55.9170691 L86,49 L88.0410149,49 C89.2348511,49 89.6723439,49.6750679 89.6723439,50.7035165 L89.6723439,51.1704648 C89.6723439,51.9390281 89.4262542,52.3753396 88.7426718,52.5105644 C89.4169853,52.5934953 89.6992237,53.2162692 89.6992237,53.8189707 L89.6992237,54.8780561 C89.6992237,55.0650468 89.7905225,55.1479777 90,55.1479777 L90,56 L89.8085969,56 L89.8085969,56 Z" id="Fill-17" fill="#FFFFFF"></path>
                <path d="M7.42560198,36.591504 C7.42560198,43.5552764 9.64681303,48.6211289 13.5018414,48.6211289 C16.3350921,48.6211289 19.3439448,45.981185 19.3439448,42.7064976 L19.3501062,42.4908847 C19.3501062,40.0350006 18.925478,38.9490476 16.6621636,37.297242 L16.6621636,37.2199369 L29,37.2199369 L29,37.297242 C23.4798336,40.1075727 24.6633499,43.7977095 22.6634384,46.5428304 C20.3790722,49.6781582 16.6082507,50 13.2687323,50 C5.83799575,50 0,44.560769 0,36.591504 C0,28.4355498 6.36839589,23 13.9274965,23 C17.347114,23 19.2391997,24.1190838 20.4381197,24.1190838 C21.4239554,24.1190838 22.037022,23.6684001 22.8010446,23 L23.0582861,31.8606404 L22.9874292,31.8606404 C21.059915,27.2076078 18.1819936,23.8188033 14.5847203,23.8188033 C9.96618272,23.8188033 7.42560198,28.8857076 7.42560198,36.591504" id="Fill-18" fill="#FFFFFF"></path>
            </g>
        </g>
    </g>
</svg>