<?xml version="1.0" encoding="UTF-8"?>
<svg width="300px" height="300px" viewBox="0 0 300 300" version="1.1" xmlns="http://www.w3.org/2000/svg" xmlns:xlink="http://www.w3.org/1999/xlink">
    <!-- Generator: Sketch 54 (76480) - https://sketchapp.com -->
    <title>Group 3</title>
    <desc>Created with Sketch.</desc>
    <defs>
        <path d="M54.8857915,0.780766852 C53.4489372,0.820327586 52.0164238,1.31703458 50.5839104,2.31044856 C48.7563706,3.57639204 46.8637166,3.80056954 44.7019237,3.24232362 C41.8672836,2.52143914 39.2844185,3.36540146 37.5046292,5.7038804 C35.7465446,8.01158987 33.5717288,9.27753335 30.8152258,9.73467961 C27.7895839,10.226991 25.7710424,12.0160153 24.7075097,14.8687837 C23.7915693,17.36111 22.2114637,19.1237604 19.8022366,20.2050872 C16.9458918,21.4842176 15.2789671,23.7655532 14.8101445,26.8820599 C14.3152763,30.1216445 12.874081,32.7326529 10.3867169,34.8645369 C8.24228777,36.7063088 7.08325422,39.1327005 7.2916198,42.0601948 C7.54339488,45.6470347 6.54497646,48.7943108 4.40922925,51.68664 C2.44712002,54.3416048 1.91752416,57.4712985 2.6381218,60.6273659 C3.44553843,64.1482712 3.15903576,67.4010426 1.73954523,70.6977705 C1.10142563,72.1659133 0.636944024,73.6999906 0.606557377,75.2560461 L0.606557377,75.5329713 C0.623921176,76.4472638 0.793218211,77.3659519 1.18390368,78.2890357 C2.97237492,82.5264299 3.71901826,86.8385499 2.48618856,91.3704517 C2.40371052,91.669355 2.48184761,91.9902366 2.48184761,92.5572737 C2.03907075,95.001248 3.20244525,97.2562098 4.60891293,99.3265549 C6.50590792,102.095806 7.52169013,105.071653 7.28727885,108.421128 C7.05286757,111.616756 8.32910676,114.166226 10.6254691,116.166241 C12.9478772,118.157464 14.3152763,120.601438 14.7623941,123.603659 C15.2485805,126.85643 16.9545737,129.23447 19.8933966,130.548765 C22.3243283,131.660861 23.8132741,133.498238 24.7422373,135.924629 C25.883907,138.922454 28.0630638,140.601587 31.1755246,141.10269 C33.5977745,141.493902 35.6032933,142.531272 37.1269666,144.597221 C38.9414835,147.049987 41.3680744,147.995049 44.4501486,147.454385 C46.8116252,147.054382 49.0862828,147.24779 51.2393938,148.733516 C53.7658265,150.478584 56.5353523,150.377484 59.1008536,148.693955 C61.2409417,147.27856 63.5199403,147.001635 65.9074626,147.454385 C68.8593083,147.999444 71.216444,147.071965 72.9875514,144.715903 C74.5893618,142.597206 76.6513129,141.458736 79.2168141,141.080712 C82.3683436,140.605983 84.4563403,138.786189 85.5849872,135.814738 C86.470541,133.467468 87.8770086,131.691631 90.2254624,130.658656 C93.3075366,129.313591 95.0135298,126.843243 95.5431257,123.489372 C95.9815616,120.614625 97.2230732,118.236586 99.4630032,116.271736 C101.702933,114.328864 103.278698,111.871703 102.96615,108.627723 C102.636237,105.133191 103.730157,102.095806 105.70963,99.251829 C107.762899,96.284774 108.335904,93.0012331 107.485078,89.4143932 C106.820913,86.6319549 106.816572,83.7879777 108.092811,81.1418042 C109.981124,77.2033134 109.885623,73.3131745 108.036379,69.4186401 C106.903391,67.0406004 106.755799,64.477944 107.372213,62.0515523 C108.457451,57.7614105 107.589261,54.0075364 105.119261,50.5130049 C103.565201,48.3063951 102.744761,45.8887947 102.987854,43.172291 C103.300403,39.5546817 102.071914,36.6052092 99.3414566,34.3106866 C97.2447779,32.5656187 95.9685387,30.3721958 95.6169218,27.6776702 C95.1437583,24.0380827 93.2554452,21.4886132 90.0474834,19.9633271 C87.9638276,18.9743088 86.5226323,17.4753965 85.7369205,15.32593 C84.5127727,11.9720589 82.1165685,10.0160004 78.6915592,9.49291957 C76.2866731,9.12808169 74.5329295,7.99840296 73.0830523,6.05553137 C71.1469888,3.4884793 68.4990095,2.48187841 65.3952305,3.28188436 C63.3419614,3.81815208 61.5231035,3.54122695 59.8040874,2.38957003 C58.2934369,1.37417786 56.7827865,0.820327586 55.267795,0.780766852 L54.8857915,0.780766852 Z" id="path-1"></path>
    </defs>
    <g id="Page-1" stroke="none" stroke-width="1" fill="none" fill-rule="evenodd">
        <g id="Artboard" transform="translate(-1500.000000, 0.000000)">
            <g id="Group-3" transform="translate(1500.000000, 0.000000)">
                <g id="Group-2-Copy" fill="#FFFFFF" fill-opacity="0.01">
                    <rect id="Rectangle-Copy" x="0" y="0" width="300" height="300"></rect>
                </g>
                <g id="phillipsbiscuit-2" transform="translate(95.000000, 75.000000)">
                    <g id="phillipsbiscuit">
                        <g id="Group" fill="#FFFFFF" fill-rule="nonzero">
                            <path d="M68.5284228,147.197221 L68.5284228,104.400958 L66.0767684,103.849722 L66.0767684,146.97167 C65.1901509,146.843077 64.3209113,146.817365 63.46949,146.913987 L63.46949,108.378318 C63.46949,105.88781 61.4782104,103.849722 59.0267431,103.849722 C57.7537005,103.849722 56.6139832,104.403168 55.8054291,105.264084 C54.9882733,104.403168 53.8485561,103.849722 52.5798142,103.849722 C50.1369486,103.849722 48.1370674,105.892202 48.1370674,108.38271 L48.1370674,146.955166 C47.0696835,146.814395 45.9808753,146.871015 44.8750379,147.05307 C44.5762157,147.105564 44.2833905,147.14422 43.9965467,147.169034 L43.9965467,103.849722 L41.5448923,104.400958 L41.5448923,147.011218 C39.9510389,146.633309 38.5972185,145.69501 37.4794223,144.195316 C35.9362944,142.121352 33.915323,141.086572 31.4603469,140.68587 C28.3214845,140.188295 26.1207737,138.506226 24.9634278,135.507565 C24.0296601,133.072529 22.5259872,131.231942 20.0710111,130.117902 C17.1075042,128.805712 15.3802531,126.419113 14.8892579,123.156253 C14.4377176,120.144382 13.0567935,117.709346 10.7114145,115.710239 C8.39233886,113.697921 7.10786027,111.161609 7.33582235,107.955992 C7.57693607,104.591856 6.55110676,101.610808 4.63534859,98.8455229 C3.21496953,96.7627525 2.04447198,94.512656 2.48286057,92.0644101 C2.48286057,91.4875752 2.4127184,91.1705361 2.49162835,90.8755137 C3.74541973,86.3356908 3.00015912,82.0116305 1.18961421,77.7712333 C0.0892588323,75.1732745 0.698618982,72.5841224 1.75075162,70.1666997 C3.18428233,66.8642097 3.47800269,63.6057529 2.65821601,60.0742902 C1.92610705,56.9127064 2.46970892,53.7775426 4.44684149,51.1179373 C6.5993295,48.2249561 7.61639105,45.0721789 7.36212566,41.4702632 C7.15169913,38.5464587 8.31342892,36.1202293 10.4834525,34.2708349 C12.999803,32.1396281 14.4508693,29.524056 14.9506323,26.2655992 C15.4284759,23.1480486 17.1118881,20.8671288 19.996485,19.5813594 C22.420774,18.4981427 24.0208924,16.7368146 24.9458923,14.2489388 C26.0199444,11.3911842 28.0628352,9.59462959 31.1052521,9.10145775 C33.8977875,8.63470583 36.0984982,7.3753563 37.8695881,5.05920998 C39.6713653,2.71664373 42.2797774,1.87120629 45.1380711,2.59335077 C47.3256302,3.14376577 49.2370045,2.92800309 51.0782366,1.65544361 C54.1864117,-0.475763277 57.290203,-0.326050396 60.3852265,1.73910669 C62.1256292,2.88837321 63.9624775,3.17018569 66.0316716,2.62417401 C69.1661501,1.83157641 71.8447044,2.83113005 73.782382,5.40707226 C75.2553677,7.3533397 77.0264577,8.48499295 79.4551305,8.85487183 C82.9096326,9.37446359 85.3295377,11.333941 86.5701774,14.6892708 C87.3636608,16.8468976 88.8191109,18.3528331 90.9189923,19.3435801 C94.1674518,20.8715321 96.0700583,23.4298611 96.5522858,27.0714067 C96.9117644,29.7662386 98.196243,31.9678986 100.304892,33.7160166 C103.062356,36.0101463 104.311764,38.9735807 103.99174,42.5931098 C103.746243,45.3099582 104.579181,47.7273809 106.148612,49.9378475 C108.638659,53.4428903 109.51982,57.2077289 108.419465,61.4921593 C107.796953,63.9315985 107.950389,66.5031374 109.081432,68.8765269 C110.957735,72.7822718 111.054181,76.67921 109.14719,80.6245847 C107.858328,83.2753833 107.867095,86.1155248 108.533446,88.9160363 C109.392688,92.5091454 108.809631,95.7940221 106.740437,98.7662632 C104.741385,101.610808 103.636646,104.662309 103.969821,108.158545 C104.285461,111.412598 102.689726,113.865247 100.432025,115.815918 C98.1699397,117.775396 96.9161483,120.157592 96.4689919,123.04617 C95.9385417,126.405903 94.2156746,128.871762 91.1031155,130.232388 C88.7314332,131.258362 87.315438,133.041706 86.4167414,135.384272 C85.2769311,138.369723 83.163898,140.192698 79.9855807,140.663853 C77.3947041,141.046942 75.3123582,142.178595 73.6990882,144.305399 C72.3269903,146.122705 70.6014562,147.09526 68.5284228,147.197221 Z M50.5455265,147.656248 L50.5455265,108.38271 C50.5455265,107.245071 51.4573003,106.313875 52.5798142,106.313875 C53.6077102,106.313875 54.4549717,107.095728 54.5968987,108.101595 L54.6184028,108.378318 L54.6184028,149.522528 C53.6392318,149.365522 52.6707493,148.974571 51.7358195,148.33884 C51.3429603,148.07048 50.9461103,147.844352 50.5455265,147.656248 Z M57.0268619,149.444881 L57.0268619,108.097202 C57.1601873,107.091336 57.9945464,106.309483 59.0267431,106.309483 C60.1406555,106.309483 61.0524293,107.240678 61.0524293,108.378318 L61.0524293,147.553967 C60.5873538,147.753939 60.1281959,147.999688 59.675037,148.294807 C58.810526,148.859966 57.922017,149.246064 57.0268619,149.444881 Z M55.8055814,23.855906 C57.5007585,23.855906 58.8697632,22.4869539 58.8697632,20.7861347 C58.8697632,19.0807062 57.5007585,17.7025356 55.8055814,17.7025356 C54.1058104,17.7025356 52.7368057,19.0807062 52.7368057,20.7861347 C52.7322117,22.4869539 54.1058104,23.855906 55.8055814,23.855906 Z M47.1278689,85.7608305 C47.3063752,87.6131238 48.0873406,89.305507 49.2654827,90.6558599 L49.2654827,97.1899689 L51.318306,97.0389426 L51.318306,92.3660108 C52.353643,92.970116 53.5228597,93.3965433 54.776867,93.5431276 L54.776867,96.8568226 L56.8252277,96.8568226 L56.8252277,93.5520115 C58.065847,93.4009852 59.2350638,92.9878838 60.2570128,92.3926625 L60.2570128,97.0433846 L62.3098361,97.1944109 L62.3098361,90.7002794 C63.5102914,89.3632523 64.2957195,87.6708692 64.4831512,85.7963661 L64.4831512,97.4564859 L66.5359745,97.6963513 L66.5359745,56.3728867 L64.4831512,55.9064819 L64.4831512,84.0417957 C64.2957195,82.1717346 63.5058288,80.4749095 62.3098361,79.1423244 L62.3098361,58.3806482 C62.3098361,56.3106993 60.6140255,54.6227582 58.5210383,54.6227582 C57.4455373,54.6227582 56.4771403,55.0802791 55.7854281,55.7998751 C55.0937158,55.0802791 54.1208561,54.6227582 53.0408925,54.6227582 C50.9568306,54.6227582 49.26102,56.3106993 49.26102,58.3806482 L49.26102,79.17786 C48.082878,80.5060032 47.3019126,82.2028283 47.1234062,84.0773313 L47.1234062,55.9064819 L45.0705829,56.3728867 L45.0705829,97.6963513 L47.1234062,97.4564859 L47.1234062,85.7608305 L47.1278689,85.7608305 Z M56.3789617,81.2478089 L56.3789617,78.1873051 C58.2532787,78.3338895 59.9,79.2578151 61.0379781,80.61261 L58.498725,82.3582965 C57.9498179,81.7675171 57.2045537,81.3810674 56.3789617,81.2478089 Z M58.5299636,56.6527295 C59.493898,56.6527295 60.2614754,57.4300708 60.2614754,58.3762063 L60.2614754,77.4454994 C59.2395264,76.8369522 58.0747723,76.4371766 56.8296903,76.2905923 L56.8296903,58.1496668 C56.9501821,57.3190221 57.659745,56.6527295 58.5299636,56.6527295 Z M53.0498179,56.6527295 C53.9289617,56.6527295 54.6474499,57.3145801 54.7634791,58.1452249 L54.7813297,58.3762063 L54.7813297,76.2950342 C53.5228597,76.4371766 52.3581056,76.8458361 51.3227687,77.4721511 L51.3227687,58.3806482 C51.3227687,57.4300708 52.0992714,56.6527295 53.0498179,56.6527295 Z M55.2142077,78.1873051 L55.2142077,81.2522509 C53.4425319,81.5409776 52.0858834,83.0734505 52.0858834,84.9079761 C52.0858834,86.969041 53.7504554,88.6170046 55.812204,88.6170046 C57.8605647,88.6170046 59.5295993,86.969041 59.5295993,84.9079761 C59.5295993,84.3438484 59.3957195,83.7974885 59.1591985,83.3088739 L61.7029144,81.5631874 C62.2652095,82.5448584 62.5999089,83.6819977 62.5999089,84.9035341 C62.5999089,88.6303305 59.5474499,91.6641826 55.812204,91.6641826 C52.0635701,91.6641826 49.0200364,88.6303305 49.0200364,84.9035341 C49.0244991,81.3899513 51.751184,78.4893577 55.2142077,78.1873051 Z M55.7608922,51.9492189 C59.5935198,51.9492189 63.2744486,52.3463219 66.5359745,53.0844156 L66.5359745,45.4099679 L64.215874,50.4643989 C61.5432966,50.0370815 58.69225,49.8169483 55.7608922,49.8169483 C52.8607666,49.8169483 50.0409521,50.0327651 47.3951451,50.4471335 L45.0705829,45.3927025 L45.0705829,53.0671502 L45.1062767,53.0671502 C48.3142619,52.3333729 51.9594968,51.9492189 55.7608922,51.9492189 Z M56.5470232,28.4701647 C59.0131234,28.4701647 61.3694158,28.7286062 63.46949,29.2270292 L63.46949,26.9010552 C61.3465392,26.4257073 58.9856714,26.1764958 56.5470232,26.1764958 C54.1221009,26.1764958 51.7886851,26.4210923 49.6703097,26.8779801 L49.6703097,29.2131841 L49.688611,29.2131841 C51.7566579,28.7286062 54.0992243,28.4701647 56.5470232,28.4701647 Z M55.8032787,30.0092764 L55.8032787,48.4693878 L57.3365209,48.4693878 L57.3365209,30.0092764 L55.8032787,30.0092764 Z M51.4971678,48.2283496 L51.4971678,31.547619 L49.3766938,32.04755 L49.3766938,48.4693878 L51.4971678,48.2283496 Z M62.2275638,48.4693878 L62.2275638,32.04755 L60.1116894,31.547619 L60.1116894,48.2283496 L62.2275638,48.4693878 Z M54.9852691,100.934468 C59.64151,100.934468 64.1100714,101.413581 68.0692168,102.311379 L68.0692168,94.6412477 L65.7455649,99.6913624 C62.3583953,99.1259222 58.7343921,98.8194622 54.9852691,98.8194622 C51.2808317,98.8194622 47.692577,99.1216058 44.3277503,99.6697807 L42.0040984,94.619666 L42.0040984,102.294114 C45.9051524,101.409265 50.3692452,100.934468 54.9852691,100.934468 Z M55.8101697,11.5491651 L52.7367942,17.7025356 L58.8697632,17.7025356 L55.8101697,11.5491651 Z M36.0634271,53.7114928 C36.0634271,43.821636 30.5616502,40.2593502 25.6604657,40.2593502 L15.2662721,40.2593502 L15.2662721,107.480433 L19.3169827,107.480433 L19.3169827,89.3343517 L25.6604657,89.3343517 C32.3195885,89.3343517 36.0634271,82.4167359 36.0634271,75.6972696 L36.0634271,53.7114928 Z M32.1661525,75.6972696 C32.1661525,81.4612155 28.9615318,84.8165454 25.6648496,84.8165454 L19.3169827,84.8165454 L19.3169827,44.7815598 L25.6604657,44.7815598 C29.7900863,44.7815598 32.1617686,48.141293 32.1617686,53.7114928 L32.1617686,75.6972696 L32.1661525,75.6972696 Z M95.4168593,92.310996 C95.4168593,88.665047 94.4173333,84.9134184 90.8269307,83.4647261 C94.1148452,80.8755739 95.2678072,76.9522158 95.2678072,72.909968 L95.3379494,53.7070895 C95.3379494,45.5477375 91.5897269,40.2593502 84.7859358,40.2593502 L75.2246805,40.2593502 L75.2246805,107.484837 L87.4644902,107.484837 C91.2872387,107.484837 95.4168593,104.503789 95.4168593,97.0137418 L95.4168593,92.310996 Z M84.7903197,44.8696262 C89.8361725,44.9709026 91.4450586,48.6168515 91.4450586,53.7070895 L91.4450586,72.8174983 C91.4450586,78.5726376 87.6968361,82.1349235 84.9437557,82.1349235 L79.279775,82.1349235 L79.279775,44.8696262 L84.7903197,44.8696262 Z M91.4450586,97.0137418 C91.4450586,98.8367163 90.9847506,102.96703 87.4644902,102.96703 L79.279775,102.96703 L79.279775,86.5470501 L86.3992059,86.5470501 C89.3057223,86.6439232 91.4450586,88.471301 91.4450586,92.3153993 L91.4450586,97.0137418 Z" id="Path-3"></path>
                        </g>
                        <mask id="mask-2" fill="white">
                            <use xlink:href="#path-1"></use>
                        </mask>
                        <g id="SVGID_3_"></g>
                    </g>
                </g>
            </g>
        </g>
    </g>
</svg>