<?xml version="1.0" encoding="UTF-8"?>
<svg width="300px" height="300px" viewBox="0 0 300 300" version="1.1" xmlns="http://www.w3.org/2000/svg" xmlns:xlink="http://www.w3.org/1999/xlink">
    <!-- Generator: Sketch 54 (76480) - https://sketchapp.com -->
    <title>Group 2</title>
    <desc>Created with Sketch.</desc>
    <defs>
        <polygon id="path-1" points="88.9869329 0.10653353 205.124675 0.10653353 205.124675 102.010161 88.9869329 102.010161 88.9869329 0.10653353"></polygon>
    </defs>
    <g id="Page-1" stroke="none" stroke-width="1" fill="none" fill-rule="evenodd">
        <g id="Artboard" transform="translate(-1200.000000, 0.000000)">
            <g id="Group-2" transform="translate(1200.000000, 0.000000)">
                <rect id="Rectangle-Copy" fill-opacity="0.01" fill="#FFFFFF" x="0" y="0" width="300" height="300"></rect>
                <g id="Medialaan-2" transform="translate(46.000000, 62.000000)">
                    <g id="Medialaan">
                        <polygon id="path3025" fill="#FFFFFF" fill-rule="nonzero" transform="translate(9.238587, 84.446593) scale(-1, 1) rotate(-180.000000) translate(-9.238587, -84.446593) " points="14.1963768 79.3821534 2.17499388 84.7269798 4.28208663 89.5110333 16.3021808 84.1662069"></polygon>
                        <polygon id="path3029" fill="#FFFFFF" fill-rule="nonzero" transform="translate(34.246235, 66.944786) scale(-1, 1) rotate(-180.000000) translate(-34.246235, -66.944786) " points="31.916834 75.4062409 31.372985 58.6542832 36.5756354 58.4833316 37.1194844 75.2365844"></polygon>
                        <polygon id="path3033" fill="#FFFFFF" fill-rule="nonzero" transform="translate(23.030446, 73.092822) scale(-1, 1) rotate(-180.000000) translate(-23.030446, -73.092822) " points="22.3873638 67.6981343 18.4914975 76.0449737 23.673528 78.4875089 27.5693943 70.1406695"></polygon>
                        <polygon id="path3037" fill="#FFFFFF" fill-rule="nonzero" transform="translate(12.518432, 73.327358) scale(-1, 1) rotate(-180.000000) translate(-12.518432, -73.327358) " points="18.6985933 65.0957819 4.59331495 79.8779113 6.33827126 81.558935 20.4435496 66.7781006"></polygon>
                        <polygon id="path3041" fill="#FFFFFF" fill-rule="nonzero" transform="translate(44.069541, 70.910213) scale(-1, 1) rotate(-180.000000) translate(-44.069541, -70.910213) " points="40.3160809 65.4164513 45.6140982 77.390831 47.8230016 76.4026792 42.5249843 64.4295946"></polygon>
                        <polygon id="path3045" fill="#FFFFFF" fill-rule="nonzero" transform="translate(54.480897, 73.984356) scale(-1, 1) rotate(-180.000000) translate(-54.480897, -73.984356) " points="46.1214742 68.228987 60.2280412 82.3700482 62.8403208 79.7397253 48.7324649 65.5986642"></polygon>
                        <polygon id="path3049" fill="#FFFFFF" fill-rule="nonzero" transform="translate(59.659577, 107.589807) scale(-1, 1) rotate(-180.000000) translate(-59.659577, -107.589807) " points="52.08242 113.10947 68.7329632 105.27937 67.2367341 102.070143 50.5861908 109.900243"></polygon>
                        <polygon id="path3053" fill="#FFFFFF" fill-rule="nonzero" transform="translate(52.160260, 113.718423) scale(-1, 1) rotate(-180.000000) translate(-52.160260, -113.718423) " points="48.5485616 119.269168 57.7669312 110.221687 55.771959 108.167678 46.5535893 117.216455"></polygon>
                        <polygon id="path3057" fill="#FFFFFF" fill-rule="nonzero" transform="translate(44.293264, 118.831560) scale(-1, 1) rotate(-180.000000) translate(-44.293264, -118.831560) " points="44.0870651 125.551769 49.2961592 114.367393 44.4994624 112.11135 39.2903683 123.295726"></polygon>
                        <polygon id="path3061" fill="#FFFFFF" fill-rule="nonzero" transform="translate(33.753029, 124.710737) scale(-1, 1) rotate(-180.000000) translate(-33.753029, -124.710737) " points="35.4760764 134.30604 35.7853744 115.176302 32.0274035 115.115433 31.720683 134.245171"></polygon>
                        <polygon id="path3065" fill="#FFFFFF" fill-rule="nonzero" transform="translate(23.851117, 118.124567) scale(-1, 1) rotate(-180.000000) translate(-23.851117, -118.124567) " points="27.496967 121.893919 23.7853907 112.868454 20.2052662 114.35651 23.9181311 123.38068"></polygon>
                        <polygon id="path3069" fill="#FFFFFF" fill-rule="nonzero" transform="translate(11.741456, 116.934515) scale(-1, 1) rotate(-180.000000) translate(-11.741456, -116.934515) " points="20.7181865 123.227345 5.50845653 107.893508 2.76472537 110.641684 17.9757441 125.975521"></polygon>
                        <polygon id="path3073" fill="#FFFFFF" fill-rule="nonzero" transform="translate(10.764585, 105.106220) scale(-1, 1) rotate(-180.000000) translate(-10.764585, -105.106220) " points="16.0580912 105.051826 7.20830171 101.165269 5.47107785 105.161909 14.3221561 109.047171"></polygon>
                        <polygon id="path3077" fill="#FFFFFF" fill-rule="nonzero" transform="translate(6.943593, 95.607144) scale(-1, 1) rotate(-180.000000) translate(-6.943593, -95.607144) " points="13.5161764 94.3735735 0.407095388 94.1961465 0.371010619 96.8394202 13.4800916 97.0181423"></polygon>
                        <polygon id="path3081" fill="#FFFFFF" fill-rule="nonzero" transform="translate(57.697597, 85.311841) scale(-1, 1) rotate(-180.000000) translate(-57.697597, -85.311841) " points="50.737747 85.2134141 62.778461 90.093304 64.6574465 85.4102674 52.6180212 80.5303774"></polygon>
                        <polygon id="path3085" fill="#FFFFFF" fill-rule="nonzero" transform="translate(57.935884, 96.176854) scale(-1, 1) rotate(-180.000000) translate(-57.935884, -96.176854) " points="53.2203779 99.5117043 62.9001171 99.1270633 62.6513899 92.8420033 52.9716507 93.2279394"></polygon>
                        <polygon id="path3089" fill="#FFFFFF" fill-rule="nonzero" transform="translate(95.589983, 95.114503) scale(-1, 1) rotate(-180.000000) translate(-95.589983, -95.114503) " points="95.6533131 93.0786156 89.875596 101.760866 89.5378375 101.723581 88.9864212 88.4681386 91.1728956 88.4681386 91.3149077 96.3301205 95.4575667 90.061106 95.7249588 90.061106 99.8305155 96.3121209 100.007071 88.4681386 102.193545 88.4681386 101.642129 101.723581 101.286459 101.760866"></polygon>
                        <polygon id="path3093" fill="#FFFFFF" fill-rule="nonzero" transform="translate(110.611152, 95.212086) scale(-1, 1) rotate(-180.000000) translate(-110.611152, -95.212086) " points="106.639292 101.760095 106.639292 88.6640774 114.583013 88.6640774 114.583013 90.7006072 108.85903 90.7006072 108.85903 94.3275329 114.031596 94.3275329 114.031596 96.2920641 108.85903 96.2920641 108.85903 99.7209939 114.583013 99.7209939 114.583013 101.760095"></polygon>
                        <mask id="mask-2" fill="white">
                            <use xlink:href="#path-1"></use>
                        </mask>
                        <g id="path3101" transform="translate(147.055804, 51.058347) scale(-1, 1) rotate(-180.000000) translate(-147.055804, -51.058347) "></g>
                        <path d="M127.914622,95.3469549 C127.914622,96.0270838 127.807153,96.6454997 127.594775,97.2034883 C127.382396,97.7640483 127.05999,98.2423242 126.635233,98.6434588 C126.209197,99.0420221 125.682089,99.3505872 125.05263,99.5717255 C124.42573,99.7902925 123.696479,99.9021473 122.867435,99.9021473 C122.213668,99.9021473 121.657134,99.8674338 121.196554,99.7954352 L121.196554,90.665765 C121.469064,90.6181946 121.741574,90.5886238 122.012804,90.5757669 C122.286593,90.5654814 122.634587,90.5603386 123.061902,90.5603386 C123.90374,90.5603386 124.625315,90.6773362 125.230465,90.9164742 C125.836895,91.1543265 126.338415,91.4873196 126.741423,91.9167394 C127.14443,92.3448735 127.441248,92.8514346 127.630597,93.4364226 C127.818667,94.0188392 127.914622,94.6565405 127.914622,95.3469549 M130.298122,95.3469549 C130.298122,94.4289737 130.142036,93.5611343 129.836263,92.738294 C129.525371,91.9167394 129.060953,91.1993255 128.439171,90.5860524 C127.817388,89.9727792 127.031844,89.4842178 126.082538,89.1216538 C125.13579,88.7565184 124.016326,88.5765221 122.724144,88.5765221 C122.368474,88.5765221 122.033274,88.5842362 121.719824,88.593236 C121.406374,88.6060929 121.101879,88.6215212 120.805061,88.6395208 C120.508243,88.6575204 120.212705,88.6768058 119.915887,88.7025195 C119.617789,88.7256619 119.306898,88.753947 118.972977,88.791232 L118.972977,101.651969 C119.613951,101.723967 120.215263,101.779252 120.778194,101.813965 C121.341125,101.849965 121.948834,101.866679 122.600043,101.866679 C123.892225,101.866679 125.018087,101.695682 125.976348,101.349832 C126.937169,101.003982 127.738066,100.53342 128.376481,99.9368609 C129.017454,99.3403017 129.497225,98.6486016 129.815792,97.8553321 C130.136919,97.064634 130.298122,96.2289368 130.298122,95.3469549" id="path3105" fill="#FFFFFF" fill-rule="nonzero" mask="url(#mask-2)" transform="translate(124.635550, 95.221600) scale(-1, 1) rotate(-180.000000) translate(-124.635550, -95.221600) "></path>
                        <polygon id="path3107" fill="#FFFFFF" fill-rule="nonzero" mask="url(#mask-2)" transform="translate(135.240015, 95.212729) scale(-1, 1) rotate(-180.000000) translate(-135.240015, -95.212729) " points="134.128866 101.760738 136.351163 101.760738 136.351163 88.6647203 134.128866 88.6647203"></polygon>
                        <path d="M145.716924,97.6311081 L143.868208,93.255912 L147.56564,93.255912 L145.716924,97.6311081 Z M149.557648,88.4860097 L148.296171,91.4868054 L143.138957,91.4868054 L141.87748,88.4860097 L139.586096,88.4860097 L145.592824,101.759452 L145.91395,101.759452 L151.904046,88.4860097 L149.557648,88.4860097 L149.557648,88.4860097 Z" id="path3111" fill="#FFFFFF" fill-rule="nonzero" mask="url(#mask-2)" transform="translate(145.745071, 95.122731) scale(-1, 1) rotate(-180.000000) translate(-145.745071, -95.122731) "></path>
                        <polygon id="path3115" fill="#FFFFFF" fill-rule="nonzero" mask="url(#mask-2)" transform="translate(158.713589, 95.212086) scale(-1, 1) rotate(-180.000000) translate(-158.713589, -95.212086) " points="154.73981 88.6640774 154.73981 101.760095 156.962107 101.760095 156.962107 90.7006072 162.687369 90.7006072 162.687369 88.6640774"></polygon>
                        <path d="M171.171248,97.6311081 L169.323812,93.255912 L173.021243,93.255912 L171.171248,97.6311081 Z M175.011971,88.4860097 L173.749215,91.4868054 L168.59584,91.4868054 L167.333083,88.4860097 L165.03914,88.4860097 L171.048427,101.759452 L171.368274,101.759452 L177.35709,88.4860097 L175.011971,88.4860097 L175.011971,88.4860097 Z" id="path3119" fill="#FFFFFF" fill-rule="nonzero" mask="url(#mask-2)" transform="translate(171.198115, 95.122731) scale(-1, 1) rotate(-180.000000) translate(-171.198115, -95.122731) "></path>
                        <path d="M185.161614,97.6311081 L183.312898,93.255912 L187.01033,93.255912 L185.161614,97.6311081 Z M189.002337,88.4860097 L187.738302,91.4868054 L182.583647,91.4868054 L181.323449,88.4860097 L179.029506,88.4860097 L185.036234,101.759452 L185.35864,101.759452 L191.347456,88.4860097 L189.002337,88.4860097 L189.002337,88.4860097 Z" id="path3123" fill="#FFFFFF" fill-rule="nonzero" mask="url(#mask-2)" transform="translate(185.188481, 95.122731) scale(-1, 1) rotate(-180.000000) translate(-185.188481, -95.122731) "></path>
                        <polygon id="path3127" fill="#FFFFFF" fill-rule="nonzero" mask="url(#mask-2)" transform="translate(199.808434, 95.212472) scale(-1, 1) rotate(-180.000000) translate(-199.808434, -95.212472) " points="204.875451 88.4150397 196.715513 97.0625769 196.715513 88.6644632 194.493215 88.6644632 194.493215 101.937906 194.848885 102.009904 202.902634 93.4883644 202.902634 101.760481 205.123652 101.760481 205.123652 88.4677529"></polygon>
                    </g>
                </g>
            </g>
        </g>
    </g>
</svg>