<?xml version="1.0" encoding="UTF-8"?>
<svg width="192px" height="192px" viewBox="0 0 192 192" version="1.1" xmlns="http://www.w3.org/2000/svg" xmlns:xlink="http://www.w3.org/1999/xlink">
    <!-- Generator: Sketch 55.2 (78181) - https://sketchapp.com -->
    <title>client-humans</title>
    <desc>Created with Sketch.</desc>
    <defs>
        <path d="M150,18.6240208 L150,19.7675403 L149.626034,19.7675403 L149.626034,18.6608391 C149.626034,18.439555 149.513816,18.328913 149.326786,18.328913 C149.106203,18.328913 148.922932,18.5059777 148.915414,18.7199543 L148.915414,19.7675403 L148.541447,19.7675403 L148.541447,18.6608391 C148.541447,18.439555 148.429229,18.328913 148.242293,18.328913 C148.021617,18.328913 147.838346,18.5059777 147.830827,18.7199543 L147.830827,19.7675403 L147.456861,19.7675403 L147.456861,18.0338052 L147.793421,18.0338052 L147.830827,18.1813591 L147.84953,18.199815 L147.868233,18.1813591 C147.943045,18.0706234 148.130075,17.9968933 148.279699,17.9968933 C148.548966,17.9968933 148.743421,18.1112827 148.840602,18.2920011 L148.934117,18.1813591 C149.027632,18.0706234 149.214662,17.9968933 149.364192,17.9968933 C149.775658,17.9968933 150,18.2550892 150,18.6240208 Z M3.29069549,30.2708495 L6.23731203,27.4132688 L6.32828947,13.3696025 L0,14.8831778 L11.1021617,0 L11.062594,13.5194049 C12.4337406,11.5355308 14.4575188,10.5435938 17.1338346,10.5435938 C19.1114662,10.5435938 20.700094,11.1512348 21.899812,12.366517 C23.0995301,13.5817991 23.6994361,15.3128173 23.6994361,17.5594779 L23.6598684,27.4527102 L26.8239662,30.2708495 L18.7316729,30.2708495 L18.7950188,27.4527102 L18.8345865,18.7616441 C18.8345865,17.644825 18.7884398,16.8138388 18.6961466,16.2685919 C18.6038534,15.7233451 18.406109,15.2273766 18.1028195,14.7806864 C17.5227444,13.887306 16.5141917,13.4406158 15.0771617,13.4406158 C14.4047932,13.4406158 13.8081767,13.5555673 13.287406,13.7854704 C12.7666353,14.0153734 12.3612782,14.3176013 12.0712406,14.6919667 C11.781109,15.0664257 11.5570489,15.4179319 11.3987782,15.7463916 C11.2406015,16.0748513 11.1285714,16.409869 11.062594,16.7514446 L11.062594,27.4527102 L14.2267857,30.2708495 L3.29069549,30.2708495 Z M48.812782,30.2708495 L51.7396617,27.4527102 L51.7396617,16.2193136 L51.7478383,13.8740964 L51.7396617,12.5143519 L51.7396617,12.4749105 L55.3783835,10.0509042 L56.2683271,13.9333053 C57.5339286,11.6734352 59.531297,10.5435938 62.2604323,10.5435938 C63.6183271,10.5435938 64.7884398,10.8753324 65.7705827,11.5388098 C66.7528195,12.2022871 67.4746241,13.1712713 67.9360902,14.4456687 C68.568891,13.1580617 69.3796992,12.1858922 70.368515,11.5289728 C71.3573308,10.8720535 72.6229323,10.5435938 74.1655075,10.5435938 C76.0244361,10.5435938 77.5141917,11.1545138 78.6347744,12.3763539 C79.7554511,13.5982877 80.3157895,15.3259332 80.3157895,17.5594779 L80.2762218,27.4527102 L72.5043233,30.2708495 L75.431109,27.4527102 L75.4706767,19.017779 C75.4443609,17.1915768 75.1806391,15.8186228 74.6796053,14.8989169 C74.1786654,13.979211 69.4467105,11.8639905 68.6974624,16.022294 C68.1979323,18.7944339 68.0891917,22.6046039 68.3711466,27.4527102 L71.5352444,30.2708495 L60.5992481,30.2708495 L63.5260338,27.4527102 L63.5656015,19.017779 C63.5391917,17.1915768 63.2755639,15.8186228 62.7745301,14.8989169 C62.2735902,13.979211 61.3902256,13.5194049 60.1246241,13.5194049 C59.5049812,13.5194049 58.9643797,13.6310774 58.5030075,13.8544225 C58.0415414,14.0777676 57.6856203,14.3734376 57.4350564,14.741245 C57.1845865,15.1091461 56.9967105,15.4507217 56.8714286,15.7660655 C56.7462406,16.0814093 56.6506579,16.409869 56.5846805,16.7514446 L56.5846805,27.4527102 L48.812782,30.2708495 Z M84.5694549,26.2307764 C84.5694549,24.9169376 85.0375,23.826444 85.9734962,22.9592954 C86.9095865,22.0922405 88.0763158,21.4878784 89.4738722,21.1462091 C89.6584586,21.1068614 90.0275376,21.0246996 90.581297,20.8999112 C91.1350564,20.7751227 91.5338346,20.683124 91.7777256,20.6240088 C92.0216165,20.5648935 92.3842105,20.4597789 92.8654135,20.308665 C93.3466165,20.157551 93.7092105,20.0163677 93.9531015,19.8849276 C94.1969925,19.7535812 94.4903195,19.5729565 94.8330827,19.3429597 C95.1759398,19.1130567 95.4296992,18.8700377 95.5944549,18.6138092 C95.7593045,18.3575806 95.9010338,18.0488885 96.0196429,17.6875453 C96.1383459,17.3262959 96.1976504,16.9353483 96.1976504,16.5149836 L96.237218,16.5149836 C96.1580827,15.2011448 95.7394737,14.1664874 94.981391,13.4110113 C94.2234023,12.6555353 93.3169173,12.2777973 92.262218,12.2777973 C91.5107143,12.2777973 90.7757519,12.359959 90.0572368,12.5241889 C89.3387218,12.6884187 88.8476504,12.9544842 88.5839286,13.3222916 C89.4145677,13.6507513 89.9880639,14.0580938 90.3044173,14.5442254 C90.6208647,15.030357 90.7790414,15.641277 90.7790414,16.3769855 C90.7790414,17.1521354 90.4955827,17.8189854 89.9286654,18.3773482 C89.3617481,18.9357109 88.7092105,19.2148923 87.9708647,19.2148923 C87.1007519,19.2148923 86.425094,18.9094791 85.943891,18.2984654 C85.462688,17.6875453 85.2220865,16.9025585 85.2220865,15.9434112 C85.2220865,14.6821297 86.0130639,13.4306852 87.5951128,12.1891712 C89.1772556,10.9475636 90.9636278,10.3268066 92.9544173,10.3268066 L93.6070489,10.3268066 C94.5430451,10.3268066 95.4198308,10.4450371 96.237218,10.6814981 C97.0546053,10.9179591 97.8192669,11.2924182 98.531203,11.8048752 C99.2431391,12.3172386 99.8067669,13.0496682 100.222086,14.0022575 C100.637312,14.9547532 100.845019,16.0748513 100.845019,17.3623646 C100.845019,17.9010535 100.838346,19.4973526 100.825188,22.1513557 C100.81203,24.8052651 100.805451,26.4475636 100.805451,27.0782512 L103.890508,30.2708495 L97.2457707,30.2708495 L96.237218,27.1570403 C95.6175752,28.247534 94.6781955,29.1343564 93.4191729,29.8176013 C92.1600564,30.5007525 90.8581767,30.8424218 89.5134398,30.8424218 C88.6300752,30.8424218 87.8489662,30.6913078 87.1699248,30.38908 C86.4909774,30.0869457 85.9734962,29.6928128 85.6175752,29.2066813 C85.2615602,28.7205497 84.9979323,28.2278601 84.8265038,27.7286126 C84.6551692,27.2292714 84.5694549,26.7300239 84.5694549,26.2307764 Z M89.3947368,25.8760849 C89.3947368,26.4541215 89.5990602,26.9205793 90.0078008,27.2752708 C90.4165414,27.630056 90.8977444,27.8074017 91.4514098,27.8074017 C92.3083647,27.8074017 93.1983083,27.5478942 94.1211466,27.0289728 C95.0440789,26.5099578 95.7098684,25.7578544 96.118515,24.7724753 L96.1976504,19.9046951 C95.4198308,20.9031901 94.1475564,21.7505712 92.3809211,22.446932 C91.2866541,22.9330636 90.5154135,23.4323111 90.0671053,23.9446745 C89.618891,24.4571315 89.3947368,25.100935 89.3947368,25.8760849 Z M104.169173,30.2708495 L107.095959,27.4527102 L107.095959,16.2193136 L104.169173,14.4456687 L107.095959,12.5143519 L107.095959,12.4749105 L110.734774,10.0509042 L111.664192,14.0120944 C112.349812,12.8690434 113.200188,12.0051738 114.21532,11.4205793 C115.230451,10.835891 116.502726,10.5435938 118.032049,10.5435938 C120.00968,10.5435938 121.595019,11.1512348 122.788158,12.366517 C123.981297,13.5817991 124.577914,15.3128173 124.577914,17.5594779 L124.538346,27.4527102 L127.702444,30.2708495 L119.586936,30.2708495 L119.693233,27.4527102 C119.82453,22.9024286 119.789098,20.4784222 119.586936,20.1805975 C119.586936,14.3786839 111.993045,16.1444593 111.993045,21.9463729 C111.993045,25.8143465 111.975752,27.6497298 111.941071,27.4527102 L115.105263,30.2708495 L104.169173,30.2708495 Z M129.108459,21.9936838 C129.240226,22.203913 129.543515,22.676835 130.018139,23.4126372 C130.492763,24.1483457 130.842105,24.6739187 131.066259,24.9892625 C131.29032,25.3045126 131.616635,25.7118551 132.045113,26.2111026 C132.47359,26.7103501 132.898778,27.1242505 133.320677,27.4527102 C133.848026,27.8468431 134.395113,28.1129086 134.962124,28.2508129 C135.528947,28.388811 136.214568,28.4577632 137.018797,28.4577632 C137.783459,28.4577632 138.478853,28.237697 139.105075,27.7975648 C139.731391,27.3574325 140.044455,26.7563494 140.044455,25.9943154 C140.044455,25.573857 139.942293,25.19284 139.73797,24.8512644 C139.533553,24.5096888 139.296335,24.2370654 139.026034,24.0333942 C138.755733,23.8297229 138.38985,23.6425403 137.928477,23.4717525 C137.467011,23.3009647 137.081391,23.1794552 136.771617,23.1071303 C136.461748,23.0348992 136.056297,22.9461795 135.555357,22.8410649 C135.463064,22.827949 135.397086,22.8148331 135.357613,22.8017172 C133.314098,22.3681429 131.778195,21.6685031 130.749812,20.7027979 C129.721429,19.7371863 129.207331,18.3149539 129.207331,16.4361008 C129.207331,14.5310158 129.843421,13.0365523 131.115695,11.9526165 C132.387876,10.8687745 133.960056,10.3268066 135.832237,10.3268066 C137.176974,10.3268066 139.584305,10.8470396 139.8375,11.3515334 C140.090602,11.856121 140.875094,14.7806864 139.609398,13.7953073 C139.161184,13.4011744 138.610714,13.0891096 137.958177,12.8592065 C137.305545,12.6293035 136.695771,12.5143519 136.128853,12.5143519 C135.12688,12.5143519 134.316071,12.7278601 133.696429,13.1547828 C133.076786,13.5817991 132.766917,14.1763243 132.766917,14.9383583 C132.766917,15.5296045 133.109774,16.0321309 133.795301,16.4459377 C134.480827,16.8598381 135.476222,17.2310182 136.781485,17.5594779 C137.717481,17.7959389 138.501974,18.022563 139.134774,18.2393501 C139.767575,18.4561373 140.393891,18.7451556 141.013534,19.1064987 C141.633177,19.4678419 142.124248,19.8816486 142.486748,20.3481064 C142.849342,20.8144704 143.142669,21.3926007 143.366823,22.0823098 C143.590977,22.7721127 143.703008,23.5636575 143.703008,24.4571315 C143.703008,25.1534923 143.561278,25.8563174 143.27782,26.5657941 C142.994361,27.2752708 142.589004,27.9420271 142.061654,28.5661567 C141.534305,29.1901927 140.822274,29.6960918 139.925846,30.0836668 C139.029323,30.4712417 138.033929,30.6649824 136.939662,30.6649824 C135.120301,30.6649824 133.538252,30.2774074 132.193421,29.5022575 L129.167763,31 L129.108459,21.9936838 Z M29.2293233,14.5944405 C29.4333647,13.8291276 29.8407895,13.0989465 30.4515977,12.4038036 C31.3678571,11.361183 31.9183271,11.1868351 32.6516917,10.7000477 C33.1406015,10.3755228 33.5829887,10.1802832 33.9788534,10.114329 L33.9406015,22.1702801 C33.9660714,23.9576967 34.2366541,25.2888672 34.7523496,26.1635106 C35.2679511,27.0382477 36.2069549,27.475663 37.5692669,27.475663 C38.1803571,27.475663 38.7183271,27.3773875 39.1829887,27.1808363 C39.6477444,26.9843788 40.0106203,26.7244965 40.2716165,26.4012832 C40.5326128,26.0779762 40.7299812,25.7705956 40.8636278,25.4789541 C40.9972744,25.1874063 41.1017857,24.0318015 41.1654135,23.7022176 C41.1654135,16.0200456 41.1654135,11.6749341 41.1654135,10.6668833 C41.1654135,9.65883238 41.9441729,9.0074404 43.5017857,8.71270732 C44.5757519,8.71270732 45.112782,9.36840881 45.112782,10.6799992 C45.112782,11.9915895 45.112782,13.3031799 45.112782,14.6147702 L45.112782,27.4496186 L48.6842105,27.66575 L42.343703,30.8223732 L41.4461466,27.0762838 C40.8094925,28.1664964 40.0233083,28.9873646 39.0875,29.5387947 C38.1516917,30.0903184 36.9580827,30.3660334 35.5066729,30.3660334 C33.5968985,30.3660334 32.0754699,29.7764736 30.9422932,28.5975412 C29.8091165,27.4186089 29.2425752,25.745207 29.2425752,23.5774292 L29.2425752,16.0662323 L29.2293233,14.5944405 Z M145.676692,18.3329415 L145.676692,17.9931459 L146.062406,17.9931459 L146.062406,17.6155952 L146.397274,17.2380446 L146.47782,17.2380446 L146.47782,17.9931459 L146.905827,17.9931459 L146.905827,18.3329415 L146.47782,18.3329415 L146.47782,19.2389693 C146.47782,19.3522345 146.566823,19.4277447 146.693891,19.4277447 L146.948214,19.3899896 L146.948214,19.7297852 L146.715132,19.7675403 C146.291259,19.7675403 146.062406,19.5787649 146.062406,19.2389693 L146.062406,18.3329415 L145.676692,18.3329415 Z" id="path-1"></path>
    </defs>
    <g id="Page-1" stroke="none" stroke-width="1" fill="none" fill-rule="evenodd">
        <g id="client-humans">
            <rect id="Rectangle" fill="#FFFFFF" fill-rule="nonzero" opacity="0.01" x="0" y="0" width="192" height="192"></rect>
            <g id="logo-humans" transform="translate(21.000000, 81.000000)">
                <mask id="mask-2" fill="white">
                    <use xlink:href="#path-1"></use>
                </mask>
                <g id="Clip-2"></g>
                <polygon id="Fill-1" fill="#FFFFFF" mask="url(#mask-2)" points="0 0 151 0 151 32 0 32"></polygon>
            </g>
        </g>
    </g>
</svg>