<?xml version="1.0" encoding="UTF-8"?>
<svg width="192px" height="192px" viewBox="0 0 192 192" version="1.1" xmlns="http://www.w3.org/2000/svg" xmlns:xlink="http://www.w3.org/1999/xlink">
    <!-- Generator: Sketch 54 (76480) - https://sketchapp.com -->
    <title>Group 12</title>
    <desc>Created with Sketch.</desc>
    <defs>
        <polygon id="path-1" points="0 70.9786758 137.93108 70.9786758 137.93108 0 0 0"></polygon>
    </defs>
    <g id="Page-1" stroke="none" stroke-width="1" fill="none" fill-rule="evenodd">
        <g id="HOME" transform="translate(-720.000000, -2983.000000)">
            <g id="Clients" transform="translate(337.000000, 2816.000000)">
                <g id="Group-14" transform="translate(0.000000, 166.000000)">
                    <g id="Group-5">
                        <g id="Group-12" transform="translate(383.000000, 0.500000)">
                            <g id="DeVlaamseTvacad" transform="translate(35.000000, 64.000000)">
                                <path d="M17.6824585,28.4241998 C17.2980527,27.9360041 16.6719475,27.4953033 16.1883094,28.6735479 C15.8564712,29.481284 14.8417325,28.8189404 14.5490608,28.4241998 C14.8417325,28.6220951 15.4648862,28.7720109 15.6596018,28.5251668 C15.8500099,28.2808266 15.4648862,26.6633352 16.3296597,26.2690792 C18.2610215,25.4019745 19.7065914,29.3576196 20.1428469,31.9540064 C20.5311614,34.2833556 20.0954643,37.1951634 19.6119059,39.1049745 C19.8988342,37.7852953 19.661203,33.8173727 19.3718018,32.2003659 C19.0814435,30.5823898 18.0695764,28.9189381 17.6824585,28.4241998 Z M23.4006839,42.2642726 C24.1532227,39.3039199 24.6856793,38.5077345 24.7187834,36.7873374 C24.1532227,37.0720644 21.9261579,39.1453613 21.4587926,41.9471554 C21.1090862,44.0311952 21.2678261,48.0622828 23.6843417,50.1674853 C22.8377556,48.0622828 22.5406169,45.6547447 23.4006839,42.2642726 Z M30.4265591,27.0373977 C30.995151,28.9461588 29.0767117,30.6707561 27.7295764,31.7530416 C26.3810053,32.835408 26.0980654,33.1242544 25.2839452,34.0455581 C25.9410007,36.0527823 25.3136192,39.1135365 24.6532932,40.7987163 C23.9976735,42.4898733 23.7483961,46.5028676 23.9345764,48.732623 C24.1240273,50.9631053 25.864981,52.3665468 27.0871984,53.1637015 C25.9554388,52.7814 23.7187221,52.0131622 21.8975209,49.3379404 C20.0785533,46.6627993 20.1428469,43.1254808 20.5155267,40.9597788 C20.8370747,39.1271873 22.3666412,35.8311395 23.4006839,34.5256765 C24.4364018,33.2181133 26.7865498,31.3078175 27.7610053,30.6378812 C28.7337059,29.971499 29.4815383,29.2677993 29.923218,28.2490018 C30.362425,27.2307697 29.8619556,25.7341964 29.1405267,25.1594114 C29.5473475,25.3492294 30.0199776,25.6685274 30.4265591,27.0373977 Z M19.4688007,41.3353761 C19.4346597,42.0693659 19.5169013,44.5273875 19.9820331,46.3110303 C20.4526689,48.0956423 20.7687926,49.6565115 20.4249891,50.8676309 C20.0785533,52.0777003 19.1364839,52.9323659 17.2450065,53.1637015 C18.6197417,52.5825354 19.264114,51.7283545 19.6081568,50.4834717 C19.9591394,49.2248573 19.861662,47.7412077 19.6363151,46.3750837 C19.3446007,44.5470962 19.3237013,42.5691929 19.4688007,41.3353761 Z M19.7661787,28.1182294 C19.3977267,26.8844125 18.6840354,25.7599631 17.6749602,24.4109631 C17.0463024,23.5777834 16.9580782,23.3243158 17.1400308,23.1752077 C17.3157614,23.0290075 17.8632146,23.4288369 17.9997787,23.570433 C18.322603,23.9144478 18.9873961,24.6505377 19.3777845,25.1849358 C19.8793706,25.8791042 20.3686724,26.4542931 20.6112492,27.3802009 C20.7767695,28.0167777 20.6436354,28.4342965 20.5788631,28.8311372 C20.5124955,29.2258778 20.6481024,29.8034091 21.1003117,29.9028414 C21.5525209,29.9988005 22.1530203,29.5883898 22.4424215,29.488392 C22.7355718,29.3909791 22.9791059,29.5060815 23.1279545,29.6055138 C23.2690654,29.7009074 23.4980816,29.9028414 23.95404,29.9028414 C24.5256631,29.9028414 24.8441799,29.2900121 24.8133094,28.9128801 C24.784114,28.5610303 24.7669637,28.2036071 24.8133094,27.8552305 C24.860692,27.5109734 24.8785602,26.8844125 25.52724,26.0097959 C26.1738458,25.1361486 27.1475036,23.7342419 27.4077891,23.4214865 C27.6670377,23.1077618 28.0120377,22.9212555 28.171336,23.0259381 C28.3998735,23.1752077 28.1551429,23.6345672 28.0092458,23.8488596 C27.8622319,24.0651713 27.3798701,24.7141873 27.2322978,24.961516 C27.3464469,25.060706 27.9504562,25.7533397 27.8138123,26.8516184 C27.6052169,28.5120007 26.9209602,30.049284 25.0244573,31.8454466 C23.1279545,33.6441941 21.4854354,32.7849245 20.5955348,30.5924865 C20.2403244,29.7276435 20.0598076,29.0926014 19.7661787,28.1182294 Z M23.9210955,24.6942362 C23.9794862,24.3029688 24.0173764,24.1447333 23.8929371,23.4232635 C23.7847706,22.7806287 23.6741313,22.6405672 23.4417649,22.1644876 C23.8665336,22.4320098 24.2376978,23.5073488 24.3354146,23.8289085 C24.884862,23.8980507 25.6670747,24.0384353 26.1481602,24.3289779 C25.8041972,24.6823625 25.2682308,25.336144 24.9229914,25.7682828 C24.567781,25.6851668 23.7019706,25.6021315 23.7019706,25.6021315 C23.7019706,25.6021315 23.8717984,25.0556981 23.9210955,24.6942362 Z M24.6769845,19.7998403 C24.4820296,19.6620405 24.258677,19.6890189 24.1905545,19.6216537 C24.117566,19.5522692 24.1432516,19.4426594 24.3852701,19.4717379 C24.6283255,19.5042896 24.6856793,19.4608334 24.9035279,19.4237584 C25.1157128,19.3820792 25.3781521,19.3235183 25.5753406,19.4237584 C25.7707741,19.523433 25.9918932,19.7392601 26.1496758,19.9285934 C26.3069799,20.1186537 26.5502747,20.3645286 26.7771371,20.621954 C27.0672562,20.9541759 27.5560793,21.4554569 27.7413024,21.8211998 C27.9270042,22.191466 27.889114,22.5549472 27.7218388,22.6549449 C27.4862816,22.7942794 27.175662,22.584995 27.0475533,22.377003 C26.9174504,22.1677185 26.4523186,21.1775149 26.2383787,20.9011076 C26.0215672,20.621954 25.7780331,20.1079916 25.4375001,20.028268 C25.0949729,19.9482214 24.8711417,19.93764 24.6769845,19.7998403 Z M18.5118146,22.377003 C18.3837059,22.584995 18.0748412,22.7942794 17.8410388,22.6549449 C17.6702539,22.5549472 17.6343579,22.191466 17.8205383,21.8211998 C18.0052828,21.4554569 18.4953822,20.9541759 18.785262,20.621954 C19.0088539,20.3645286 19.2531857,20.1186537 19.4104897,19.9285934 C19.5660388,19.7392601 19.7921036,19.523433 19.9850643,19.4237584 C20.1792215,19.3235183 20.4431764,19.3820792 20.6575949,19.4237584 C20.872492,19.4608334 20.9312816,19.5042896 21.1745764,19.4717379 C21.4209024,19.4426594 21.4395683,19.5522692 21.3710469,19.6216537 C21.3030042,19.6890189 21.078136,19.6620405 20.8834203,19.7998403 C20.6890238,19.93764 20.4643949,19.9482214 20.1209105,20.028268 C19.7794203,20.1079916 19.5348492,20.621954 19.3205105,20.9011076 C19.1073683,21.1775149 18.6387267,22.1677185 18.5118146,22.377003 Z M22.264218,25.0208846 C22.1530203,24.842375 21.8751059,24.8174159 21.8751059,24.530185 C21.8751059,24.3567641 22.264218,23.7276992 22.4060469,23.5944228 C22.5476365,23.462681 22.8906423,23.2584853 23.1700724,23.5588824 C23.4552458,23.856937 23.7279753,24.2769597 23.7279753,24.5154842 C23.7279753,24.7939108 23.449981,24.8244432 23.3148527,25.0294466 C23.1279545,25.3076309 23.0429209,25.5862999 22.7936435,25.5862999 C22.5314435,25.5862999 22.4452134,25.3095695 22.264218,25.0208846 Z M19.4805267,24.3289779 C19.9633672,24.0384353 20.7463776,23.8980507 21.2944689,23.8289085 C21.3939406,23.5073488 21.7636689,22.4320098 22.1911498,22.1644876 C21.9558319,22.6405672 21.8491013,22.7806287 21.7369464,23.4232635 C21.616336,24.1447333 21.654944,24.3029688 21.7067938,24.6942362 C21.760877,25.0556981 21.9261579,25.6021315 21.9261579,25.6021315 C21.9261579,25.6021315 21.0639371,25.6851668 20.7039406,25.7682828 C20.3634076,25.336144 19.8279995,24.6823625 19.4805267,24.3289779 Z" id="Fill-1" fill="#FFFFFF"></path>
                                <path d="M25.1500692,18.6917314 L28.5509317,18.3865687 L28.5776542,18.3865687 L28.5636947,18.383257 L28.5831583,18.380753 L28.5442311,18.380753 L25.1445652,18.0773673 C24.1168242,17.8907803 24.0447929,17.4950704 24.6126669,16.7340215 L25.5578473,15.5662775 L24.4316716,16.5075323 C23.6725918,17.085629 23.2672866,17.0472615 23.0945074,16.0888019 L22.785882,12.4961535 L22.4695987,16.0865403 C22.3005687,17.0421728 21.8982149,17.085629 21.1369016,16.510844 L20.0084924,15.5662775 L20.9544704,16.7296597 C21.5255351,17.4912741 21.4545409,17.8907803 20.4222531,18.0773673 L17.0211513,18.380753 L16.9917166,18.380753 L17.0076704,18.380753 L16.9877282,18.3865687 L17.0241028,18.3865687 L20.4257629,18.6917314 C21.4572531,18.875249 21.5288057,19.2745937 20.9562253,20.0373389 L20.0129594,21.2009635 L21.1449583,20.2572047 C21.9022034,19.6850044 22.3028022,19.7223218 22.4773363,20.6825585 L22.786919,24.2714106 L23.0967409,20.6774697 C23.2759814,19.7213526 23.675623,19.6850044 24.4363779,20.2615664 L25.5626334,21.2009635 L24.6158577,20.0343503 C24.0455109,19.2723321 24.1175421,18.875249 25.1500692,18.6917314" id="Fill-3" fill="#FFFFFF"></path>
                                <path d="M29.3167838,40.4621084 C30.5001538,40.1079162 31.0921179,39.2584201 31.0921179,37.9139435 C31.0921179,36.5696283 30.5001538,35.7253826 29.3167838,35.3815294 L29.3167838,40.4621084 Z M28.4367746,33.4586329 C29.4762416,33.4586329 30.4025168,33.76113 31.2156798,34.3653974 C32.3064382,35.1680447 32.8520566,36.3507319 32.8520566,37.9139435 C32.8520566,39.4877364 32.3064382,40.6758354 31.2156798,41.4782404 C30.4025168,42.0827501 29.4762416,42.3849241 28.4367746,42.3849241 L27.5568451,42.3849241 L27.5568451,33.4586329 L28.4367746,33.4586329 Z" id="Fill-5" fill="#FFFFFF"></path>
                                <polygon id="Fill-7" fill="#FFFFFF" points="34.0099325 33.4586652 37.5452851 33.4586652 37.5452851 35.2407733 35.7698712 35.2407733 35.7698712 37.0228813 37.5452851 37.0228813 37.5452851 38.8206595 35.7698712 38.8206595 35.7698712 40.6027676 37.5452851 40.6027676 37.5452851 42.3848757 34.0099325 42.3848757"></polygon>
                                <polygon id="Fill-9" fill="#FFFFFF" points="45.6159798 33.4586652 47.348159 33.4586652 45.5725855 42.3848757 43.8437566 42.3848757 42.0837382 33.4586652 43.8150399 33.4586652 44.7036642 38.6001476"></polygon>
                                <polygon id="Fill-11" fill="#FFFFFF" points="52.072234 40.6027514 52.072234 42.3848595 48.5368814 42.3848595 48.5368814 33.458649 50.2968999 33.458649 50.2968999 40.6027514"></polygon>
                                <mask id="mask-2" fill="white">
                                    <use xlink:href="#path-1"></use>
                                </mask>
                                <g id="Clip-14"></g>
                                <path d="M55.0826601,37.0229056 L56.8579942,37.0229056 L56.8579942,35.2407975 L55.0826601,35.2407975 L55.0826601,37.0229056 Z M58.6179329,33.4586894 L58.6179329,42.3848999 L56.8579942,42.3848999 L56.8579942,38.8050944 L55.0826601,38.8050944 L55.0826601,42.3848999 L53.3226416,42.3848999 L53.3226416,33.4586894 L58.6179329,33.4586894 Z" id="Fill-13" fill="#FFFFFF" mask="url(#mask-2)"></path>
                                <path d="M61.7209387,37.0229056 L63.4962728,37.0229056 L63.4962728,35.2407975 L61.7209387,35.2407975 L61.7209387,37.0229056 Z M65.2562116,33.4586894 L65.2562116,42.3848999 L63.4962728,42.3848999 L63.4962728,38.8050944 L61.7209387,38.8050944 L61.7209387,42.3848999 L59.961,42.3848999 L59.961,33.4586894 L65.2562116,33.4586894 Z" id="Fill-15" fill="#FFFFFF" mask="url(#mask-2)"></path>
                                <polygon id="Fill-16" fill="#FFFFFF" mask="url(#mask-2)" points="73.6545166 33.4586652 73.6545166 42.3848757 71.8945779 42.3848757 71.8945779 35.2407733 70.9991733 35.2407733 70.9991733 42.3848757 69.2547097 42.3848757 69.2547097 35.2407733 68.3592253 35.2407733 68.3592253 42.3848757 66.5992866 42.3848757 66.5992866 33.4586652"></polygon>
                                <path d="M79.5208727,38.0546753 C80.0353016,38.5133886 80.2927155,39.0657185 80.2927155,39.7117458 C80.2927155,40.483053 80.0404866,41.1213261 79.5362681,41.6267265 C79.0318901,42.1322885 78.3990045,42.3848676 77.6374519,42.3848676 C76.8755802,42.3848676 76.2453271,42.1322885 75.7462138,41.6267265 C75.2468612,41.1213261 74.9974242,40.483053 74.9974242,39.7117458 L76.7574427,39.7117458 C76.7574427,40.3057549 77.0506727,40.6027595 77.6374519,40.6027595 C78.2341224,40.6027595 78.5327768,40.3057549 78.5327768,39.7117458 C78.5327768,39.4720906 78.1056149,39.1387379 77.2514508,38.7112032 C76.5513999,38.3570109 76.0573918,38.0495866 75.7694265,37.7889301 C75.2546785,37.3198778 74.9974242,36.7676287 74.9974242,36.1318596 C74.9974242,35.3502134 75.2445479,34.7092749 75.738556,34.2090439 C76.2324843,33.708813 76.8654496,33.4586571 77.6374519,33.4586571 C78.4092149,33.4586571 79.0446531,33.708813 79.5440057,34.2090439 C80.043119,34.7092749 80.2927155,35.3502134 80.2927155,36.1318596 L78.5327768,36.1475297 C78.5121166,35.5431816 78.2187271,35.240846 77.6528473,35.240846 C77.0558577,35.2512658 76.7574427,35.5483511 76.7574427,36.1318596 C76.7574427,36.3611759 77.1843652,36.6895206 78.0387687,37.1167322 C78.6973398,37.450408 79.1913479,37.7630826 79.5208727,38.0546753" id="Fill-17" fill="#FFFFFF" mask="url(#mask-2)"></path>
                                <polygon id="Fill-18" fill="#FFFFFF" mask="url(#mask-2)" points="81.4505913 33.4586652 84.9859439 33.4586652 84.9859439 35.2407733 83.2105301 35.2407733 83.2105301 37.0228813 84.9859439 37.0228813 84.9859439 38.8206595 83.2105301 38.8206595 83.2105301 40.6027676 84.9859439 40.6027676 84.9859439 42.3848757 81.4505913 42.3848757"></polygon>
                                <polygon id="Fill-19" fill="#FFFFFF" mask="url(#mask-2)" points="32.8520806 44.3147106 32.8520806 46.0968187 31.0921418 46.0968187 31.0921418 53.240921 29.3168077 53.240921 29.3168077 46.0968187 27.5567892 46.0968187 27.5567892 44.3147106"></polygon>
                                <polygon id="Fill-20" fill="#FFFFFF" mask="url(#mask-2)" points="34.0252401 44.3147106 37.5605927 44.3147106 37.5605927 46.0968187 35.7851788 46.0968187 35.7851788 47.8789267 37.5605927 47.8789267 37.5605927 49.6767049 35.7851788 49.6767049 35.7851788 51.4587322 37.5605927 51.4587322 37.5605927 53.240921 34.0252401 53.240921"></polygon>
                                <polygon id="Fill-21" fill="#FFFFFF" mask="url(#mask-2)" points="42.3616686 51.4587564 42.3616686 53.2408645 38.826316 53.2408645 38.826316 44.3147348 40.5863345 44.3147348 40.5863345 51.4587564"></polygon>
                                <polygon id="Fill-22" fill="#FFFFFF" mask="url(#mask-2)" points="43.6121001 44.3147106 47.1474527 44.3147106 47.1474527 46.0968187 45.3720388 46.0968187 45.3720388 47.8789267 47.1474527 47.8789267 47.1474527 49.6767049 45.3720388 49.6767049 45.3720388 51.4587322 47.1474527 51.4587322 47.1474527 53.240921 43.6121001 53.240921"></polygon>
                                <polygon id="Fill-23" fill="#FFFFFF" mask="url(#mask-2)" points="51.9454096 44.3147106 53.6775888 44.3147106 51.9020154 53.240921 50.1731865 53.240921 48.413168 44.3147106 50.1444697 44.3147106 51.033094 49.4561122"></polygon>
                                <polygon id="Fill-24" fill="#FFFFFF" mask="url(#mask-2)" points="54.8663192 44.3147106 58.4016718 44.3147106 58.4016718 46.0968187 57.5062672 46.0968187 57.5062672 51.4587322 58.4016718 51.4587322 58.4016718 53.240921 54.8663192 53.240921 54.8663192 51.4587322 55.7463284 51.4587322 55.7463284 46.0968187 54.8663192 46.0968187"></polygon>
                                <path d="M64.1907718,48.9106803 C64.7052805,49.3693936 64.9626943,49.9217235 64.9626943,50.5677509 C64.9626943,51.339058 64.7103857,51.9773311 64.2062469,52.4827315 C63.7018689,52.9882935 63.0689036,53.2408726 62.307351,53.2408726 C61.5455591,53.2408726 60.9152261,52.9882935 60.4161926,52.4827315 C59.91684,51.9773311 59.667403,51.339058 59.667403,50.5677509 L61.4273417,50.5677509 C61.4273417,51.16176 61.7206516,51.4587645 62.307351,51.4587645 C62.9041013,51.4587645 63.2027556,51.16176 63.2027556,50.5677509 C63.2027556,50.3280956 62.775514,49.9947429 61.9213498,49.5672082 C61.2213787,49.2130159 60.7273706,48.9055916 60.4393255,48.6449352 C59.9245776,48.1758828 59.667403,47.6236337 59.667403,46.9878646 C59.667403,46.2062992 59.9144469,45.5652799 60.408455,45.0650489 C60.9024631,44.564818 61.5354284,44.3147429 62.307351,44.3147429 C63.0791938,44.3147429 63.7146319,44.564818 64.2139845,45.0650489 C64.713018,45.5652799 64.9626943,46.2062992 64.9626943,46.9878646 L63.2027556,47.0035347 C63.1820157,46.3991866 62.8887059,46.0967702 62.3228261,46.0967702 C61.7257568,46.1072708 61.4273417,46.4043561 61.4273417,46.9878646 C61.4273417,47.2171809 61.8542643,47.5455256 62.7087475,47.9727372 C63.3672388,48.306413 63.8612469,48.6190876 64.1907718,48.9106803" id="Fill-25" fill="#FFFFFF" mask="url(#mask-2)"></path>
                                <polygon id="Fill-26" fill="#FFFFFF" mask="url(#mask-2)" points="66.1205303 44.3147106 69.6558829 44.3147106 69.6558829 46.0968187 68.7604783 46.0968187 68.7604783 51.4587322 69.6558829 51.4587322 69.6558829 53.240921 66.1205303 53.240921 66.1205303 51.4587322 67.0005395 51.4587322 67.0005395 46.0968187 66.1205303 46.0968187"></polygon>
                                <polygon id="Fill-27" fill="#FFFFFF" mask="url(#mask-2)" points="70.9215822 44.3147106 74.4569348 44.3147106 74.4569348 46.0968187 72.6816007 46.0968187 72.6816007 47.8789267 74.4569348 47.8789267 74.4569348 49.6767049 72.6816007 49.6767049 72.6816007 51.4587322 74.4569348 51.4587322 74.4569348 53.240921 70.9215822 53.240921"></polygon>
                                <path d="M80.7554462,47.8788783 L82.5307803,47.8788783 L82.5307803,46.0967702 L80.7554462,46.0967702 L80.7554462,47.8788783 Z M84.2907191,44.3147429 L84.2907191,53.2408726 L82.5307803,53.2408726 L82.5307803,49.6610671 L80.7554462,49.6610671 L80.7554462,53.2408726 L78.9954277,53.2408726 L78.9954277,44.3147429 L84.2907191,44.3147429 Z" id="Fill-28" fill="#FFFFFF" mask="url(#mask-2)"></path>
                                <path d="M86.3747584,45.0650166 C86.8687665,44.5648664 87.5018116,44.3147106 88.2736543,44.3147106 C89.0455769,44.3147106 89.6809353,44.5648664 90.1802879,45.0650166 C90.6793214,45.5652476 90.9290775,46.2062669 90.9290775,46.9879131 L89.1691387,47.0035024 C89.1483191,46.399235 88.849904,46.0967379 88.2736543,46.0967379 C87.6870347,46.0967379 87.3936451,46.3938232 87.3936451,46.9879131 L87.3936451,50.5677185 C87.3936451,51.1617276 87.6870347,51.4587322 88.2736543,51.4587322 C88.849904,51.4587322 89.1483191,51.1566389 89.1691387,50.5521292 L90.9290775,50.5677185 C90.9290775,51.3391065 90.676689,51.9772987 90.1724705,52.4826992 C89.6681723,52.988342 89.0352069,53.240921 88.2736543,53.240921 C87.5119422,53.240921 86.8816092,52.988342 86.3825757,52.4826992 C85.8832231,51.9772987 85.6337861,51.3391065 85.6337861,50.5677185 L85.6337861,46.9879131 C85.6337861,46.2062669 85.8807503,45.5652476 86.3747584,45.0650166" id="Fill-29" fill="#FFFFFF" mask="url(#mask-2)"></path>
                                <path d="M93.8312254,47.8788783 L95.6066393,47.8788783 L95.6066393,46.0967702 L93.8312254,46.0967702 L93.8312254,47.8788783 Z M97.366578,44.3147429 L97.366578,53.2408726 L95.6066393,53.2408726 L95.6066393,49.6610671 L93.8313052,49.6610671 L93.8313052,53.2408726 L92.0712867,53.2408726 L92.0712867,44.3147429 L97.366578,44.3147429 Z" id="Fill-30" fill="#FFFFFF" mask="url(#mask-2)"></path>
                                <path d="M100.469528,51.3181134 C101.652978,50.9639212 102.244942,50.1144251 102.244942,48.7699485 C102.244942,47.4256333 101.652978,46.5813876 100.469528,46.2375344 L100.469528,51.3181134 Z M99.5895187,44.3147187 C100.628986,44.3147187 101.555181,44.6170543 102.368424,45.2214024 C103.459182,46.0240497 104.004801,47.2067369 104.004801,48.7699485 C104.004801,50.3437414 103.459182,51.5318404 102.368424,52.3342454 C101.555181,52.9387551 100.628986,53.2409291 99.5895187,53.2409291 L98.7095892,53.2409291 L98.7095892,44.3147187 L99.5895187,44.3147187 Z" id="Fill-31" fill="#FFFFFF" mask="url(#mask-2)"></path>
                                <polygon id="Fill-32" fill="#FFFFFF" mask="url(#mask-2)" points="105.162645 44.3147106 108.697997 44.3147106 108.697997 46.0968187 106.922583 46.0968187 106.922583 47.8789267 108.697997 47.8789267 108.697997 49.6767049 106.922583 49.6767049 106.922583 51.4587322 108.697997 51.4587322 108.697997 53.240921 105.162645 53.240921"></polygon>
                                <polygon id="Fill-33" fill="#FFFFFF" mask="url(#mask-2)" points="117.018983 44.3147106 117.018983 53.240921 115.259044 53.240921 115.259044 46.0968187 114.363639 46.0968187 114.363639 53.240921 112.619096 53.240921 112.619096 46.0968187 111.723691 46.0968187 111.723691 53.240921 109.963752 53.240921 109.963752 44.3147106"></polygon>
                                <polygon id="Fill-34" fill="#FFFFFF" mask="url(#mask-2)" points="118.361962 44.3147106 121.897314 44.3147106 121.897314 46.0968187 121.00191 46.0968187 121.00191 51.4587322 121.897314 51.4587322 121.897314 53.240921 118.361962 53.240921 118.361962 51.4587322 119.241891 51.4587322 119.241891 46.0968187 118.361962 46.0968187"></polygon>
                                <polygon id="Fill-35" fill="#FFFFFF" mask="url(#mask-2)" points="123.163046 44.3147106 126.698398 44.3147106 126.698398 46.0968187 124.922984 46.0968187 124.922984 47.8789267 126.698398 47.8789267 126.698398 49.6767049 124.922984 49.6767049 124.922984 51.4587322 126.698398 51.4587322 126.698398 53.240921 123.163046 53.240921"></polygon>
                            </g>
                            <rect id="Rectangle" fill="#FFFFFF" opacity="0.01" x="0" y="0.5" width="192" height="192"></rect>
                        </g>
                    </g>
                </g>
            </g>
        </g>
    </g>
</svg>