<?xml version="1.0" encoding="UTF-8"?>
<svg width="192px" height="192px" viewBox="0 0 192 192" version="1.1" xmlns="http://www.w3.org/2000/svg" xmlns:xlink="http://www.w3.org/1999/xlink">
    <!-- Generator: Sketch 55.2 (78181) - https://sketchapp.com -->
    <title>client-radio1</title>
    <desc>Created with Sketch.</desc>
    <g id="Page-1" stroke="none" stroke-width="1" fill="none" fill-rule="evenodd">
        <g id="client-radio1" fill="#FFFFFF" fill-rule="nonzero">
            <rect id="Rectangle" opacity="0.01" x="0" y="0" width="192" height="192"></rect>
            <g id="VRT_Radio_1_logo" transform="translate(54.000000, 56.000000)">
                <path d="M85,25.7411095 C85,44.2674253 65.972372,80 42.5,80 C19.027628,80 0,44.2674253 0,25.7411095 C0,7.21479374 19.027628,0 42.5,0 C65.972372,0 85,7.21479374 85,25.7411095 Z M36.8131832,28.7598953 L38.6090763,27.5399092 L40.9566489,25.9322639 C43.1633672,24.4272342 43.5389788,22.2609037 42.2947653,20.539241 C41.0505518,18.8061766 38.8790471,18.4413209 36.6840667,19.9349488 L34.3364941,21.5653976 L38.5973384,27.4714987 L31.7189506,23.2870603 L30.0639119,24.4272342 L31.7541642,32.0435963 L28.9957664,31.0402432 C29.5928595,30.221647 29.5690365,29.1201444 28.9370771,28.3266292 C28.5897878,27.7903562 28.0284722,27.4186004 27.3876792,27.3004726 C26.4947639,27.2110879 25.602329,27.4740276 24.91099,28.030184 L22,30.0140867 L26.3195336,36 L28.0332616,34.859826 L26.718621,33.0469494 L27.4815821,32.5338711 L30.0286984,33.503019 L32.0006594,32.1690155 L33.6087466,31.0288415 L33.2096593,29.603624 L35.5572319,27.9731753 L36.8131832,28.7598953 Z M37.7404744,21.371568 C38.1450477,21.0191308 38.6876716,20.8554876 39.2265934,20.9233879 C39.7655153,20.9912882 40.2472034,21.2839873 40.5458237,21.7250219 C40.8741001,22.1461386 40.9955628,22.685988 40.8780753,23.201737 C40.7605878,23.7174859 40.4159897,24.1571602 39.9354548,24.4044308 L39.2429209,24.8719021 L37.0479405,21.8504411 L37.7404744,21.371568 Z M26.8477375,30.8806189 L25.6739511,31.6559372 L24.6292813,30.2079163 L25.8030676,29.4439997 C26.3664851,29.0677423 26.9064268,29.0563405 27.2468248,29.5352136 C27.575485,29.9912832 27.4346306,30.5043615 26.8594753,30.8920206 L26.8477375,30.8806189 Z M32.716669,27.9617735 L32.1884652,25.795443 L34.1017368,27.0268309 L32.716669,27.9617735 Z M40.3616075,17.2787686 L44.5840478,23.2784227 L46.2559917,22.1136586 L42.0335515,16.1140045 L40.3616075,17.2787686 Z M44.9564237,19.1209695 C45.5419723,19.9585399 46.4400065,20.5208744 47.4448893,20.6792061 C48.449772,20.8375379 49.4754301,20.578305 50.2870023,19.9608681 C51.1398564,19.3971265 51.7307791,18.5106656 51.9259472,17.5022377 C52.1211152,16.4938099 51.9040166,15.4487316 51.3238167,14.6036766 C50.7382682,13.7661062 49.8402339,13.2037717 48.8353511,13.04544 C47.8304684,12.8871082 46.8048103,13.1463411 45.9932382,13.763778 C45.1385643,14.3257098 44.5453313,15.2113334 44.3480166,16.2198901 C44.150702,17.2284468 44.3660175,18.2745164 44.945154,19.1209695 L44.9564237,19.1209695 Z M47.0075131,15.2506256 C47.4252751,14.9584065 47.9436581,14.8512903 48.4419223,14.9542263 C48.9401864,15.0571622 49.3748339,15.361164 49.6446281,15.7954247 C49.9495701,16.1945324 50.0809313,16.7010471 50.0087299,17.1993625 C49.9365286,17.6976779 49.6669266,18.1452663 49.2614576,18.4399706 C48.8423151,18.7305327 48.3242126,18.8377874 47.8252551,18.7372852 C47.3262976,18.636783 46.8890092,18.3370893 46.6130729,17.9065214 C46.3056168,17.5052979 46.1739,16.9951608 46.2483414,16.4939223 C46.3227828,15.9926839 46.5969453,15.5436875 47.0075131,15.2506256 Z M37,63 L52,63 L52,21.2547661 L37,31.8329493 L37,63 Z" id="Path-2"></path>
            </g>
        </g>
    </g>
</svg>