<?xml version="1.0" encoding="UTF-8"?>
<svg width="192px" height="192px" viewBox="0 0 192 192" version="1.1" xmlns="http://www.w3.org/2000/svg" xmlns:xlink="http://www.w3.org/1999/xlink">
    <!-- Generator: Sketch 55.2 (78181) - https://sketchapp.com -->
    <title>client-radio2</title>
    <desc>Created with Sketch.</desc>
    <g id="Page-1" stroke="none" stroke-width="1" fill="none" fill-rule="evenodd">
        <g id="client-radio2" fill-rule="nonzero">
            <rect id="Rectangle" fill="#FFFFFF" opacity="0.01" x="0" y="0" width="192" height="192"></rect>
            <g id="VRT_Radio_2_logo" transform="translate(58.000000, 58.000000)">
                <polyline id="Path" fill="#F99D1C" points="76 34.0198953 76 34.0198953 76 34.0198953 76 34.0198953 76 34.0198953 76 34.0198953 76 34.0198953 76 33.9801047 76 33.9801047 76 33.9801047 76 34.0198953 76 34.0198953 76 34.0198953 76 34.0198953 76 34.0198953 76 34.0198953 76 34.0198953"></polyline>
                <polyline id="Path" fill="#F99D1C" points="65.0198953 64.9801047 65.0198953 64.9801047 65.0198953 64.9801047 65.0198953 64.9801047 65.0198953 64.9801047 65.0198953 64.9801047 65.0198953 64.9801047 64.9801047 65.0198953 64.9801047 65.0198953 64.9801047 65.0198953 65.0198953 65.0198953 65.0198953 64.9801047 65.0198953 64.9801047 65.0198953 64.9801047 65.0198953 64.9801047 65.0198953 64.9801047 65.0198953 64.9801047"></polyline>
                <path d="M30.8386177,37.1339031 C30.7573922,36.9985755 30.6490916,36.8632479 30.5137157,36.7549858 C30.405415,36.6467236 30.2700392,36.5384615 30.1075882,36.457265 C29.9722123,36.3760684 29.8097613,36.2948718 29.6473103,36.2407407 C29.4848593,36.1866097 29.2953331,36.1324786 29.1058069,36.1054131 C28.9162807,36.0783476 28.7267545,36.0512821 28.5101532,36.0512821 C28.2935518,36.0512821 28.1040257,36.0783476 27.9144995,36.1054131 C27.7249733,36.1324786 27.5625223,36.1866097 27.4000713,36.2407407 C27.2376202,36.2948718 27.0751692,36.3760684 26.9397934,36.457265 C26.8044175,36.5384615 26.6690417,36.6467236 26.560741,36.7549858 C26.4524403,36.8632479 26.3441397,36.9985755 26.235839,37.1339031 C26.1546135,37.2692308 26.073388,37.4316239 25.9921625,37.5940171 C25.9380121,37.7564103 25.8838618,37.9458689 25.8567866,38.1353276 C25.8297114,38.3247863 25.8026363,38.514245 25.8026363,38.7307692 C25.8026363,38.8931624 25.8026363,39.0826211 25.8297114,39.2450142 C25.8567866,39.4074074 25.8838618,39.5698006 25.9380121,39.7321937 C25.9921625,39.8945869 26.0463128,40.0569801 26.1275383,40.1923077 C26.2087638,40.3276353 26.2899893,40.462963 26.4253652,40.5982906 C26.5336658,40.7336182 26.6690417,40.8418803 26.8044175,40.9501425 C26.9397934,41.0584046 27.1022444,41.1396011 27.2646954,41.2207977 C27.4271464,41.3019943 27.6166726,41.3561254 27.833274,41.3831909 C28.0498753,41.4102564 28.2664767,41.4373219 28.483078,41.4373219 C28.7267545,41.4373219 28.9433559,41.4102564 29.1599572,41.3831909 C29.3765586,41.3561254 29.5660848,41.2749288 29.7285358,41.2207977 C29.8909868,41.1396011 30.0534378,41.0584046 30.1888137,40.9501425 C30.3241895,40.8418803 30.4595654,40.7336182 30.567866,40.5982906 C30.6761667,40.462963 30.7844674,40.3276353 30.8656929,40.1923077 C30.9469184,40.0569801 31.0010688,39.8945869 31.0552191,39.7321937 C31.1093694,39.5698006 31.1364446,39.4074074 31.1635198,39.2450142 C31.1905949,39.0826211 31.1905949,38.8931624 31.1905949,38.7307692 C31.1905949,38.514245 31.1635198,38.3247863 31.1364446,38.1353276 C31.1093694,37.9458689 31.0552191,37.7564103 31.0010688,37.5940171 C31.0281439,37.4316239 30.9469184,37.2692308 30.8386177,37.1339031 Z M40.8835055,55.0783476 L60.5400784,36.8361823 C60.9732811,36.4301994 61.4064838,36.0242165 61.8396865,35.6182336 C62.2728892,35.2122507 62.6790167,34.7792023 63.0851443,34.3732194 C63.4912718,33.9401709 63.8703242,33.5071225 64.2493766,33.0740741 C64.6284289,32.6410256 64.9804061,32.1809117 65.3053082,31.6937322 C65.6302102,31.2336182 65.9280371,30.7464387 66.1987887,30.2321937 C66.4695404,29.7179487 66.6861418,29.2037037 66.875668,28.6623932 C67.0651942,28.1210826 67.2276452,27.5527066 67.3088707,26.9843305 C67.4171714,26.3888889 67.4713217,25.7934473 67.4713217,25.1438746 C67.4713217,24.548433 67.4171714,23.980057 67.3088707,23.4116809 C67.20057,22.8703704 67.0651942,22.3290598 66.8485928,21.8148148 C66.6590666,21.3005698 66.4153901,20.8404558 66.1175632,20.4074074 C65.8468115,19.974359 65.5219095,19.5683761 65.1428571,19.1894587 C64.7908799,18.8105413 64.3847524,18.485755 63.9515497,18.1880342 C63.518347,17.8903134 63.0580691,17.6467236 62.5707161,17.4301994 C62.083363,17.2136752 61.5418596,17.0783476 61.0003563,16.9700855 C60.4588529,16.8618234 59.8631991,16.8076923 59.2675454,16.8076923 C58.5094407,16.8076923 57.8054863,16.8888889 57.1286071,17.0242165 C56.4517278,17.1866097 55.8560741,17.4031339 55.2874955,17.6737892 C54.718917,17.9444444 54.2044888,18.2962963 53.7171357,18.7022792 C53.2568579,19.1082621 52.8236551,19.5413105 52.4446028,20.02849 C52.0655504,20.5156695 51.7406484,21.0569801 51.4969719,21.6253561 C51.2262202,22.1937322 51.0096188,22.8162393 50.8471678,23.4387464 C50.6847168,24.0612536 50.5764161,24.7378917 50.5222658,25.4145299 C50.4681154,26.0911681 50.4681154,26.7948718 50.4951906,27.4985755 L40.2607766,27.4985755 L40.2607766,25.4145299 C40.2607766,24.1424501 40.3961525,22.8974359 40.639829,21.7065527 C40.8835055,20.488604 41.2354827,19.3247863 41.7228358,18.2150997 C42.1831136,17.1054131 42.7516922,16.0498575 43.4285714,15.048433 C44.0783755,14.0470085 44.8364802,13.1267806 45.6758105,12.2877493 C46.5151407,11.4487179 47.4086213,10.6638177 48.4104026,9.98717949 C49.3851087,9.31054131 50.4410403,8.74216524 51.524047,8.25498575 C52.634129,7.76780627 53.7712861,7.41595442 54.9896687,7.14529915 C56.1809761,6.9017094 57.4264339,6.76638177 58.6989669,6.76638177 C58.726042,6.76638177 58.7801924,6.76638177 58.8072675,6.76638177 C58.8343427,6.76638177 58.8884931,6.76638177 58.9155682,6.76638177 C58.9426434,6.76638177 58.9967937,6.76638177 59.0238689,6.76638177 C59.0509441,6.76638177 59.1050944,6.76638177 59.1321696,6.76638177 C59.1592447,6.76638177 59.2133951,6.76638177 59.2404703,6.76638177 C59.2675454,6.76638177 59.3216958,6.76638177 59.3487709,6.76638177 C59.3758461,6.76638177 59.4299964,6.76638177 59.4570716,6.76638177 C59.4841468,6.76638177 59.5382971,6.76638177 59.5653723,6.76638177 C58.8072675,6.22507123 58.0220876,5.73789174 57.2098326,5.25071225 C56.3975775,4.76353276 55.5853224,4.33048433 54.7459922,3.92450142 C53.9066619,3.51851852 53.0402565,3.11253561 52.1738511,2.76068376 C51.3074457,2.40883191 50.4139651,2.08404558 49.4934093,1.78632479 C48.5999287,1.48860399 47.6522978,1.24501425 46.7317421,1.02849003 C45.7841112,0.811965812 44.8364802,0.622507123 43.8888493,0.46011396 C42.9412184,0.297720798 41.9665123,0.189458689 40.964731,0.108262108 C39.9900249,0.0270655271 38.9882437,0 37.9864624,0 C35.360171,0 32.8151051,0.270655271 30.3241895,0.784900285 C27.8603491,1.2991453 25.4777342,2.02991453 23.20342,3.0042735 C20.9291058,3.95156695 18.7630923,5.14245014 16.7595297,6.4957265 C14.7288921,7.84900285 12.8607054,9.41880342 11.1278945,11.1239316 C9.42215889,12.9102564 7.85179907,14.8048433 6.49804061,16.8076923 C5.14428215,18.8376068 3.95297471,20.9757835 3.00534378,23.2492877 C2.05771286,25.522792 1.29960812,27.9045584 0.785179907,30.3675214 C0.270751692,32.8304843 0,35.4017094 0,38.0270655 C0,40.6524217 0.270751692,43.1965812 0.785179907,45.6866097 C1.29960812,48.1495726 2.03063769,50.531339 3.00534378,52.8048433 C3.98004988,55.0783476 5.14428215,57.2435897 6.49804061,59.2464387 C7.85179907,61.2763533 9.42215889,63.1438746 11.1278945,64.8760684 C12.8336302,66.5811966 14.7288921,68.1509972 16.7595297,69.5042735 C18.7901674,70.8575499 20.9291058,72.048433 23.20342,72.9957265 C25.4777342,73.9700855 27.8603491,74.7008547 30.3241895,75.2150997 C32.7880299,75.7293447 35.360171,76 37.9864624,76 C39.3131457,76 40.6127538,75.9458689 41.8852868,75.8105413 C43.1578197,75.6752137 44.4303527,75.485755 45.6758105,75.2150997 C46.9212683,74.97151 48.1396509,74.6467236 49.3309583,74.2678063 C50.5222658,73.8888889 51.686498,73.4558405 52.8507303,72.968661 C53.9878874,72.4814815 55.0979694,71.9401709 56.1809761,71.3447293 C57.2639829,70.7492877 58.3199145,70.0997151 59.3216958,69.4230769 C60.323477,68.7193732 61.3252583,67.988604 62.245814,67.2037037 C63.193445,66.4188034 64.0869255,65.6068376 64.953331,64.7136752 L40.8564304,64.7136752 L40.8564304,55.0783476 L40.8835055,55.0783476 Z M40.964731,37.8917379 C41.0188814,37.6481481 41.0730317,37.4045584 41.1542572,37.1609687 C41.2354827,36.9173789 41.3437834,36.7008547 41.4791592,36.4843305 C41.6145351,36.2678063 41.7499109,36.0783476 41.9394371,35.8888889 C42.1018881,35.6994302 42.3184895,35.537037 42.5350908,35.4017094 C42.7516922,35.2663818 42.9953687,35.1310541 43.2661204,35.022792 C43.5368721,34.9145299 43.8076238,34.8333333 44.1325258,34.7792023 C44.4303527,34.7250712 44.7823299,34.6980057 45.1343071,34.6980057 C45.4862843,34.6980057 45.8111863,34.7250712 46.1360884,34.7792023 C46.4339152,34.8333333 46.7317421,34.9145299 47.0024938,35.022792 C47.2732455,35.1310541 47.516922,35.2393162 47.7335233,35.4017094 C47.9501247,35.537037 48.1396509,35.6994302 48.3291771,35.8888889 C48.4916281,36.0783476 48.6540791,36.2678063 48.7894549,36.4843305 C48.9248308,36.7008547 49.0331315,36.9173789 49.114357,37.1609687 C49.1955825,37.4045584 49.276808,37.6481481 49.3038831,37.8917379 C49.3580335,38.1353276 49.3580335,38.4059829 49.3580335,38.6766382 C49.3580335,38.9472934 49.3309583,39.1908832 49.3038831,39.4615385 C49.2497328,39.7051282 49.1955825,39.9487179 49.114357,40.1923077 C49.0331315,40.4358974 48.9248308,40.6524217 48.7894549,40.8689459 C48.6540791,41.0854701 48.5187032,41.2749288 48.3291771,41.4643875 C48.166726,41.6538462 47.9501247,41.8162393 47.7335233,41.951567 C47.516922,42.0868946 47.2732455,42.2222222 47.0024938,42.3304843 C46.7317421,42.4387464 46.4609904,42.519943 46.1360884,42.5740741 C45.8382615,42.6282051 45.4862843,42.6552707 45.1343071,42.6552707 C44.7823299,42.6552707 44.4574279,42.6282051 44.1325258,42.5740741 C43.834699,42.519943 43.5368721,42.4387464 43.2661204,42.3304843 C42.9953687,42.2222222 42.7516922,42.1139601 42.5350908,41.951567 C42.3184895,41.8162393 42.1289633,41.6538462 41.9394371,41.4643875 C41.7769861,41.2749288 41.6145351,41.0854701 41.4791592,40.8689459 C41.3437834,40.6524217 41.2354827,40.4358974 41.1542572,40.1923077 C41.0730317,39.9487179 40.9918062,39.7051282 40.964731,39.4615385 C40.9105807,39.2179487 40.9105807,38.9472934 40.9105807,38.6766382 C40.9105807,38.4059829 40.9105807,38.1623932 40.964731,37.8917379 Z M11.0737442,36.3490028 C11.0195939,36.3490028 10.9925187,36.3219373 10.9383684,36.3219373 C10.884218,36.3219373 10.8571429,36.2948718 10.8300677,36.2948718 C10.8029925,36.2948718 10.7488422,36.2678063 10.721767,36.2678063 C10.6946918,36.2678063 10.6405415,36.2407407 10.6134663,36.2407407 C10.5863912,36.2407407 10.5322408,36.2407407 10.5051657,36.2136752 C10.4780905,36.2136752 10.4239401,36.2136752 10.3697898,36.2136752 C10.3156395,36.2136752 10.2885643,36.2136752 10.234414,36.2136752 C10.1802636,36.2136752 10.1531885,36.2136752 10.0990381,36.2136752 C9.9365871,36.2136752 9.77413609,36.2136752 9.61168507,36.2407407 C9.44923406,36.2678063 9.31385821,36.2948718 9.1514072,36.3490028 C9.01603135,36.4031339 8.8806555,36.457265 8.74527966,36.5384615 C8.60990381,36.6196581 8.50160314,36.7008547 8.39330246,36.8091168 C8.28500178,36.9173789 8.20377627,37.025641 8.12255077,37.1609687 C8.04132526,37.2962963 7.96009975,37.4316239 7.90594941,37.5669516 C7.85179907,37.7293447 7.79764874,37.8917379 7.77057357,38.0541311 C7.7434984,38.2165242 7.71642323,38.4059829 7.71642323,38.6225071 L7.71642323,42.3575499 L6.3355896,42.3575499 L6.3355896,35.022792 L7.71642323,35.022792 L7.71642323,36.3760684 L7.7434984,36.3760684 C7.8247239,36.2407407 7.90594941,36.1054131 8.01425009,35.9700855 C8.0954756,35.8347578 8.20377627,35.7264957 8.28500178,35.6452991 C8.39330246,35.537037 8.47452797,35.4558405 8.58282864,35.3746439 C8.69112932,35.2934473 8.79943,35.2122507 8.90773067,35.1581197 C9.01603135,35.1039886 9.12433203,35.0498575 9.2326327,34.9957265 C9.34093338,34.9415954 9.44923406,34.9145299 9.55753473,34.8874644 C9.66583541,34.8603989 9.77413609,34.8333333 9.90951193,34.8333333 C10.0178126,34.8062678 10.1261133,34.8062678 10.2614891,34.8062678 C10.3156395,34.8062678 10.3427146,34.8062678 10.396865,34.8062678 C10.4239401,34.8062678 10.4780905,34.8062678 10.5051657,34.8062678 C10.5322408,34.8062678 10.5863912,34.8062678 10.6134663,34.8062678 C10.6405415,34.8062678 10.6676167,34.8062678 10.6946918,34.8062678 C10.721767,34.8062678 10.7488422,34.8062678 10.7759173,34.8062678 C10.8029925,34.8062678 10.8300677,34.8062678 10.8571429,34.8333333 C10.884218,34.8333333 10.9112932,34.8333333 10.9383684,34.8603989 C10.9654435,34.8603989 10.9925187,34.8874644 11.046669,34.8874644 L11.046669,36.3490028 L11.0737442,36.3490028 Z M21.8496616,42.3575499 C21.7955112,42.3575499 21.7684361,42.3575499 21.7142857,42.3846154 C21.6601354,42.3846154 21.6330602,42.3846154 21.5789099,42.4116809 C21.5247595,42.4116809 21.4976844,42.4116809 21.443534,42.4387464 C21.3893837,42.4387464 21.3623085,42.4387464 21.3081582,42.4387464 C21.2540078,42.4387464 21.1998575,42.4387464 21.1727823,42.4387464 C21.118632,42.4387464 21.0915568,42.4387464 21.0374065,42.4387464 C20.9832561,42.4387464 20.956181,42.4387464 20.9020306,42.4387464 C20.8478803,42.4387464 20.8208051,42.4387464 20.7666548,42.4387464 C20.6854293,42.4387464 20.6042038,42.4387464 20.5229783,42.4387464 C20.4417528,42.4387464 20.3605273,42.4116809 20.3063769,42.4116809 C20.2251514,42.3846154 20.1710011,42.3846154 20.1168507,42.3575499 C20.0627004,42.3304843 20.0085501,42.3034188 19.9543997,42.2492877 C19.9002494,42.2222222 19.846099,42.1680912 19.8190239,42.1139601 C19.7648735,42.0598291 19.7377984,42.005698 19.7107232,41.9245014 C19.683648,41.8703704 19.6565729,41.7891738 19.6294977,41.7079772 C19.6024225,41.6267806 19.5753473,41.5185185 19.5753473,41.4373219 C19.4941218,41.5185185 19.4128963,41.6267806 19.3316708,41.7079772 C19.2504453,41.7891738 19.1421446,41.8703704 19.033844,41.951567 C18.9255433,42.0327635 18.7901674,42.0868946 18.6818668,42.1680912 C18.5464909,42.2222222 18.4111151,42.2763533 18.2757392,42.3304843 C18.1403634,42.3846154 17.9779124,42.4387464 17.8425365,42.465812 C17.7071607,42.4928775 17.5447097,42.5470085 17.3822586,42.5740741 C17.2198076,42.6011396 17.0844318,42.6282051 16.9219808,42.6282051 C16.7595297,42.6282051 16.6241539,42.6552707 16.4617029,42.6552707 C16.163876,42.6552707 15.8931243,42.6282051 15.6223726,42.6011396 C15.3786961,42.5740741 15.1620948,42.519943 14.9454934,42.4387464 C14.7559672,42.3846154 14.566441,42.3034188 14.4310652,42.1951567 C14.2686142,42.1139601 14.1603135,42.005698 14.0520128,41.8974359 C13.9437121,41.7891738 13.8624866,41.6809117 13.7812611,41.545584 C13.7000356,41.4373219 13.6458853,41.3019943 13.5917349,41.1666667 C13.5375846,41.031339 13.5105094,40.9230769 13.4834343,40.7877493 C13.4563591,40.6524217 13.4563591,40.5441595 13.4563591,40.4088319 C13.4563591,40.2464387 13.4563591,40.0840456 13.4834343,39.9216524 C13.5105094,39.7863248 13.5375846,39.6239316 13.6188101,39.5156695 C13.6729605,39.3803419 13.754186,39.2720798 13.8354115,39.1638177 C13.916637,39.0555556 14.0249377,38.9472934 14.1603135,38.8660969 C14.2956893,38.7849003 14.4310652,38.6766382 14.5935162,38.6225071 C14.7559672,38.5413105 14.9454934,38.4871795 15.1350196,38.4059829 C15.3245458,38.3518519 15.5682223,38.2977208 15.8118988,38.2435897 C16.0555753,38.1894587 16.326327,38.1623932 16.6241539,38.1353276 L16.8136801,38.1082621 L17.0032063,38.0811966 L17.1927325,38.0541311 L17.3822586,38.0270655 L17.5717848,38 L17.761311,37.9729345 L17.9508372,37.9458689 L18.1403634,37.9188034 C18.2486641,37.9188034 18.3298896,37.8917379 18.4111151,37.8917379 C18.4923406,37.8917379 18.5735661,37.8646724 18.6547916,37.8376068 C18.7360171,37.8105413 18.8172426,37.8105413 18.8713929,37.7834758 C18.9255433,37.7564103 19.0067688,37.7293447 19.0609191,37.7022792 C19.1150695,37.6752137 19.1692198,37.6210826 19.196295,37.5940171 C19.2504453,37.539886 19.2775205,37.5128205 19.3045957,37.4586895 C19.3316708,37.4045584 19.358746,37.3504274 19.358746,37.2692308 C19.3858212,37.2150997 19.3858212,37.1339031 19.3858212,37.0527066 C19.3858212,36.9173789 19.358746,36.8091168 19.3316708,36.7008547 C19.3045957,36.5925926 19.2504453,36.511396 19.196295,36.4301994 C19.1421446,36.3490028 19.0879943,36.2678063 19.0067688,36.2136752 C18.9255433,36.1595442 18.8443178,36.1054131 18.7360171,36.0512821 C18.6277164,35.997151 18.5464909,35.9700855 18.4111151,35.9430199 C18.3028144,35.9159544 18.1674385,35.8888889 18.0591379,35.8618234 C17.923762,35.8347578 17.7883862,35.8347578 17.6530103,35.8347578 C17.5176345,35.8347578 17.3822586,35.8347578 17.2468828,35.8347578 C17.0844318,35.8347578 16.9490559,35.8347578 16.8136801,35.8618234 C16.6783042,35.8618234 16.5429284,35.8888889 16.4075525,35.9159544 C16.2721767,35.9430199 16.1368009,35.9700855 16.0285002,35.997151 C15.9201995,36.0242165 15.7848237,36.0783476 15.7035981,36.1324786 C15.5952975,36.1866097 15.514072,36.2407407 15.4328465,36.3219373 C15.3516209,36.4031339 15.2703954,36.4843305 15.2162451,36.5655271 C15.1620948,36.6467236 15.1079444,36.7549858 15.0808693,36.8903134 C15.0537941,36.9985755 15.0267189,37.1339031 15.0267189,37.2692308 L13.7000356,37.2692308 C13.7271108,37.0527066 13.754186,36.8361823 13.8083363,36.6196581 C13.8624866,36.4301994 13.9437121,36.2407407 14.0249377,36.0783476 C14.1061632,35.9159544 14.2144638,35.7806268 14.3498397,35.6452991 C14.4581404,35.5099715 14.6205914,35.4017094 14.7559672,35.2934473 C14.9184182,35.1851852 15.0808693,35.1039886 15.2703954,35.022792 C15.4599216,34.9415954 15.6494478,34.8874644 15.8660492,34.8333333 C16.0826505,34.7792023 16.2992519,34.7521368 16.5700036,34.7250712 C16.8136801,34.6980057 17.0844318,34.6980057 17.3551835,34.6980057 C17.5447097,34.6980057 17.7342358,34.6980057 17.923762,34.7250712 C18.1132882,34.7521368 18.3028144,34.7521368 18.5194157,34.7792023 C18.7089419,34.8062678 18.8984681,34.8603989 19.0879943,34.9145299 C19.2775205,34.968661 19.4399715,35.022792 19.6024225,35.1039886 C19.7648735,35.1851852 19.9273245,35.2663818 20.0627004,35.3746439 C20.1980762,35.482906 20.3063769,35.5911681 20.4146776,35.7264957 C20.5229783,35.8618234 20.6042038,36.0242165 20.6583541,36.1866097 C20.7125045,36.3490028 20.7395796,36.5655271 20.7395796,36.7549858 L20.7395796,40.7877493 C20.7395796,40.8418803 20.7395796,40.8960114 20.7395796,40.9501425 C20.7395796,41.0042735 20.7666548,41.031339 20.7666548,41.0854701 C20.7666548,41.1125356 20.79373,41.1666667 20.8208051,41.1937322 C20.8478803,41.2207977 20.8749555,41.2478632 20.9020306,41.2749288 C20.9291058,41.3019943 20.956181,41.3290598 20.9832561,41.3561254 C21.0103313,41.3831909 21.0644817,41.3831909 21.0915568,41.4102564 C21.118632,41.4102564 21.1727823,41.4373219 21.2269327,41.4373219 C21.281083,41.4373219 21.3352333,41.4373219 21.3893837,41.4373219 C21.4164589,41.4373219 21.4164589,41.4373219 21.443534,41.4373219 C21.4706092,41.4373219 21.4976844,41.4373219 21.4976844,41.4373219 C21.5247595,41.4373219 21.5518347,41.4373219 21.5518347,41.4373219 C21.5789099,41.4373219 21.605985,41.4373219 21.605985,41.4373219 C21.6330602,41.4373219 21.6601354,41.4373219 21.6601354,41.4373219 C21.6872105,41.4373219 21.7142857,41.4373219 21.7142857,41.4373219 C21.7413609,41.4373219 21.7413609,41.4373219 21.7684361,41.4373219 C21.7955112,41.4373219 21.7955112,41.4373219 21.8225864,41.4373219 L21.8225864,42.3575499 L21.8496616,42.3575499 Z M32.5985037,42.3575499 L31.1905949,42.3575499 L31.1905949,41.4102564 L31.1635198,41.4102564 C31.0822943,41.5185185 31.0281439,41.5997151 30.9198432,41.6809117 C30.8386177,41.7621083 30.7303171,41.8433048 30.6490916,41.9245014 C30.5407909,42.005698 30.4324902,42.0598291 30.3241895,42.1410256 C30.2158888,42.1951567 30.080513,42.2492877 29.9722123,42.3034188 C29.8368365,42.3575499 29.7285358,42.3846154 29.59316,42.4387464 C29.4577841,42.465812 29.3224083,42.519943 29.1870324,42.5470085 C29.0516566,42.5740741 28.9162807,42.6011396 28.7809049,42.6011396 C28.645529,42.6011396 28.5101532,42.6282051 28.3747773,42.6282051 C28.1040257,42.6282051 27.833274,42.6011396 27.5625223,42.5740741 C27.2917706,42.519943 27.0480941,42.465812 26.8044175,42.3846154 C26.560741,42.3034188 26.3441397,42.1951567 26.1275383,42.0598291 C25.9109369,41.9245014 25.7214108,41.7891738 25.5318846,41.6267806 C25.3423584,41.4643875 25.1799074,41.2749288 25.0445315,41.0854701 C24.9091557,40.8689459 24.7737798,40.6524217 24.6654792,40.4088319 C24.5571785,40.1652422 24.475953,39.9216524 24.4218026,39.6239316 C24.3676523,39.3532764 24.3405771,39.0555556 24.3405771,38.7578348 C24.3405771,38.460114 24.3676523,38.1623932 24.4218026,37.8917379 C24.475953,37.6210826 24.5571785,37.3504274 24.6654792,37.1068376 C24.7737798,36.8632479 24.8820805,36.6467236 25.0445315,36.4301994 C25.1799074,36.2136752 25.3423584,36.0512821 25.5318846,35.8888889 C25.7214108,35.7264957 25.9109369,35.5641026 26.1275383,35.4558405 C26.3441397,35.3205128 26.560741,35.2122507 26.8044175,35.1310541 C27.0480941,35.0498575 27.2917706,34.968661 27.5625223,34.9415954 C27.833274,34.8874644 28.1040257,34.8874644 28.3747773,34.8874644 C28.5101532,34.8874644 28.645529,34.8874644 28.7809049,34.9145299 C28.9162807,34.9145299 29.0516566,34.9415954 29.1870324,34.968661 C29.3224083,34.9957265 29.4577841,35.022792 29.59316,35.0498575 C29.7285358,35.0769231 29.8639116,35.1310541 29.9722123,35.1851852 C30.1075882,35.2393162 30.2158888,35.2934473 30.3241895,35.3475783 C30.4324902,35.4017094 30.5407909,35.482906 30.6490916,35.5641026 C30.7573922,35.6452991 30.8386177,35.7264957 30.9198432,35.8076923 C31.0010688,35.8888889 31.0822943,35.997151 31.1635198,36.0783476 L31.1905949,36.0783476 L31.1905949,32.3162393 L32.5985037,32.3162393 L32.5985037,42.3575499 Z M37.7969362,42.3575499 L36.4161026,42.3575499 L36.4161026,35.022792 L37.7969362,35.022792 L37.7969362,42.3575499 Z M37.7969362,33.8048433 L36.4161026,33.8048433 L36.4161026,32.2621083 L37.7969362,32.2621083 L37.7969362,33.8048433 Z M42.5080157,39.6780627 C42.562166,39.8404558 42.6163164,40.002849 42.6975419,40.1381766 C42.7787674,40.2735043 42.8599929,40.4358974 42.9682936,40.5441595 C43.0765942,40.6794872 43.2119701,40.7877493 43.3473459,40.8960114 C43.4827218,41.0042735 43.6451728,41.0854701 43.8076238,41.1666667 C43.9700748,41.2478632 44.1866762,41.3019943 44.3762024,41.3561254 C44.5928037,41.4102564 44.8094051,41.4102564 45.0801568,41.4102564 C45.3238333,41.4102564 45.5675098,41.3831909 45.7841112,41.3561254 C46.0007125,41.3019943 46.1902387,41.2478632 46.3526897,41.1666667 C46.5151407,41.0854701 46.6775917,41.0042735 46.8129676,40.8960114 C46.9483434,40.7877493 47.0837193,40.6794872 47.19202,40.5441595 C47.3003206,40.4088319 47.3815461,40.2735043 47.4627716,40.1381766 C47.5439971,40.002849 47.5981475,39.8404558 47.6522978,39.6780627 C47.7064482,39.5156695 47.7335233,39.3532764 47.7605985,39.1908832 C47.7876737,39.02849 47.7876737,38.8660969 47.7876737,38.7037037 C47.7876737,38.5413105 47.7876737,38.3789174 47.7605985,38.1894587 C47.7335233,38.0270655 47.7064482,37.8646724 47.6522978,37.7022792 C47.5981475,37.539886 47.5439971,37.3774929 47.4627716,37.2421652 C47.3815461,37.1068376 47.3003206,36.9444444 47.19202,36.8361823 C47.0837193,36.7008547 46.9483434,36.5925926 46.8129676,36.4843305 C46.6775917,36.3760684 46.5151407,36.2948718 46.3526897,36.2136752 C46.1902387,36.1324786 45.9736373,36.0783476 45.7841112,36.0242165 C45.5675098,35.9700855 45.3509084,35.9700855 45.0801568,35.9700855 C44.8364802,35.9700855 44.5928037,35.997151 44.3762024,36.0242165 C44.159601,36.0783476 43.9700748,36.1324786 43.8076238,36.2136752 C43.6451728,36.2948718 43.4827218,36.3760684 43.3473459,36.4843305 C43.2119701,36.5925926 43.0765942,36.7008547 42.9682936,36.8361823 C42.8599929,36.97151 42.7787674,37.1068376 42.6975419,37.2421652 C42.6163164,37.3774929 42.562166,37.539886 42.5080157,37.7022792 C42.4538653,37.8646724 42.4267902,38.0270655 42.399715,38.1894587 C42.3726398,38.3518519 42.3726398,38.514245 42.3726398,38.7037037 C42.3726398,38.8660969 42.3726398,39.02849 42.399715,39.1908832 C42.4267902,39.3532764 42.4538653,39.5156695 42.5080157,39.6780627 Z M19.196295,38.6766382 C19.1692198,38.7037037 19.1150695,38.7307692 19.0609191,38.7307692 C19.0067688,38.7578348 18.9526185,38.7578348 18.8984681,38.7849003 C18.8443178,38.8119658 18.7901674,38.8119658 18.7089419,38.8390313 C18.6547916,38.8660969 18.5735661,38.8660969 18.4923406,38.8931624 C18.4111151,38.8931624 18.3298896,38.9202279 18.2486641,38.9202279 C18.1674385,38.9202279 18.0591379,38.9472934 17.9779124,38.9472934 L17.7883862,38.974359 L17.59886,39.0014245 L17.4093338,39.02849 L17.2198076,39.0555556 L17.0302814,39.0826211 L16.8407553,39.1096866 L16.4346277,39.1638177 C16.2992519,39.1908832 16.163876,39.1908832 16.0555753,39.2179487 C15.9472747,39.2450142 15.8118988,39.2720798 15.7306733,39.2991453 C15.6223726,39.3262108 15.5411471,39.3532764 15.4599216,39.4074074 C15.3786961,39.4344729 15.2974706,39.488604 15.2162451,39.542735 C15.1350196,39.5968661 15.0808693,39.6509972 15.0267189,39.7051282 C14.9725686,39.7592593 14.9184182,39.8133903 14.8913431,39.8945869 C14.8642679,39.9757835 14.8371927,40.0299145 14.8101176,40.1111111 C14.7830424,40.1923077 14.7830424,40.2735043 14.7830424,40.3817664 C14.7830424,40.462963 14.7830424,40.5441595 14.8101176,40.6253561 C14.8371927,40.7065527 14.8642679,40.7877493 14.8913431,40.8418803 C14.9184182,40.9230769 14.9725686,40.977208 15.0267189,41.031339 C15.0808693,41.0854701 15.1620948,41.1396011 15.2162451,41.1937322 C15.2974706,41.2478632 15.3786961,41.3019943 15.4599216,41.3290598 C15.5411471,41.3561254 15.6494478,41.4102564 15.7577485,41.4373219 C15.8660492,41.4643875 15.9743498,41.491453 16.0826505,41.491453 C16.1909512,41.5185185 16.326327,41.5185185 16.4346277,41.5185185 C16.6241539,41.5185185 16.8136801,41.5185185 17.0032063,41.491453 C17.1927325,41.4643875 17.3822586,41.4373219 17.5447097,41.3831909 C17.7071607,41.3290598 17.8696117,41.2749288 18.0320627,41.1937322 C18.1945137,41.1125356 18.3298896,41.031339 18.4652654,40.9501425 C18.6006413,40.8689459 18.7089419,40.7606838 18.8172426,40.6524217 C18.9255433,40.5441595 19.0067688,40.4358974 19.0879943,40.3005698 C19.1692198,40.1652422 19.2233701,40.0299145 19.2504453,39.8945869 C19.2775205,39.7592593 19.3045957,39.5968661 19.3045957,39.4615385 L19.3045957,38.514245 C19.2775205,38.5413105 19.2504453,38.5683761 19.2233701,38.5954416 C19.2504453,38.6225071 19.2233701,38.6495726 19.196295,38.6766382 Z M75.9729248,37.5128205 C75.9729248,37.3233618 75.9729248,37.1609687 75.9729248,36.97151 C75.9729248,36.7820513 75.9729248,36.6196581 75.9458497,36.4301994 C75.9458497,36.2407407 75.9187745,36.0783476 75.9187745,35.8888889 C75.9187745,35.7264957 75.8916993,35.537037 75.8916993,35.3746439 C75.8916993,35.2122507 75.8646242,35.022792 75.837549,34.8603989 C75.8104738,34.6980057 75.8104738,34.508547 75.7833986,34.3461538 C75.7563235,34.1837607 75.7563235,33.994302 75.7292483,33.8319088 C75.6480228,33.994302 75.5667973,34.1837607 75.4584966,34.3461538 C75.3772711,34.508547 75.2689704,34.6980057 75.1877449,34.8603989 C75.0794442,35.022792 74.9982187,35.2122507 74.8899181,35.3746439 C74.7816174,35.537037 74.7003919,35.6994302 74.5920912,35.8888889 C74.4837905,36.0512821 74.3754898,36.2136752 74.2671892,36.3760684 C74.1588885,36.5384615 74.0505878,36.7008547 73.9422871,36.8632479 C73.8339865,37.025641 73.7256858,37.1880342 73.5903099,37.3504274 C73.4820093,37.5128205 73.3466334,37.6752137 73.2383327,37.8376068 L66.0634129,45.3888889 L55.20627,55.0783476 L71.9387246,55.0783476 C72.2636266,54.4287749 72.5614535,53.7792023 72.8592804,53.1296296 C73.1571072,52.480057 73.4007838,51.8034188 73.6715354,51.1267806 C73.915212,50.4501425 74.1588885,49.7735043 74.3754898,49.0698006 C74.5920912,48.3660969 74.7816174,47.6623932 74.9440684,46.9586895 C75.1065194,46.2549858 75.2689704,45.5242165 75.4043463,44.7934473 C75.5397221,44.0626781 75.6480228,43.3319088 75.7292483,42.6011396 C75.8104738,41.8703704 75.8916993,41.1125356 75.9187745,40.3547009 C75.9729248,39.5968661 76,38.8390313 76,38.0811966 C76,37.8646724 75.9729248,37.7022792 75.9729248,37.5128205 Z" id="Shape" fill="#FFFFFF"></path>
            </g>
        </g>
    </g>
</svg>