<?xml version="1.0" encoding="UTF-8"?>
<svg width="192px" height="192px" viewBox="0 0 192 192" version="1.1" xmlns="http://www.w3.org/2000/svg" xmlns:xlink="http://www.w3.org/1999/xlink">
    <!-- Generator: Sketch 55.2 (78181) - https://sketchapp.com -->
    <title>client-gardneranddomm</title>
    <desc>Created with Sketch.</desc>
    <g id="Page-1" stroke="none" stroke-width="1" fill="none" fill-rule="evenodd">
        <g id="client-gardneranddomm">
            <rect id="Rectangle" fill="#FFFFFF" fill-rule="nonzero" opacity="0.01" x="0" y="0" width="192" height="192"></rect>
            <g id="G&amp;D-LOGO-neg" transform="translate(44.000000, 61.000000)">
                <path d="M71.7485153,16.5638824 C71.6403681,16.6499819 71.5130798,16.6493394 71.4004663,16.7094163 C71.3558037,16.7322262 71.327411,16.7903756 71.2773252,16.8112579 C70.9851043,16.9381584 70.6412025,16.8983213 70.3151656,16.9770317 C70.1422577,17.0184751 69.9489325,17.1453756 69.7418896,17.2038462 C69.5306994,17.2632805 69.2802699,17.2905882 69.1265031,17.3683348 C68.9995337,17.4332308 68.9098896,17.5739457 68.7366626,17.6577964 C68.6291534,17.7101629 68.4444417,17.769276 68.3066258,17.8226063 C68.1512638,17.8830045 67.9742086,17.9723167 67.8976442,17.9877376 C67.6708221,18.0336787 67.3719018,17.9960905 67.097227,18.0082986 C66.8158528,18.0211493 66.5159755,18.0735158 66.2773497,18.0288597 C66.0811534,17.9925566 65.8782577,17.8110407 65.6626012,17.8023665 C65.4571534,17.3683348 65.4102577,16.7425068 65.5809325,16.2956244 C65.6198528,16.1989231 65.6281472,16.0938688 65.6626012,16.0068054 C65.7264049,15.8452081 65.8677301,15.6996742 65.9286626,15.5319729 C66.0795583,15.1207511 66.2435337,14.7413348 66.3596564,14.3760543 C66.8388221,14.1158281 67.1377423,14.6343529 67.6095706,14.645276 C67.7004908,14.6423846 67.6800736,14.7516154 67.7521718,14.7686425 C68.3768098,14.9414842 69.0355828,15.2871674 69.8025031,15.1814706 C69.9489325,15.2515068 70.1910675,15.3196154 70.356319,15.3054796 C70.7343558,15.6460226 71.1439755,15.955724 71.7899877,16.0273665 C71.899411,16.2275158 71.8403926,16.3810814 71.7485153,16.5638824 Z M94.189227,39.2238054 C93.9697423,39.025905 93.7575951,38.8440679 93.6140368,38.6654434 C93.4631411,38.6464887 93.4143313,38.5234434 93.2647117,38.5015973 C93.0203436,38.1706923 92.5855215,38.028371 92.3025521,37.7369819 C92.2779877,37.6797964 92.2432147,37.6328914 92.2416196,37.5509683 C91.9522699,37.312267 91.7873374,36.9492353 91.5448834,36.6633077 C91.3608098,36.4850045 91.1292025,36.442276 90.8896196,36.313448 C90.7415951,36.2347376 90.6206871,36.1878326 90.4790429,36.1271131 C90.2244663,36.0191674 90.098773,35.8411855 89.9265031,35.6946878 C89.837816,35.6185475 89.6961718,35.5212036 89.5995092,35.4672308 C89.423092,35.3718145 89.2103067,35.3220181 89.0453742,35.2192127 C88.9838037,35.1825882 88.9385031,35.112552 88.8801227,35.0743213 C88.5866258,34.8883077 88.3294969,34.7254253 88.122454,34.4562036 C87.7922699,34.3954842 87.6330798,34.1651357 87.3242699,34.084819 C87.0594847,33.7931086 86.7500368,33.4724842 86.4826994,33.1971584 C86.3691288,33.0805385 86.2581104,32.9205475 86.1557055,32.8469774 C85.9228221,32.6802398 85.6637791,32.5809683 85.5409571,32.309819 C85.3119018,32.2593801 85.0694479,32.0624434 84.8241227,32.021 C84.4984049,31.9660633 84.1615215,32.0271041 83.8402699,31.9384344 C83.7608344,31.9169095 83.7085153,31.8706471 83.6354601,31.8555475 C83.3110184,31.7912941 82.992319,31.8372353 82.7125399,31.7530633 C82.281227,31.6014253 81.8936196,31.3003982 81.380319,31.2984706 C81.2670675,31.1561493 81.0772515,31.1648235 80.929546,31.0915747 C80.5613988,30.9100588 80.2123926,30.6613982 79.7609816,30.5756199 C79.6387975,30.4127376 79.3893252,30.421733 79.1465521,30.349448 C78.9870429,30.3015792 78.8371043,30.2225475 78.6747239,30.2254389 C78.5081963,29.8913213 77.8931288,30.1194208 77.6924663,29.853733 C77.6149448,29.753819 77.6149448,29.5430679 77.6312147,29.4001041 C77.6589693,29.1189955 77.8057178,28.7848778 77.773816,28.4501176 C77.9371534,28.2512534 77.8762209,27.8474208 77.896638,27.5017376 C77.9093988,27.3035158 77.9617178,27.0975837 77.9786258,26.9028959 C78.0079755,26.5658869 77.9234356,26.2626109 77.9176933,25.9541946 C77.914184,25.7794253 77.965865,25.602086 77.9786258,25.5201629 C78.0615706,25.0225204 78.1700368,24.6806923 78.3888834,24.3025611 C78.4278037,24.2733258 78.3917546,24.1679502 78.4293988,24.1377511 C78.4638528,24.0680362 78.5174479,24.02081 78.5729571,23.9726199 C78.6039018,23.8000995 78.6948221,23.6992217 78.7787239,23.5800317 C78.832638,23.5029276 78.8760245,23.4116878 78.9210061,23.3528959 C79.1168834,23.107448 79.421546,22.9095475 79.5973252,22.6727738 C79.663362,22.5818552 79.6876074,22.4678054 79.7609816,22.3839548 C79.8040491,22.3357647 79.8732761,22.350543 79.9268712,22.3013891 C79.9466503,22.2798643 79.9527117,22.1995475 79.9878037,22.156819 C80.0755337,22.0434118 80.1970798,21.8933801 80.2940613,21.8053529 C80.3827485,21.7269638 80.5186503,21.6877692 80.6009571,21.5994208 C80.6749693,21.5203891 80.7065521,21.3719638 80.7863067,21.2694796 C80.8762699,21.1544661 81.034184,21.0876425 81.1133006,20.9806606 C81.242184,20.8071765 81.3241718,20.5768281 81.4013742,20.381819 C81.519411,20.2937919 81.5758773,20.1453665 81.708908,20.0721176 C81.7411288,19.9432896 81.7357055,19.8151041 81.7908957,19.7216154 C81.8256687,19.6618597 81.9156319,19.6419412 81.9545521,19.5972851 C82.0055951,19.5410633 82.0129325,19.4501448 82.056319,19.411914 C82.1162945,19.3608326 82.299411,19.279552 82.3447117,19.2673439 C82.5657914,19.2079095 82.835681,19.3036471 83.0395337,19.1227738 C83.0302822,18.9968371 82.9495706,18.939009 82.9371288,18.8130724 C83.0768589,18.6562941 83.113227,18.4465068 83.3062331,18.3803258 C83.4957301,18.3160724 83.8000736,18.3501267 84.0648589,18.4012081 C84.1685399,18.4198416 84.257546,18.5052986 84.3727117,18.5451357 C84.4460859,18.5711584 84.5392393,18.5618416 84.6177178,18.5862579 C84.6824785,18.6064977 84.742454,18.6713937 84.8040245,18.6900271 C84.984908,18.7436787 85.2385276,18.7279367 85.4372761,18.771629 C85.696638,18.829457 85.8095706,18.9537873 86.0740368,18.834276 C86.1416687,18.9165204 86.2970307,18.9120226 86.3400982,19.0199683 C86.3461595,19.2355385 86.3707239,19.4270136 86.4626012,19.5564842 C86.5723436,19.7113348 86.9631411,19.860724 87.2630184,19.8864253 C87.8206626,19.9346154 88.4510429,19.8957421 88.7161472,20.2574887 C89.4616933,20.4778778 90.116319,20.788543 90.254454,21.6199819 C90.5568834,22.109914 91.4670429,21.9171538 92.1806871,21.9505656 C93.0401227,21.7025475 93.2685399,20.8177783 93.634773,20.0721176 C93.6108466,19.9445747 93.581816,19.823457 93.5939387,19.6599321 C93.2506748,19.3913529 93.183362,18.9512172 92.8975215,18.6280226 C92.8184049,18.5399955 92.7230184,18.4959819 92.6499632,18.4012081 C92.4757791,18.1689321 92.3041472,17.8846109 92.2416196,17.575552 C92.1363436,17.4891312 92.0655215,17.367371 92.0358528,17.2038462 C91.9318528,17.0547783 91.7318282,17.0011267 91.606135,16.8735837 C91.4759755,16.7412217 91.4271656,16.5497466 91.3190184,16.3990724 C91.208319,16.2464706 91.0185031,16.1192489 90.8685644,15.9656833 C90.4289571,15.5149457 89.9280982,15.0924796 89.7213742,14.4586199 C89.6770307,14.3856923 89.5883436,14.3580633 89.5360245,14.29381 C89.4333006,14.0162353 89.2383804,13.8504615 89.0453742,13.6336063 C88.8925644,13.4642986 88.7148712,13.3361131 88.574184,13.1796561 C88.470184,13.0646425 88.4054233,12.9242489 88.3065276,12.8285113 C88.0672638,12.5975204 87.7677055,12.4362443 87.5080245,12.229991 C87.3118282,11.829371 87.0154601,11.5286652 86.770135,11.1781629 C86.3707239,10.9667692 86.0153374,10.7129683 85.5001227,10.6198009 C85.4085644,10.6365068 85.4586503,10.5102489 85.3773006,10.5169955 C84.5957055,10.5385204 83.3049571,10.3358009 82.732638,10.7646923 C82.6366135,11.0053213 82.7859141,11.2694027 82.7540123,11.4046561 C82.7032883,11.6121946 82.5141104,11.601914 82.281227,11.6311493 C82.2135951,11.6404661 82.1233129,11.6854434 82.056319,11.6941176 C81.8416196,11.7194977 81.5978896,11.6992579 81.3602209,11.7140362 C81.1825276,11.7249593 81.0144049,11.7815023 80.8472393,11.7969231 C80.0487362,11.8698507 79.2256687,11.7741131 78.4916074,11.7760407 C78.2201227,11.7770045 77.8826012,11.7416652 77.6924663,11.8178054 C77.2771043,11.9822941 77.4248098,12.89919 77.6312147,13.1796561 C77.7278773,13.3149095 77.8854724,13.3380407 77.9176933,13.4887149 C77.9846871,13.7974525 77.6404663,13.9796109 77.444589,14.0663529 C76.8601472,14.3285068 75.9014969,14.219276 75.2532515,14.314371 C75.053227,14.3702715 74.8854233,14.4872127 74.6796564,14.5620679 C74.5928834,14.593552 74.4863313,14.5765249 74.3922209,14.6240724 C74.3210798,14.6590905 74.2776933,14.7291267 74.2078282,14.7686425 C73.8894479,14.948552 73.4348466,15.0298326 73.0194847,14.9748959 C72.903362,14.9594751 72.7948957,14.8691991 72.6717546,14.8300045 C72.5843436,14.8030181 72.4908712,14.8152262 72.4053742,14.7892036 C72.3166871,14.7628597 72.2417178,14.6918597 72.159411,14.664552 C72.0101104,14.6182896 71.8687853,14.6301765 71.7485153,14.582629 C71.5478528,14.5023122 71.3570798,14.3384661 71.1139877,14.29381 C70.7270184,13.9269231 70.3196319,13.580276 69.8841718,13.2615792 C69.3766135,13.0794208 68.9995337,12.7632941 68.5934233,12.4773665 C68.5793865,12.2450905 68.3356564,12.2415566 68.4080736,11.9206109 C68.6291534,11.6064118 68.7149693,11.1563167 69.0020859,10.9092624 C69.0343067,10.6606018 69.1628712,10.4495294 69.228908,10.2281765 C69.2681472,10.0958145 69.264319,9.95124434 69.3105767,9.83623077 C69.3941595,9.62997738 69.6018405,9.43271946 69.5970552,9.15546606 C69.836319,9.04495023 69.8682209,8.78343891 69.905227,8.47405882 C69.9189448,8.35037104 69.9910429,8.20419457 70.0073129,8.06155204 C70.1011043,7.22304525 69.8347239,6.177 70.0478282,5.62602715 C70.2063804,5.21930317 70.6424785,5.30733032 71.032638,5.17207692 C71.2112883,5.02975566 71.3768589,4.87169231 71.5653988,4.73933032 C71.6295215,4.45757919 71.8343313,4.4331629 71.932589,4.24361538 C72.0563681,4.0119819 72.0563681,3.57248869 71.932589,3.31451131 C71.898773,3.24126244 71.8250798,3.19724887 71.7899877,3.10890045 C71.7226748,2.93156109 71.7533006,2.71149321 71.6668466,2.55150226 C71.7332025,2.36548869 71.8525153,2.10494118 71.7485153,1.87041629 C71.6847117,1.72809502 71.4489571,1.65034842 71.3589939,1.47847059 C71.3187975,1.39911765 71.3200736,1.27832127 71.2773252,1.1690905 C71.2454233,1.08491855 71.1624785,1.00203167 71.1340859,0.922036199 C71.1079264,0.841719457 71.1277055,0.734095023 71.0935706,0.653135747 C71.0221104,0.484791855 70.7997546,0.384877828 70.7850798,0.19918552 C70.183092,0.0115656109 69.5255951,0.296208145 68.9210552,0.405760181 C68.7841963,0.430176471 68.6626503,0.573782805 68.5324908,0.611692308 C68.4361472,0.638678733 68.3200245,0.622615385 68.224,0.653135747 C68.0124908,0.720280543 67.8702086,0.946452489 67.6095706,0.900832579 C67.3986994,1.0669276 67.1581595,1.20346606 67.0146012,1.43702715 C66.9093252,1.99603167 67.1881472,2.24276471 67.2825767,2.57238462 C67.374773,2.90104072 67.3706258,3.20849321 67.4867485,3.54196833 C67.6899632,3.99077828 68.3535215,4.23686878 68.1225521,4.92470136 C67.894135,5.23922172 67.4924908,5.37865158 67.0353374,5.46121719 C66.3679509,5.93669231 65.3898405,6.10182353 64.8851534,6.74082353 C64.5201963,6.88346606 64.2684908,7.1388733 63.9619141,7.33998643 C63.8355828,7.5639095 63.6598037,7.73642986 63.5312393,7.95810407 C63.2744294,8.07825792 63.1595828,8.3410543 63.040589,8.59838914 C63.0386748,8.6648914 62.9174479,8.61284615 62.936589,8.70119457 C62.8396074,8.870181 62.7840982,9.05137557 62.6708466,9.21714932 C62.6178896,9.29585973 62.5164417,9.3408371 62.4666748,9.42372398 C62.3866012,9.55223077 62.383411,9.74659729 62.2200736,9.81599095 C62.208908,10.1597466 61.8346994,10.3814208 61.7482454,10.7026878 C61.6426503,11.1020226 61.7437791,11.5347692 61.6869939,11.9620543 C61.549816,12.4497376 60.736,12.2560136 60.7449325,12.8911584 C60.9136933,13.1067285 60.8757301,13.5414027 60.8065031,13.8398597 C60.7819387,13.9050769 60.6865521,13.898009 60.683681,13.9841086 C60.4144294,14.7998054 60.1601718,15.652448 60.3965644,16.5844434 C60.493865,16.9693213 60.6776196,17.4255204 60.8674356,17.6985973 C60.9120982,17.7612443 60.9857914,17.7946561 61.031092,17.8634072 C61.1057423,17.9752081 61.1504049,18.1200995 61.237816,18.214552 C61.3265031,18.3157511 61.4333742,18.3568733 61.4828221,18.4416878 C61.5957546,18.6386244 61.636908,18.9200543 61.7686626,19.1642172 C61.8819141,19.3707919 62.105227,19.6085294 61.9948466,19.8864253 C61.9473129,20.0049729 61.6126626,20.1720317 61.4413497,20.2166878 C60.8958282,20.3586878 60.0960491,20.3069638 59.4337669,20.3609367 C59.3281718,20.3696109 59.2410798,20.4033439 59.1460123,20.4023801 C59.0346748,20.4017376 58.9137669,20.3898507 58.7909448,20.3776425 C58.7909448,20.3776425 56.8241963,21.3430498 56.8241963,27.0140543 C56.8241963,32.7470633 58.7909448,33.8030679 58.7909448,33.8030679 C59.1003926,33.8737466 59.4513129,33.9293258 59.6998282,33.9810498 C59.8772025,34.0179955 60.0488344,34.1243348 60.2319509,34.1458597 C60.406773,34.1677059 60.5863804,34.1391131 60.7653497,34.1670633 C61.1245644,34.2223213 61.4429448,34.31581 61.809816,34.3325158 C62.9997546,34.3845611 63.9651043,34.3848824 65.1301595,34.3325158 C65.4919264,34.31581 65.8610307,34.2528416 66.2368344,34.2293891 C67.5087607,34.1487511 69.1628712,34.2309955 70.3349448,33.9810498 C70.477546,33.8493303 70.7238282,33.823629 70.9914847,33.8155973 C71.1232393,33.7205023 71.292638,33.6790588 71.5031902,33.6507873 C71.8786748,33.602276 72.4372761,33.5251719 72.7534233,33.568543 C72.9017669,33.5894253 73.1135951,33.7192172 73.2035583,33.7747964 C73.2587485,33.8085294 73.3404172,33.8178462 73.3688098,33.8368009 C73.4610061,33.9036244 73.5203436,34.0295611 73.613816,34.1057014 C73.7286626,34.19919 73.8447853,34.2599095 73.8811534,34.373638 C74.4394356,34.6222986 74.689227,35.1832308 75.1502086,35.5292353 C75.5247362,36.6466018 76.665546,36.9893937 77.2002209,37.9435566 C77.2704049,37.9682941 77.3192147,38.0158416 77.3842945,38.0470045 C77.5964417,38.4518009 78.0303067,38.6346018 78.1422822,39.1415611 C78.3573006,39.3728733 78.5231902,39.6514118 78.6150675,40.0070543 C78.6354847,40.0745204 78.728638,40.072914 78.7366135,40.1519457 C78.8773006,40.5679864 79.1385767,40.862267 79.3507239,41.2050588 C80.028638,41.3910724 80.3179877,41.9651765 80.7863067,42.3603348 C80.981865,42.6035339 80.9215706,42.9376516 81.0724663,43.1644661 C81.1337178,43.2553846 81.2434601,43.2598824 81.3193865,43.3299186 C81.3477791,43.3562624 81.3490552,43.4208371 81.380319,43.4532851 C81.4166871,43.4911946 81.4718773,43.5072579 81.5040982,43.5364932 C81.7184785,43.7459593 81.8588466,43.9846606 82.0158037,44.2381403 C82.0301595,44.2863303 82.037816,44.3714661 82.056319,44.4649548 C82.2231656,44.5982805 82.195411,44.810638 82.3022822,45.0229955 C82.4187239,45.2485249 82.6666012,45.4698778 82.835681,45.8065656 C82.9116074,45.9601312 82.9422331,46.1522489 83.0200736,46.3218778 C83.0570798,46.4041222 83.1291779,46.4728733 83.1636319,46.5490136 C83.2641227,46.7790407 83.3333497,47.1144434 83.4698896,47.2304208 C83.5662331,47.3107376 83.6839509,47.2930679 83.8402699,47.3120226 C84.1462086,47.3531448 84.5287117,47.4527376 84.8241227,47.4366742 C85.1192147,47.6548145 85.5352147,47.8601041 85.4793865,48.3651357 C85.556908,48.4631222 85.6114601,48.5248054 85.6430429,48.6346787 C85.7007853,48.8412534 85.608589,49.0680679 85.6430429,49.2746425 C85.6669693,49.4108597 85.7971288,49.6142217 85.9091043,49.7273077 C86.2376933,50.0566063 86.9733497,50.201819 87.5485399,50.1606968 C87.793865,50.1430271 88.0500368,50.0244796 88.2861104,49.9746833 C88.5448344,49.9207104 88.7853742,49.8458552 88.9410552,49.7067466 C89.0693006,49.4372036 88.8954356,49.2878145 88.8195092,49.1297511 C88.7971779,49.0841312 88.8175951,49.0269457 88.798454,48.9845385 C88.7056196,48.7696109 88.4854969,48.6815837 88.3470429,48.488181 C88.278454,48.3914796 88.2679264,48.2552624 88.2038037,48.138 C88.1623313,48.0576833 88.087681,48.0239502 88.0615215,47.9535928 C87.9683681,47.7091086 87.9954847,47.5099231 87.8366135,47.2506606 C87.6161718,47.1012715 87.3501104,47.1321131 87.0789448,47.0848869 C86.9848344,47.0704299 86.8846626,47.0061765 86.7911902,46.982724 C86.4900368,46.9094751 86.1840982,46.8391176 85.9496196,46.7144661 C85.7642699,46.6151946 85.6602699,46.4201855 85.5199018,46.301638 C85.4261104,46.2724027 85.3463558,46.2283891 85.2532025,46.1991538 C84.8933497,45.7362081 84.8040245,45.0011493 84.1277055,44.857543 C84.0801718,44.7213258 83.9302331,44.6612489 83.8402699,44.5471991 C83.7238282,44.4035928 83.6702331,44.2060136 83.5726135,44.0315656 C83.5269939,43.9467511 83.4548957,43.8735023 83.4284172,43.8044299 C83.3508957,43.5846833 83.3292025,43.3694344 83.2041472,43.1850271 C83.0835583,43.0076878 82.9023558,42.8788597 82.6921227,42.7721991 C82.436908,42.4252308 82.1982822,42.0602715 81.8725644,41.7820543 C81.4106258,41.1260271 81.2348466,40.3000498 80.8277791,39.6160724 C80.739092,39.4679683 80.5977669,39.3510271 80.4988712,39.2029231 C80.4009325,39.0535339 80.3275583,38.8749095 80.2328098,38.7268054 C80.0410798,38.4312398 79.7664049,38.1941448 79.5360736,37.9435566 C79.542773,37.7764977 79.3823067,37.7279864 79.3114847,37.6132941 C79.2732025,37.5525747 79.2687362,37.4513756 79.2288589,37.3855158 C79.1924908,37.3270452 79.1353865,37.2968462 79.1050798,37.2419095 C78.9761963,37.0048145 78.9069693,36.6912579 78.7583067,36.4364932 C78.7187485,36.3719186 78.6654724,36.3385068 78.6338896,36.2723258 C78.5231902,36.0313756 78.502135,35.7547647 78.3888834,35.5292353 C78.3365644,35.4270724 78.2456442,35.3621765 78.2048098,35.2609774 C78.1547239,35.1437149 78.156319,34.9846878 78.1008098,34.8683891 C78.0736933,34.8086335 77.9757546,34.7337783 77.9371534,34.662457 C77.7862577,34.3758869 77.652908,33.8043529 77.7948712,33.5897466 C78.0331779,33.5103937 78.1946012,33.3735339 78.5314847,33.4030905 C79.0604172,33.4503167 79.6939877,33.5001131 80.3151166,33.568543 C80.9231656,33.6356878 81.5111166,33.7465249 82.0362209,33.8155973 C82.1756319,33.8351946 82.3396074,33.8004977 82.4672147,33.8368009 C82.559411,33.8634661 82.6331043,33.9665928 82.732638,34.0016109 C83.1275828,34.1426471 83.667362,34.0334163 84.0233865,34.1879457 C84.3899387,34.4314661 85.0014969,34.4282534 85.4372761,34.6007738 C85.5307485,34.7649412 85.7036564,34.7241403 85.8676319,34.7662262 C86.1186994,34.828552 86.4163436,35.0438009 86.6884663,35.1992941 C86.7560982,35.2378462 86.8521227,35.243629 86.9136933,35.2818597 C86.977816,35.3210543 87.0154601,35.4103665 87.0789448,35.4466697 C87.1370061,35.4826516 87.2323926,35.4922896 87.3028957,35.5292353 C87.3915828,35.5754977 87.4537914,35.679267 87.5274847,35.7149276 C87.688589,35.7923529 87.8302331,35.7868914 87.897865,35.9427059 C87.9747485,35.9606968 88.0423804,35.9886471 88.122454,36.0037466 C88.2908957,36.2957783 88.6979632,36.3455747 88.9215951,36.5813846 C89.3452515,36.7176018 89.6202454,37.0048145 89.9054479,37.2830317 C90.1051534,37.6900769 90.3032638,38.1286063 90.7250061,38.3155837 C90.965546,38.4209593 91.2730798,38.4196742 91.5043681,38.5417557 C91.6153865,38.60119 91.6613252,38.7181312 91.7902086,38.7489729 C92.0103313,38.9921719 91.8441227,39.2514344 91.9139877,39.5736652 C91.969816,39.8416018 92.3105276,40.0803032 92.5274601,40.23419 C92.7638528,40.4009276 92.8777423,40.4815656 93.183362,40.4815656 C93.7984294,40.4841357 94.7152883,40.5429276 94.7822822,39.9864932 C94.8317301,39.593905 94.4176442,39.4284525 94.189227,39.2238054 L94.189227,39.2238054 Z" id="Fill-2" fill="#FFFFFE"></path>
                <path d="M46.9965153,27.0288326 C46.9965153,30.7002715 45.8193374,33.6761674 44.3652515,33.6761674 C42.9114847,33.6761674 41.7333497,30.7002715 41.7333497,27.0288326 C41.7333497,23.3577149 42.9114847,20.381819 44.3652515,20.381819 C45.8193374,20.381819 46.9965153,23.3577149 46.9965153,27.0288326" id="Fill-3" fill="#D5D5D5"></path>
                <path d="M6.46458896,62.6650498 L3.53887117,62.6650498 C3.4077546,62.6650498 3.3002454,62.7733167 3.3002454,62.9050362 L3.3002454,64.4092081 C3.3002454,64.5409276 3.4077546,64.6479095 3.53887117,64.6479095 L4.6315092,64.6479095 L4.6315092,68.0967104 C4.6315092,68.7106516 4.39352147,68.9493529 3.78451534,68.9493529 L3.25271166,68.9493529 C2.6433865,68.9493529 2.40667485,68.7106516 2.40667485,68.0967104 L2.40667485,58.6196561 C2.40667485,58.0076425 2.6433865,57.7689412 3.25271166,57.7689412 L3.74368098,57.7689412 C4.35173006,57.7689412 4.58971779,58.0076425 4.58971779,58.6196561 L4.58971779,60.6394615 C4.58971779,60.771181 4.69499387,60.879448 4.8273865,60.879448 L6.42279755,60.879448 C6.55423313,60.879448 6.66142331,60.771181 6.66142331,60.6394615 L6.66142331,58.6607783 C6.66142331,56.7791176 5.67278528,55.78319 3.80397546,55.78319 L3.19082209,55.78319 C1.26841718,55.78319 0.293496933,56.7656244 0.293496933,58.7031855 L0.293496933,68.0147873 C0.293496933,69.9507421 1.26841718,70.9322127 3.19082209,70.9322127 L3.80397546,70.9322127 C5.72797546,70.9322127 6.70353374,69.9507421 6.70353374,68.0147873 L6.70353374,62.9050362 C6.70353374,62.7733167 6.59634356,62.6650498 6.46458896,62.6650498" id="Fill-4" fill="#FFFFFE"></path>
                <path d="M11.8767362,66.4344751 L10.1958282,66.4344751 L11.0440982,60.4242127 L11.8767362,66.4344751 Z M12.3453742,56.0700814 C12.3265521,55.952819 12.2273374,55.8663982 12.1086626,55.8663982 L10.0229202,55.8663982 C9.90584049,55.8663982 9.80598773,55.952819 9.78748466,56.0700814 L7.57796319,70.5322353 C7.56871166,70.6013077 7.58721472,70.6716652 7.63315337,70.725638 C7.67781595,70.7783258 7.74417178,70.8091674 7.81371779,70.8091674 L9.38839264,70.8091674 C9.5073865,70.8091674 9.60819632,70.7198552 9.62446626,70.6013077 L9.92370552,68.3987014 L12.1485399,68.3987014 L12.4678773,70.6038778 C12.4851043,70.7214615 12.5849571,70.8091674 12.7036319,70.8091674 L14.3188221,70.8091674 C14.3220123,70.8091674 14.3258405,70.8091674 14.3312638,70.8091674 C14.4623804,70.8091674 14.5689325,70.7021855 14.5689325,70.569181 C14.5689325,70.5293439 14.56,70.4927195 14.543411,70.4605928 L12.3453742,56.0700814 L12.3453742,56.0700814 Z" id="Fill-5" fill="#FFFFFE"></path>
                <path d="M17.7272147,57.8919864 L18.8396319,57.8919864 C19.4400245,57.8919864 19.6853497,58.139362 19.6853497,58.7430226 L19.6853497,61.8345747 C19.6853497,62.5272262 19.4046135,62.8099412 18.7168098,62.8099412 L17.7272147,62.8099412 L17.7272147,57.8919864 Z M20.8628466,63.7355113 C21.4983313,63.2944118 21.7982086,62.5712398 21.7982086,61.5049548 L21.7982086,58.8262308 C21.7982086,56.890276 20.8232883,55.9091267 18.9005644,55.9091267 L15.8523436,55.9091267 C15.720908,55.9091267 15.6140368,56.0157873 15.6140368,56.1491131 L15.6140368,70.569181 C15.6140368,70.7021855 15.720908,70.8091674 15.8523436,70.8091674 L17.489227,70.8091674 C17.6203436,70.8091674 17.7272147,70.7021855 17.7272147,70.569181 L17.7272147,64.752 L18.6957546,64.752 C19.4221595,64.752 19.7054479,65.0372851 19.7054479,65.7681674 L19.7054479,70.569181 C19.7054479,70.7021855 19.812319,70.8091674 19.9437546,70.8091674 L21.580319,70.8091674 C21.7120736,70.8091674 21.8186258,70.7021855 21.8186258,70.569181 L21.8186258,65.7068054 C21.8186258,64.7137692 21.5203436,64.085371 20.8628466,63.7355113 L20.8628466,63.7355113 Z" id="Fill-6" fill="#FFFFFE"></path>
                <path d="M25.3782331,57.8919864 L26.122184,57.8919864 C27.074454,57.8919864 27.4990675,58.3327647 27.4990675,59.3213032 L27.4990675,67.396991 C27.4990675,68.3855294 27.074454,68.8263077 26.122184,68.8263077 L25.3782331,68.8263077 L25.3782331,57.8919864 Z M26.2044908,55.9091267 L23.503362,55.9091267 C23.3725644,55.9091267 23.2644172,56.0157873 23.2644172,56.1491131 L23.2644172,70.569181 C23.2644172,70.7021855 23.3725644,70.8091674 23.503362,70.8091674 L26.2044908,70.8091674 C28.4979141,70.8091674 29.6122454,69.6860181 29.6122454,67.3748235 L29.6122454,59.3418643 C29.6122454,57.0306697 28.4979141,55.9091267 26.2044908,55.9091267 L26.2044908,55.9091267 Z" id="Fill-7" fill="#FFFFFE"></path>
                <path d="M37.474773,55.9091267 L35.9201963,55.9091267 C35.7893988,55.9091267 35.6812515,56.0157873 35.6812515,56.1491131 L35.6812515,64.4692851 L33.7792638,56.094819 C33.7543804,55.986552 33.6577178,55.9091267 33.5466994,55.9091267 L31.2963436,55.9091267 C31.165227,55.9091267 31.0577178,56.0157873 31.0577178,56.1491131 L31.0577178,70.569181 C31.0577178,70.7021855 31.165227,70.8091674 31.2963436,70.8091674 L32.8512393,70.8091674 C32.9836319,70.8091674 33.088908,70.7021855 33.088908,70.569181 L33.088908,61.4095385 L35.1966626,70.6231538 C35.2225031,70.7314208 35.3182086,70.8091674 35.429227,70.8091674 L37.474773,70.8091674 C37.6065276,70.8091674 37.7121227,70.7021855 37.7121227,70.569181 L37.7121227,56.1491131 C37.7121227,56.0157873 37.6065276,55.9091267 37.474773,55.9091267" id="Fill-8" fill="#FFFFFE"></path>
                <path d="M43.9789202,68.8041403 L41.3132025,68.8041403 L41.3132025,64.1968507 L43.836638,64.1968507 C43.9674356,64.1968507 44.0752638,64.0885837 44.0752638,63.9568643 L44.0752638,62.451086 C44.0752638,62.3193665 43.9674356,62.2123846 43.836638,62.2123846 L41.3132025,62.2123846 L41.3132025,57.9125475 L43.9390429,57.9125475 C44.0698405,57.9125475 44.1767117,57.8039593 44.1767117,57.6722398 L44.1767117,56.1491131 C44.1767117,56.0157873 44.0698405,55.9091267 43.9390429,55.9091267 L39.4386503,55.9091267 C39.3056196,55.9091267 39.1993865,56.0157873 39.1993865,56.1491131 L39.1993865,70.569181 C39.1993865,70.7021855 39.3056196,70.8091674 39.4386503,70.8091674 L43.9789202,70.8091674 C44.1106748,70.8091674 44.217546,70.7021855 44.217546,70.569181 L44.217546,69.044448 C44.217546,68.9111222 44.1106748,68.8041403 43.9789202,68.8041403" id="Fill-9" fill="#FFFFFE"></path>
                <path d="M47.6125399,57.8919864 L48.724319,57.8919864 C49.3263067,57.8919864 49.5706748,58.139362 49.5706748,58.7430226 L49.5706748,61.8345747 C49.5706748,62.5272262 49.2899387,62.8099412 48.602135,62.8099412 L47.6125399,62.8099412 L47.6125399,57.8919864 Z M50.7472147,63.7355113 C51.3833374,63.2944118 51.6828957,62.5712398 51.6828957,61.5049548 L51.6828957,58.8262308 C51.6828957,56.890276 50.7086135,55.9091267 48.7862086,55.9091267 L45.7379877,55.9091267 C45.6055951,55.9091267 45.5,56.0157873 45.5,56.1491131 L45.5,70.569181 C45.5,70.7021855 45.6055951,70.8091674 45.7379877,70.8091674 L47.3748712,70.8091674 C47.5072638,70.8091674 47.6125399,70.7021855 47.6125399,70.569181 L47.6125399,64.752 L48.5810798,64.752 C49.3074847,64.752 49.5917301,65.0372851 49.5917301,65.7681674 L49.5917301,70.569181 C49.5917301,70.7021855 49.6973252,70.8091674 49.8287607,70.8091674 L51.4656442,70.8091674 C51.5964417,70.8091674 51.7036319,70.7021855 51.7036319,70.569181 L51.7036319,65.7068054 C51.7036319,64.7137692 51.4047117,64.085371 50.7472147,63.7355113 L50.7472147,63.7355113 Z" id="Fill-10" fill="#FFFFFE"></path>
                <path d="M70.2666748,57.8919864 L71.0096687,57.8919864 C71.9638528,57.8919864 72.3894233,58.3327647 72.3894233,59.3213032 L72.3894233,67.396991 C72.3894233,68.3855294 71.9638528,68.8263077 71.0096687,68.8263077 L70.2666748,68.8263077 L70.2666748,57.8919864 Z M71.0916564,55.9091267 L68.3927607,55.9091267 C68.2619632,55.9091267 68.155092,56.0157873 68.155092,56.1491131 L68.155092,70.569181 C68.155092,70.7021855 68.2619632,70.8091674 68.3927607,70.8091674 L71.0916564,70.8091674 C73.3876319,70.8091674 74.5016442,69.6860181 74.5016442,67.3748235 L74.5016442,59.3418643 C74.5016442,57.0306697 73.3876319,55.9091267 71.0916564,55.9091267 L71.0916564,55.9091267 Z" id="Fill-11" fill="#FFFFFE"></path>
                <path d="M80.2031411,58.6196561 L80.2031411,68.0967104 C80.2031411,68.7019774 79.958135,68.9493529 79.3564663,68.9493529 L78.8654969,68.9493529 C78.2571288,68.9493529 78.0194601,68.7106516 78.0194601,68.0967104 L78.0194601,58.6196561 C78.0194601,58.0076425 78.2571288,57.7689412 78.8654969,57.7689412 L79.3564663,57.7689412 C79.958135,57.7689412 80.2031411,58.0150317 80.2031411,58.6196561 Z M79.4177178,55.78319 L78.8039264,55.78319 C76.8818405,55.78319 75.9072393,56.7656244 75.9072393,58.7031855 L75.9072393,68.0147873 C75.9072393,69.9507421 76.8818405,70.9322127 78.8039264,70.9322127 L79.4177178,70.9322127 C81.3410798,70.9322127 82.3144049,69.9507421 82.3144049,68.0147873 L82.3144049,58.7031855 C82.3144049,56.7656244 81.3410798,55.78319 79.4177178,55.78319 L79.4177178,55.78319 Z" id="Fill-12" fill="#FFFFFE"></path>
                <path d="M92.7571534,55.9091267 L90.2190429,55.9091267 C90.1026012,55.9091267 90.0033865,55.9939412 89.9845644,56.1095973 L88.3987239,65.9936968 L86.8128834,56.1095973 C86.7946994,55.9939412 86.6951656,55.9091267 86.5777669,55.9091267 L83.9994601,55.9091267 C83.8686626,55.9091267 83.7624294,56.0157873 83.7624294,56.1491131 L83.7624294,70.569181 C83.7624294,70.7021855 83.8686626,70.8091674 83.9994601,70.8091674 L85.5540368,70.8091674 C85.6857914,70.8091674 85.7926626,70.7021855 85.7926626,70.569181 L85.7926626,61.5531448 L87.2831166,70.6083756 C87.3028957,70.7240317 87.4033865,70.8091674 87.5188712,70.8091674 L89.1962699,70.8091674 C89.3123926,70.8091674 89.4122454,70.7240317 89.4313865,70.6083756 L90.9224785,61.5531448 L90.9224785,70.569181 C90.9224785,70.7021855 91.0296687,70.8091674 91.1601472,70.8091674 L92.7571534,70.8091674 C92.8879509,70.8091674 92.994184,70.7021855 92.994184,70.569181 L92.994184,56.1491131 C92.994184,56.0157873 92.8879509,55.9091267 92.7571534,55.9091267" id="Fill-13" fill="#FFFFFE"></path>
                <path d="M103.475215,55.9091267 L100.937742,55.9091267 C100.820663,55.9091267 100.722405,55.9939412 100.702626,56.1095973 L99.1167853,65.9936968 L97.5322209,56.1095973 C97.5133988,55.9939412 97.4148221,55.9091267 97.2974233,55.9091267 L94.7191166,55.9091267 C94.588319,55.9091267 94.4820859,56.0157873 94.4820859,56.1491131 L94.4820859,70.569181 C94.4820859,70.7021855 94.588319,70.8091674 94.7191166,70.8091674 L96.2736933,70.8091674 C96.4054479,70.8091674 96.511681,70.7021855 96.511681,70.569181 L96.511681,61.5547511 L98.002135,70.6083756 C98.0215951,70.7240317 98.1214479,70.8091674 98.2375706,70.8091674 L99.9159264,70.8091674 C100.032049,70.8091674 100.131902,70.7240317 100.150724,70.6083756 L101.641497,61.5547511 L101.641497,70.569181 C101.641497,70.7021855 101.748049,70.8091674 101.879166,70.8091674 L103.475215,70.8091674 C103.60665,70.8091674 103.712883,70.7021855 103.712883,70.569181 L103.712883,56.1491131 C103.712883,56.0157873 103.60665,55.9091267 103.475215,55.9091267" id="Fill-14" fill="#FFFFFE"></path>
                <path d="M56.1982822,64.9868462 L55.3362945,64.9868462 L55.7714356,61.9068597 L56.1982822,64.9868462 Z M56.4276564,59.7267421 C56.419362,59.6692353 56.3702331,59.6265068 56.3121718,59.6265068 L55.2536687,59.6265068 C55.1956074,59.6265068 55.1464785,59.6692353 55.137546,59.7267421 L54.0177914,67.0609457 C54.0126871,67.095 54.0222577,67.1293756 54.0442699,67.1557195 C54.0669202,67.1817421 54.0994601,67.1968416 54.1335951,67.1968416 L54.9317791,67.1968416 C54.9904785,67.1968416 55.0399264,67.1534706 55.0479018,67.095 L55.2010307,65.9740995 L56.334184,65.9740995 L56.4962454,67.0959638 C56.5051779,67.1537919 56.5543067,67.1968416 56.6123681,67.1968416 L57.4325644,67.1968416 C57.4347975,67.1971629 57.4363926,67.1971629 57.4370307,67.1968416 C57.5021104,67.1968416 57.5544294,67.1441538 57.5544294,67.0789367 C57.5544294,67.061267 57.5506012,67.0442398 57.5435828,67.0291403 L56.4276564,59.7267421 L56.4276564,59.7267421 Z" id="Fill-15" fill="#D5D5D5"></path>
                <path d="M61.4432638,59.6483529 L60.6543313,59.6483529 C60.5895706,59.6483529 60.5372515,59.701362 60.5372515,59.7665792 L60.5372515,64.0175837 L59.5652025,59.7402353 C59.5530798,59.6865837 59.505865,59.6483529 59.4513129,59.6483529 L58.309546,59.6483529 C58.2447853,59.6483529 58.1924663,59.701362 58.1924663,59.7665792 L58.1924663,67.0789367 C58.1924663,67.1441538 58.2447853,67.1968416 58.309546,67.1968416 L59.0981595,67.1968416 C59.1632393,67.1968416 59.2155583,67.1441538 59.2155583,67.0789367 L59.2155583,62.4009683 L60.2922454,67.1052805 C60.3046871,67.1589321 60.3519018,67.1968416 60.406454,67.1968416 L61.4432638,67.1968416 C61.5080245,67.1968416 61.5603436,67.1441538 61.5603436,67.0789367 L61.5603436,59.7665792 C61.5603436,59.701362 61.5080245,59.6483529 61.4432638,59.6483529" id="Fill-16" fill="#D5D5D5"></path>
                <path d="M63.4859387,60.6458869 L63.8674847,60.6458869 C64.3527117,60.6458869 64.5693252,60.8707738 64.5693252,61.3745204 L64.5693252,65.4693891 C64.5693252,65.973457 64.3527117,66.1980226 63.8674847,66.1980226 L63.4859387,66.1980226 L63.4859387,60.6458869 Z M63.9095951,59.6483529 L62.539092,59.6483529 C62.4743313,59.6483529 62.4216933,59.701362 62.4216933,59.7665792 L62.4216933,67.0789367 C62.4216933,67.1441538 62.4743313,67.1968416 62.539092,67.1968416 L63.9095951,67.1968416 C65.069546,67.1968416 65.6338896,66.6281991 65.6338896,65.4591086 L65.6338896,61.3848009 C65.6338896,60.2166742 65.069546,59.6483529 63.9095951,59.6483529 L63.9095951,59.6483529 Z" id="Fill-17" fill="#D5D5D5"></path>
                <path d="M41.7333497,27.0288326 C41.7333497,23.386629 42.8933006,20.4306516 44.3307975,20.3840679 L44.3307975,20.3776425 C43.9935951,20.3439095 43.6327853,20.2979683 43.3549202,20.4023801 C43.2011534,20.4602081 38.9279018,20.485267 38.7636074,20.4435023 C38.6328098,20.4097692 38.4745767,20.4078416 38.3342086,20.381819 C38.1836319,20.3548326 38.0346503,20.2947557 37.9236319,20.278371 C37.7331779,20.2507421 37.5478282,20.2767647 37.3911902,20.2375701 C37.3152638,20.2173303 37.2520982,20.1665701 37.1863804,20.1553258 C37.0297423,20.1260905 36.8756564,20.1559683 36.7148712,20.1341222 C36.3984049,20.0907511 36.0589693,19.9384706 35.7316564,19.8864253 C35.4225276,19.8363077 35.1982577,19.7887602 34.9522945,19.7627376 C34.8476564,19.7511719 34.7474847,19.7723756 34.6453988,19.7627376 C34.4731288,19.7479593 34.3161718,19.6679638 34.1336933,19.6390498 C33.1147485,19.4774525 31.9771288,19.7193665 31.1413006,19.8661855 C30.9147975,19.9057014 30.6506503,19.9249774 30.4452025,19.9898733 C30.3807607,20.0094706 30.3287607,20.0576606 30.2588957,20.0721176 C29.6779632,20.1922715 29.051411,20.0872172 28.4561227,20.1129186 C28.0094969,20.1334796 27.5504294,20.1019955 27.1245399,20.1755656 C26.7733006,20.2356425 26.3352883,20.4078416 25.9980859,20.4643846 C25.8733497,20.4849457 25.7451043,20.4730588 25.6500368,20.5051855 C25.4908466,20.5594796 25.3629202,20.722362 25.1775706,20.774086 C25.0094479,20.820991 24.7963436,20.8049276 24.6247117,20.8563303 C24.5586748,20.8759276 24.4967853,20.9273303 24.440319,20.9392172 C24.2626258,20.9745566 24.0769571,20.9453213 23.9072393,20.9806606 C23.6290552,21.0372036 23.3747975,21.1631403 23.1077791,21.2485973 C22.6133006,21.4063394 22.0486359,21.466095 21.5299141,21.6199819 C21.3633865,21.6697783 21.2067485,21.7465611 21.0383067,21.7851131 C20.764589,21.8467964 20.5141595,21.8120995 20.3415706,21.9505656 C20.1134724,21.9267919 20.0078773,22.0276697 19.7883926,22.0119276 C19.7287362,22.0276697 19.7395828,22.1144118 19.6863067,22.1356154 C19.3660123,22.1449321 19.2017178,22.3964842 18.9681963,22.4661991 C18.6485399,22.5616154 18.0918528,22.5079638 17.6375706,22.5278824 C17.3488589,22.5404118 17.0646135,22.5176018 16.8160982,22.5484434 C16.6068221,22.5747873 16.4396564,22.795819 16.2632393,22.8790271 C16.2160245,22.9015158 16.1503067,22.8796697 16.0995828,22.8995882 C16.0223804,22.9294661 15.9726135,22.9978959 15.895092,23.0229548 C15.5633129,23.1318643 15.0745767,23.0769276 14.7274847,23.126724 C14.1401718,23.2086471 13.6673865,23.660991 12.9850061,23.6012353 C12.9205644,23.6124796 12.9205644,23.6873348 12.8424049,23.6838009 C12.3291043,23.8132715 11.6917055,23.7371312 11.2023313,23.8688507 C11.0533497,23.909009 10.5464294,24.1216878 10.4644417,24.2203167 C10.399681,24.2977421 10.4082945,24.4037602 10.3617178,24.4676923 C10.226135,24.6575611 10.0305767,24.6636652 9.7881227,24.7365928 C9.68954601,24.7655068 9.5957546,24.8528914 9.50100613,24.8808416 C9.3236319,24.9319231 9.11180368,24.9319231 8.88593865,24.963086 C8.80139877,25.0633213 8.64029448,25.1092624 8.57936196,25.2313439 C8.53533742,25.3187285 8.5643681,25.4465928 8.51683436,25.5410452 C8.4951411,25.5850588 8.40390184,25.6126878 8.37391411,25.6640905 C8.35573006,25.6965385 8.36561963,25.7572579 8.35349693,25.7880995 C8.27757055,25.9753982 8.17420859,25.9468054 8.02522699,26.0573213 C7.92537423,26.1308914 7.89123926,26.2365882 7.82009816,26.2632534 C7.73173006,26.2966652 7.6283681,26.260362 7.53393865,26.284457 C7.4203681,26.3130498 7.31573006,26.407181 7.20598773,26.4489457 C7.04520245,26.5112715 6.86176687,26.586448 6.69396319,26.6343167 C6.51722699,26.6857195 6.31560736,26.6577692 6.1203681,26.6966425 C5.94682209,26.7306968 5.78922699,26.871733 5.58760736,26.8405701 C5.28453988,27.0728462 4.9278773,27.249543 4.76773006,27.6263891 C4.67330061,27.6405249 4.63087117,27.7073484 4.56260123,27.7497557 C4.56866258,27.8972172 4.51570552,27.9971312 4.58365644,28.0996154 C4.87396319,28.1417014 5.1929816,28.2204118 5.50530061,28.2236244 C5.61312883,28.2249095 5.72957055,28.1603348 5.83325153,28.1828235 C6.00392638,28.219448 6.10633129,28.4334118 6.28466258,28.4093167 C6.34336196,28.9985204 7.27936196,28.8571629 7.73842945,28.7392579 C7.96652761,28.6807873 8.23960736,28.6248869 8.45590184,28.5538869 C8.55734969,28.5207964 8.64635583,28.4430498 8.74333742,28.4093167 C8.87222086,28.3636968 9.00557055,28.382009 9.11180368,28.3476335 C9.20878528,28.3158281 9.28694479,28.206276 9.39860123,28.1616199 C9.4569816,28.13881 9.53035583,28.1612986 9.58267485,28.1404163 C9.74633129,28.0790543 9.90584049,27.8914344 10.1361718,27.9145656 C10.313865,27.6980317 10.6533006,27.7311222 10.9557301,27.6263891 C11.1426748,27.5595656 11.2527362,27.3973258 11.509227,27.4606154 C12.0828221,27.2575747 12.7361718,27.3083348 13.3129571,27.1091493 C13.4201472,27.0715611 13.4935215,27.0105204 13.5997546,26.9851403 C13.7946748,26.9385566 14.0294724,26.9054661 14.2349202,26.9440181 C14.2933006,26.926991 14.2913865,26.8495656 14.3574233,26.8405701 C14.9632393,26.5986561 15.6453006,26.4483032 16.2836564,26.2426923 C16.4556074,26.1867919 16.606184,26.0669593 16.7759018,26.0152353 C16.9379632,25.9670452 17.0196319,25.9602986 17.1242699,25.9121086 C17.3373742,25.8147647 17.6468221,25.8208688 17.8825767,25.7472986 C18.0599509,25.6926833 18.199681,25.5368688 18.3748221,25.4992805 C18.6360982,25.4443439 18.9136442,25.4594434 19.153227,25.3967964 C19.2642454,25.3675611 19.4001472,25.2930271 19.5226503,25.2522262 C19.7657423,25.1699819 19.9520491,25.0909502 20.0956074,24.963086 C20.1785521,24.9364208 20.2583067,24.9071855 20.3623067,24.9010814 C20.4404663,24.8972262 20.3942086,24.7687195 20.4848098,24.7777149 C20.6918528,24.745267 20.8063804,24.6202941 21.0587239,24.6331448 C21.2252515,24.5367647 21.4121963,24.3780588 21.632638,24.282 C21.7254724,24.2411991 21.8431902,24.2405566 21.9392147,24.1994344 C22.047362,24.1541357 22.1277546,24.0667511 22.2272883,24.0339819 C22.5715092,23.9231448 22.8139632,23.8116652 23.1492515,23.7046833 C23.4446626,23.6095882 23.7190184,23.5311991 23.9276564,23.4364253 C24.0718528,23.3702443 24.2776196,23.3612489 24.4814724,23.2915339 C24.8225031,23.1745928 25.3399509,22.8542896 25.5878282,23.2292081 C25.5878282,23.3117738 25.5878282,23.3943394 25.5878282,23.4778688 C25.4675583,23.7033982 25.3255951,23.8861991 25.2385031,24.1377511 C25.1976687,24.2582262 25.2263804,24.4021538 25.1775706,24.5300181 C25.1494969,24.6016606 25.0518773,24.651457 25.0132761,24.7365928 C24.995411,24.7761086 25.0132761,24.8448597 24.9934969,24.8808416 C24.9341595,24.9849321 24.8113374,25.0543258 24.7676319,25.1699819 C24.7245644,25.2814615 24.7197791,25.4343846 24.6862822,25.5609638 C24.6540613,25.6804751 24.5848344,25.7990226 24.5628221,25.9121086 C24.5207117,26.1273575 24.5302822,26.3541719 24.4814724,26.573276 C24.4664785,26.6384932 24.4160736,26.6898959 24.4001227,26.7580045 C24.2364663,27.4182081 24.2517791,28.140095 24.2355092,28.9869548 C23.9812515,29.2475023 24.1331043,29.749 23.988908,30.1226335 C23.9672147,30.1785339 23.9168098,30.2392534 23.8874601,30.3080045 C23.8517301,30.3899276 23.8415215,30.497552 23.8051534,30.5756199 C23.7850552,30.6199548 23.7266748,30.6363394 23.7017914,30.6797104 C23.5936442,30.8734344 23.5327117,31.1179186 23.4360491,31.2570271 C23.3342822,31.4035249 23.140638,31.5725113 22.984638,31.6078507 C22.4863313,32.1854887 21.9130552,32.6882715 21.3043681,33.1553937 C21.2268466,33.1669593 21.1703804,33.1987647 21.0998773,33.218362 C21.0670184,33.3176335 20.9655706,33.3661448 20.8950675,33.4242941 C20.8137178,33.4907964 20.7521472,33.5624389 20.6491043,33.6096652 C20.539362,33.6610679 20.400908,33.654 20.3010552,33.7131131 C20.2066258,33.7680498 20.1559018,33.862181 20.054454,33.9196878 C19.9628957,33.9714118 19.8499632,34.013819 19.7274601,34.0642579 C19.500638,34.1554977 19.3357055,34.3489005 19.1324908,34.4147602 C19.0556074,34.4394977 18.9640491,34.4137964 18.8874847,34.435 C18.4960491,34.5442308 18.1904294,34.8603575 17.7600736,34.9104751 C17.6911656,34.9779412 17.6321472,35.0566516 17.4924172,35.054724 C17.0055951,35.3891629 16.4000982,35.6044118 16.3034356,36.3333665 C16.1780613,36.440991 16.1455215,36.6414615 15.9563436,36.6845113 C15.8733988,36.9174299 15.6957055,37.0546109 15.6283926,37.3035928 C15.2203681,37.7954525 14.7791656,38.251009 14.2760736,38.6448824 C14.2342822,38.6917873 14.1401718,38.6876109 14.092319,38.7268054 C13.8603926,38.8896878 13.6989693,39.1502353 13.4772515,39.3259683 C13.4195092,39.3715882 13.3276319,39.3786561 13.2711656,39.4300588 C13.1595092,39.5309367 13.1314356,39.6674751 13.0060613,39.7391176 C12.8041227,39.8534887 12.5221104,39.9424796 12.2675337,40.0700226 C11.907362,40.2499321 11.6342822,40.4523303 11.2425276,40.565095 C11.1222577,40.5985068 11.0023067,40.6688643 10.9155337,40.6881403 C10.8705521,40.6984208 10.833865,40.6441267 10.7920736,40.6470181 C10.6115092,40.6585837 10.5540859,40.8111855 10.4035092,40.896 C10.3377914,40.9310181 10.2337914,40.9412986 10.1770061,40.9779231 C10.0277055,41.0762308 9.98463804,41.3046516 9.85001227,41.3910724 C9.54247853,41.4453665 9.40880982,41.6750724 9.11180368,41.6795701 C8.87541104,41.6824615 8.67219632,41.4672127 8.51683436,41.4116335 C8.12252761,41.2667421 7.72630675,41.436371 7.30807362,41.4729955 C7.19450307,41.6121041 7.05381595,41.7248688 6.81742331,41.7409321 C6.74755828,41.8919276 6.61133742,41.9577873 6.52966871,42.070552 C6.50925153,42.098181 6.47288344,42.1087828 6.44736196,42.1335204 C6.33570552,42.2446787 6.21479755,42.2989729 6.1203681,42.401457 C5.83165644,42.7105158 5.71553374,43.4269412 6.16056442,43.6184163 C6.44353374,43.7414615 7.04041718,43.5981765 7.28797546,43.5570543 C7.59072393,43.5072579 7.93143558,43.5467738 8.20993865,43.5159321 C8.32733742,43.5014751 8.44122699,43.4369005 8.55862577,43.4121629 C9.02822086,43.3183529 9.53035583,43.2611674 9.932,43.1850271 C10.3113129,42.9974072 10.7477301,42.9228733 11.1611779,42.8554072 C11.2884663,42.8335611 11.4502086,42.8335611 11.5506994,42.7940452 C11.7102086,42.7294706 12.0352883,42.3898914 12.185546,42.2578507 C12.2630675,42.1890995 12.3600491,42.1421946 12.411092,42.0911131 C12.4707485,42.0339276 12.4822331,41.9532896 12.5339141,41.9067059 C12.8369816,41.6297738 13.2191656,41.5449593 13.4354601,41.246181 C13.8868712,41.1302036 13.9851288,40.6560136 14.4186748,40.5242941 C14.5721227,40.2589276 14.8911411,40.1593348 15.0133252,39.863448 C15.2809816,39.7465068 15.4864294,39.5691674 15.6896442,39.3889367 C15.9145521,39.390543 15.9547485,39.2556109 16.0995828,39.1605158 C16.2712147,39.0493575 16.4958037,38.9732172 16.5915092,38.8733032 C16.6683926,38.790095 16.7219877,38.6522715 16.796319,38.5616742 C17.0100613,38.3036968 17.3054724,38.1032262 17.6567117,38.0065249 C17.8257914,37.825009 18.0577178,37.7077466 18.3138896,37.6132941 C18.5091288,37.4044706 18.7075583,37.1978959 19.0099877,37.0976606 C19.1656687,36.9138959 19.3242209,36.7381629 19.5427485,36.6225068 C19.7472393,36.5155249 20.0078773,36.5052443 20.1983313,36.395371 C20.2659632,36.3552127 20.3119018,36.2675068 20.3824049,36.2308824 C20.4669448,36.1875113 20.5801963,36.1862262 20.6695215,36.1483167 C20.7569325,36.1116923 20.8303067,36.0236652 20.9151656,35.9828643 C20.9879018,35.94881 21.0679755,35.9545928 21.1410307,35.921181 C21.2456687,35.872991 21.3260613,35.8000633 21.4278282,35.7560498 C21.6476319,35.6606335 21.8591411,35.5706787 22.0425767,35.5083529 C22.2486626,35.4396018 22.4828221,35.4672308 22.6984785,35.3843439 C22.7552638,35.3631403 22.8037546,35.3020995 22.862135,35.2818597 C22.9530552,35.249733 23.0612025,35.249733 23.1492515,35.2192127 C23.5177178,35.0916697 24.0176196,34.8099186 24.5012515,34.9718371 C24.5487853,35.1311855 24.5251779,35.2847511 24.5012515,35.4672308 C24.0023067,35.8100226 23.6724417,36.3237285 23.0254724,36.5200226 C22.9575215,36.5961629 22.9374233,36.7102127 22.862135,36.7882805 C22.7629202,36.8891584 22.5613006,36.934457 22.4729325,37.0141312 C22.393816,37.0857738 22.3357546,37.0938054 22.2473865,37.1599864 C22.134135,37.2435158 22.0377914,37.3900136 21.9392147,37.5092036 C21.8387239,37.6344977 21.7076074,37.7434072 21.6122209,37.8606697 C21.4214479,38.0913394 21.406135,38.438629 21.2437546,38.7268054 C21.1850552,39.8432081 21.3097914,40.8375294 21.3260613,41.8639774 C21.3298896,42.1907059 21.319681,42.4647466 21.2437546,42.7721991 C21.1971779,42.9582127 21.128589,43.1834208 21.1611288,43.432724 C21.1671902,43.4751312 21.215681,43.5159321 21.2230184,43.5570543 C21.2552393,43.7327873 21.232908,44.0929276 21.2019632,44.2776561 C21.1531534,44.588 20.9253742,44.8617195 20.9151656,45.1666018 C20.9049571,45.4962217 21.0316074,45.8769231 21.0172515,46.1991538 C20.9802454,46.5021086 20.7706503,46.7526968 20.730454,47.044086 C20.6529325,47.61819 21.0143804,48.0004977 21.1199755,48.4486652 C21.250773,48.4997466 21.3429693,48.7371629 21.4887607,48.819086 C21.7487607,48.9655837 22.3574479,48.8001312 22.6573252,48.9437376 C22.775681,48.9993167 22.9189202,49.1853303 23.0050552,49.3347195 C23.0490798,49.4092534 23.0560982,49.5191267 23.1077791,49.6042624 C23.1837055,49.7273077 23.4405153,50.0668869 23.5374969,50.1606968 C24.1372515,50.7348009 25.6302577,50.7331946 26.2236319,50.324543 C26.3943067,50.2076018 26.5359509,49.9602262 26.4482209,49.6248235 C26.3419877,49.2161719 25.9862822,48.9482353 25.792638,48.6536335 C25.7342577,48.5656063 25.706184,48.4457738 25.6500368,48.3651357 C25.5000982,48.1585611 25.2187239,47.996 25.1571534,47.745733 C24.925546,47.5536154 24.6936196,47.3589276 24.4610552,47.1687376 C23.8587485,47.0103529 23.0669448,46.9094751 22.862135,46.2810769 C22.7846135,46.0423756 22.7600491,45.6896244 22.7188957,45.3731765 C22.6483926,44.8270226 22.5715092,44.4341131 22.6161718,43.8661131 C22.6413742,43.561552 22.794184,43.2290407 22.8413988,42.8759683 C22.932638,42.2009864 22.9233865,41.5449593 23.0669448,41.0598462 C23.2082699,40.5811584 23.4740123,40.2910543 23.6615951,39.9045701 C23.9748712,39.5646697 24.3449325,39.2350498 24.7472147,38.9761086 C24.9922209,38.817724 25.1619387,38.6448824 25.5055215,38.6448824 C25.6350429,38.5199095 25.7199018,38.3695566 25.8743067,38.2950226 C25.9361963,38.264181 26.0156319,38.2699638 26.0794356,38.2333394 C26.1812025,38.1735837 26.2845644,38.0145566 26.4070675,37.8812308 C26.6980123,37.5647828 26.936319,37.3794118 27.2058896,37.0562172 C27.3497669,36.8843394 27.4847117,36.7616154 27.6362454,36.6019457 C27.7459877,36.4878959 27.8257423,36.3574615 27.923362,36.2723258 C28.0005644,36.2045385 28.0870184,36.1730543 28.149865,36.106552 C28.2401472,36.0095294 28.2854479,35.8787738 28.374454,35.7981357 C28.4637791,35.7165339 28.6044663,35.6979005 28.7435583,35.6118009 C28.894773,35.5186335 29.0073865,35.3429005 29.1327607,35.2818597 C29.1933742,35.2526244 29.276638,35.2526244 29.3375706,35.2192127 C29.4616687,35.1527104 29.5752393,34.9824389 29.7066748,34.8683891 C29.9803926,34.630009 30.2151902,34.4346787 30.4853988,34.2081855 C30.6209816,34.094457 30.8040982,34.0122127 30.8953374,33.8984842 C31.043681,33.7131131 31.1017423,33.4471041 31.3049571,33.3208462 C31.5939877,32.8900271 31.7825276,32.3589729 32.084,31.9384344 C32.2540368,31.8459095 32.4693742,31.8269548 32.6365399,31.7530633 C32.6974724,31.7257557 32.7386258,31.6672851 32.8005153,31.6496154 C33.158773,31.5471312 33.6899387,31.5461674 34.1738896,31.5044027 C34.8897669,31.4440045 35.4655951,31.5027964 36.0589693,31.5461674 C36.3939387,31.570905 36.7228466,31.661181 37.0428221,31.7325023 C37.5494233,31.8443032 38.0161472,31.8892805 38.4563926,32.0422036 C38.601227,32.0910362 38.7278773,32.145009 38.8669693,32.1861312 C39.0714601,32.2474932 39.3222086,32.2924706 39.4606626,32.3509412 C39.5391411,32.3843529 39.571362,32.4302941 39.6450552,32.4540679 C39.7350184,32.4836244 39.8163681,32.4675611 39.8910184,32.4955113 C39.9586503,32.5199276 40.0039509,32.5886787 40.0757301,32.6195204 C40.2042945,32.674457 40.3532761,32.6538959 40.4850307,32.702086 C40.595092,32.7412805 40.6882454,32.8373394 40.7727853,32.8668959 C41.132,32.99219 41.5543804,33.0172489 41.8992393,33.1553937 C42.051411,33.2173982 42.1917791,33.2977149 42.3500123,33.3420498 C42.7558037,33.4548145 43.1660613,33.492724 43.5791902,33.568543 C43.7077546,33.5919955 43.9262822,33.6209095 44.1007853,33.6427557 C42.7714356,33.3079955 41.7333497,30.4750633 41.7333497,27.0288326" id="Fill-18" fill="#FFFFFE"></path>
            </g>
        </g>
    </g>
</svg>