<?xml version="1.0" encoding="UTF-8"?>
<svg width="300px" height="300px" viewBox="0 0 300 300" version="1.1" xmlns="http://www.w3.org/2000/svg" xmlns:xlink="http://www.w3.org/1999/xlink">
    <!-- Generator: Sketch 54 (76480) - https://sketchapp.com -->
    <title>Group Copy</title>
    <desc>Created with Sketch.</desc>
    <g id="Page-1" stroke="none" stroke-width="1" fill="none" fill-rule="evenodd">
        <g id="Artboard" transform="translate(-300.000000, 0.000000)" fill="#FFFFFF">
            <g id="Group-Copy" transform="translate(300.000000, 0.000000)">
                <rect id="Rectangle" fill-opacity="0.000" x="0" y="0" width="300" height="300"></rect>
                <g id="Logo" transform="translate(53.000000, 126.000000)" fill-rule="nonzero">
                    <g id="UNDERCOVER-2">
                        <path d="M17.10848,0.379337846 C17.5301639,0.379337846 17.872254,0.717609068 17.8725264,1.13485495 L17.8725264,11.1339343 C17.8725264,16.7026051 14.6557904,19.4343806 9.66154914,19.4343806 C4.66758034,19.4343806 1.42603928,16.6764598 1.42603928,11.2651999 L1.42603928,1.13485536 C1.42603928,0.71760948 1.7678565,0.379608059 2.18981279,0.379608059 L4.75317055,0.379608059 C5.17512684,0.379608059 5.51694406,0.71760948 5.51694406,1.13485536 L5.51694406,10.9088696 C5.51694406,13.9037148 7.16415484,15.4532932 9.66154789,15.4532932 C12.1583961,15.4532932 13.7104761,13.9560054 13.7104761,11.0401353 L13.7104761,1.13458597 C13.7104761,0.71760948 14.0525662,0.379338257 14.47425,0.379338257 L17.1084792,0.379338257 L17.10848,0.379337846 Z M61.3679954,0.382572591 C61.7954032,0.382572591 62.1421271,0.725425923 62.1423995,1.1480625 L62.1415818,18.6675425 C62.1415818,19.333573 61.3396466,19.6839733 60.8424575,19.2349217 L49.7985388,8.91212648 L49.7985388,18.2888409 C49.7985388,18.7117473 49.4520874,19.0543312 49.0244067,19.0543312 L46.4463293,19.0543312 C46.0186486,19.0543312 45.6721971,18.7117473 45.6721971,18.2888409 L45.6721971,0.767473903 C45.6721971,0.101443453 46.4997551,-0.247069962 46.9969442,0.201981706 L57.9806221,10.5247769 L57.9806221,1.1480625 C57.9806221,0.725425923 58.3270736,0.382572591 58.7547543,0.382572591 L61.3679945,0.382572591 L61.3679954,0.382572591 Z M96.2804116,0.365052736 C102.243135,0.365052736 106.362662,4.41217701 106.362662,9.69163251 L106.362662,9.74527087 C106.362662,15.0249962 102.242863,19.1252196 96.2804116,19.1252196 L90.7249248,19.1252196 C90.2945186,19.1252196 89.9456139,18.7804797 89.9456139,18.3546084 L89.9456139,1.13566394 C89.9456139,0.710062427 90.2945186,0.365052736 90.7249248,0.365052736 L96.2804116,0.365052736 Z M101.999175,9.79890923 L101.999175,9.74500107 C101.999175,6.42185792 99.6955874,4.09034767 96.2806844,4.09034767 L93.8533447,4.09034767 L93.8533447,15.4001941 L96.2806844,15.4001941 C99.6955874,15.4001941 101.999175,13.1220524 101.999175,9.79890923 Z M149.105533,4.54182509 L149.105533,4.54209406 L137.533351,4.54209406 L137.533351,7.76469938 L147.141309,7.76469938 C147.567355,7.76469938 147.912716,8.10620493 147.912716,8.52749414 L147.912716,11.0878429 C147.912716,11.5091322 147.567355,11.8509071 147.141309,11.8509071 L137.533351,11.8509071 L137.533351,15.0735124 L149.105806,15.0735124 C149.531851,15.0735124 149.877212,15.415018 149.877212,15.8363072 L149.877212,18.3796749 C149.877212,18.8009641 149.531851,19.1424697 149.105806,19.1424697 L134.225028,19.1424697 C133.770089,19.1424697 133.401286,18.7777838 133.401286,18.3276541 L133.401286,1.21868152 C133.401286,0.79739231 133.746647,0.455886754 134.172692,0.455886754 L149.105533,0.455886754 C149.531578,0.455886754 149.876939,0.79739231 149.876939,1.21868152 L149.876939,3.77903032 C149.876939,4.20031953 149.531578,4.54182509 149.105533,4.54182509 Z M189.903534,12.6689578 L193.776647,17.910947 C194.149266,18.4149844 193.785097,19.1238714 193.153797,19.1238714 L190.090252,19.1238714 C189.844111,19.1238714 189.612689,19.0077003 189.467403,18.8112067 L185.261468,13.1190874 L181.580798,13.1190874 L181.580798,18.3589207 C181.580798,18.7807487 181.233801,19.1238714 180.807483,19.1238714 L178.230769,19.1238714 C177.803906,19.1238714 177.456637,18.7804789 177.456637,18.3589203 L177.456637,1.18552796 C177.456637,0.763430164 177.803906,0.420307441 178.230769,0.420307441 L187.478102,0.420307441 C189.237617,0.420307441 190.768708,1.05129777 192.029126,2.29629735 C193.288453,3.54183613 193.926839,5.06473011 193.926839,6.82239252 C193.926839,8.56280448 193.288998,10.0045674 192.031579,11.2657391 C191.389376,11.8916081 190.678211,12.3597968 189.903534,12.6689578 Z M189.095874,8.31967958 C189.546179,7.87413205 189.765062,7.35931286 189.765062,6.74557299 C189.765062,6.11700841 189.545907,5.59491197 189.095329,5.14909505 C188.644752,4.70327813 188.123848,4.48656915 187.503453,4.48656915 L181.580798,4.48656915 L181.580798,8.9819365 L187.503453,8.9819365 C188.123848,8.9819365 188.645024,8.76549691 189.095874,8.31967999 L189.095874,8.31967958 Z M18.3136719,43.3892828 C18.7773332,43.5642136 18.9575097,44.1151509 18.692015,44.5294318 C16.9682084,47.2178115 13.8678644,48.9997323 10.1040568,48.9997323 C4.24109797,48.9997323 5.40012479e-13,44.6248488 5.40012479e-13,39.2831299 C0.000272431928,33.9419498 4.26181402,29.5665271 10.1250457,29.5665271 C13.8888533,29.5665271 16.967936,31.3487172 18.6917425,34.0370969 C18.9575097,34.4513778 18.7773332,35.0025845 18.3136719,35.1772455 L15.7255091,36.1537843 C15.3858722,36.2820846 15.0018047,36.1610616 14.8000945,35.8618734 C13.7929053,34.3662027 12.1454217,33.3783433 10.1040576,33.3783433 C6.73821941,33.3783433 4.37030265,36.0087719 4.37030265,39.2297601 L4.37030265,39.336767 C4.37030265,42.5577551 6.73821941,45.0588051 10.1040576,45.0588051 C12.1454217,45.0588051 13.7929053,44.200324 14.8000945,42.7046533 C15.0018047,42.4054651 15.3858722,42.284442 15.7255091,42.4127423 L18.3136719,43.3892811 L18.3136719,43.3892828 Z M55.1889498,29.566525 C61.0519086,29.566525 65.2864649,33.8880399 65.2864649,39.2297588 L65.2864649,39.2833972 C65.2864649,44.6248467 61.0519086,49 55.1889498,49 C49.3257181,49 45.0911618,44.6787544 45.0911618,39.337305 L45.0911618,39.2833972 C45.0911618,33.9419477 49.3257181,29.566525 55.1889498,29.566525 Z M60.9161631,39.337305 L60.9161635,39.2833972 C60.9161635,36.0624091 58.5547884,33.3783421 55.1889502,33.3783421 C51.8228391,33.3783421 49.4611916,36.0087707 49.4611916,39.2297588 L49.4611916,39.2833972 C49.4611916,42.5043853 51.8231116,45.0588043 55.1889498,45.0588043 C58.554788,45.0588043 60.9161631,42.5580237 60.9161631,39.337305 Z M106.50533,30.2557354 C106.624176,30.4452211 106.628537,30.6794504 106.518687,30.8980463 L98.9152938,48.6177938 C98.7986289,48.8487887 98.5909218,48.9865231 98.3600451,48.9865231 C98.1291684,48.9865231 97.9217337,48.8487887 97.8047964,48.6177938 L90.2074003,30.8980463 C90.0970046,30.6794504 90.1016384,30.4452211 90.2202116,30.2557354 C90.3393297,30.0659803 90.5492175,29.9573562 90.7964493,29.9573562 L93.4772901,29.9573562 C93.8283754,29.9573562 94.1969059,30.1821514 94.3533679,30.491043 L98.3600459,40.0796149 L102.366724,30.491043 C102.523186,30.1821514 102.891716,29.9573562 103.242802,29.9573562 L105.929367,29.9573562 C106.176598,29.9573562 106.386486,30.0659803 106.505332,30.2557354 L106.50533,30.2557354 Z M149.178694,34.1069053 L149.178694,34.1071743 L137.606512,34.1071743 L137.606512,37.3297796 L147.21447,37.3297796 C147.640516,37.3297796 147.985877,37.6712851 147.985877,38.0925743 L147.985877,40.6529231 C147.985877,41.0742124 147.640516,41.4159873 147.21447,41.4159873 L137.606512,41.4159873 L137.606512,44.6385926 L149.178967,44.6385926 C149.605012,44.6385926 149.950373,44.9800982 149.950373,45.4013874 L149.950373,47.9447551 C149.950373,48.3660443 149.605012,48.7075499 149.178967,48.7075499 L134.298189,48.7075499 C133.84325,48.7075499 133.474447,48.342864 133.474447,47.8927343 L133.474447,30.7837617 C133.474447,30.3624725 133.819808,30.020967 134.245853,30.020967 L149.178694,30.020967 C149.60474,30.020967 149.9501,30.3624725 149.9501,30.7837617 L149.9501,33.3441105 C149.9501,33.7653997 149.60474,34.1069053 149.178694,34.1069053 Z M189.976695,42.234038 L193.849808,47.4760272 C194.222427,47.9800646 193.858258,48.6889516 193.226958,48.6889516 L190.163413,48.6889516 C189.917272,48.6889516 189.68585,48.5727805 189.540564,48.3762869 L185.334629,42.6841676 L181.653959,42.6841676 L181.653959,47.9240009 C181.653959,48.3458289 181.306962,48.6889516 180.880645,48.6889516 L178.30393,48.6889516 C177.877067,48.6889516 177.529798,48.3455591 177.529798,47.9240005 L177.529798,30.7506082 C177.529798,30.3285104 177.877067,29.9853876 178.30393,29.9853876 L187.551263,29.9853876 C189.310778,29.9853876 190.841869,30.616378 192.102287,31.8613776 C193.361614,33.1069163 194,34.6298103 194,36.3874727 C194,38.1278847 193.362159,39.5696476 192.10474,40.8308193 C191.462537,41.4566883 190.751372,41.924877 189.976695,42.234038 Z M189.169035,37.8847598 C189.61934,37.4392123 189.838223,36.9243931 189.838223,36.3106532 C189.838223,35.6820886 189.619068,35.1599922 189.16849,34.7141753 C188.717913,34.2683583 188.197009,34.0516493 187.576614,34.0516493 L181.653959,34.0516493 L181.653959,38.5470167 L187.576614,38.5470167 C188.197009,38.5470167 188.718185,38.3305771 189.169035,37.8847602 L189.169035,37.8847598 Z" id="UNDERCOVER"></path>
                    </g>
                </g>
            </g>
        </g>
    </g>
</svg>
